<svg id="svg" version="1.1" xmlns="http://www.w3.org/2000/svg" xmlns:xlink="http://www.w3.org/1999/xlink" width="400" height="132.01840894148586" viewBox="0, 0, 400,132.01840894148586"><g id="svgg"><path id="path0" d="M0.000 45.411 L 0.000 53.833 5.583 53.833 L 11.167 53.833 11.167 50.625 L 11.166 47.417 21.111 47.500 C 28.859 47.565,31.071 47.629,31.125 47.792 C 31.163 47.906,31.332 48.000,31.500 48.000 C 31.832 48.000,32.882 48.505,32.972 48.708 C 33.003 48.777,33.129 48.833,33.253 48.833 C 33.565 48.833,35.333 50.601,35.333 50.913 C 35.333 51.053,35.402 51.167,35.487 51.167 C 35.571 51.167,35.690 51.392,35.750 51.667 C 35.810 51.942,35.929 52.167,36.013 52.167 C 36.098 52.167,36.167 52.392,36.167 52.667 C 36.167 52.942,36.242 53.167,36.333 53.167 C 36.426 53.167,36.500 53.611,36.500 54.167 C 36.500 54.722,36.426 55.167,36.333 55.167 C 36.242 55.167,36.167 55.392,36.167 55.667 C 36.167 55.942,36.100 56.167,36.018 56.167 C 35.936 56.167,35.819 56.369,35.756 56.617 C 35.652 57.035,34.357 58.500,34.093 58.500 C 34.029 58.500,33.864 58.613,33.726 58.750 C 33.589 58.887,33.332 59.000,33.155 59.000 C 32.978 59.000,32.833 59.072,32.833 59.161 C 32.833 59.249,32.458 59.372,32.000 59.432 C 31.542 59.493,31.167 59.608,31.167 59.688 C 31.167 59.768,30.754 59.833,30.250 59.833 C 29.746 59.833,29.333 59.908,29.333 60.000 C 29.333 60.092,29.108 60.167,28.833 60.167 L 28.333 60.167 28.333 65.209 L 28.333 70.252 28.792 70.448 C 29.044 70.555,29.756 70.695,30.375 70.758 C 30.994 70.821,31.500 70.932,31.500 71.005 C 31.500 71.078,31.800 71.188,32.167 71.250 C 32.533 71.312,32.833 71.431,32.833 71.515 C 32.833 71.598,32.978 71.667,33.155 71.667 C 33.332 71.667,33.575 71.761,33.696 71.875 C 33.818 71.990,34.198 72.232,34.542 72.413 C 34.885 72.594,35.167 72.800,35.167 72.871 C 35.167 72.942,35.250 73.000,35.352 73.000 C 35.587 73.000,36.896 74.321,37.044 74.708 C 37.106 74.869,37.234 75.000,37.328 75.000 C 37.423 75.000,37.500 75.131,37.501 75.292 C 37.502 75.452,37.619 75.808,37.763 76.083 C 38.320 77.152,37.986 80.497,37.292 80.806 C 37.223 80.836,37.167 80.957,37.167 81.074 C 37.167 81.378,36.130 82.436,35.698 82.573 C 35.497 82.637,35.333 82.753,35.333 82.831 C 35.333 82.910,35.108 83.023,34.833 83.083 C 34.558 83.144,34.333 83.244,34.333 83.306 C 34.333 83.472,33.513 83.796,32.750 83.930 C 32.383 83.995,32.032 84.128,31.969 84.225 C 31.897 84.337,30.535 84.427,28.261 84.471 L 24.667 84.541 24.667 89.937 L 24.667 95.333 29.333 95.333 C 31.900 95.333,34.000 95.268,34.000 95.188 C 34.000 95.108,34.600 94.991,35.333 94.927 C 36.067 94.863,36.667 94.749,36.667 94.674 C 36.667 94.600,37.079 94.487,37.583 94.424 C 38.087 94.361,38.500 94.240,38.500 94.155 C 38.500 94.070,38.688 94.000,38.917 94.000 C 39.146 94.000,39.333 93.932,39.333 93.848 C 39.333 93.764,39.633 93.645,40.000 93.583 C 40.367 93.521,40.667 93.408,40.667 93.332 C 40.667 93.256,40.892 93.144,41.167 93.083 C 41.442 93.023,41.667 92.913,41.667 92.838 C 41.667 92.764,41.837 92.660,42.045 92.608 C 42.253 92.556,42.587 92.360,42.788 92.173 C 42.989 91.986,43.215 91.833,43.290 91.833 C 43.789 91.833,47.167 88.397,47.167 87.890 C 47.167 87.767,47.242 87.667,47.333 87.667 C 47.425 87.667,47.500 87.560,47.500 87.429 C 47.500 87.298,47.594 87.091,47.709 86.970 C 47.824 86.849,48.060 86.450,48.233 86.083 C 48.407 85.717,48.608 85.295,48.680 85.146 C 48.752 84.996,48.864 84.584,48.929 84.229 C 48.995 83.874,49.131 83.530,49.232 83.464 C 49.359 83.383,49.417 81.969,49.417 78.917 C 49.417 75.865,49.359 74.451,49.232 74.369 C 49.131 74.304,48.996 73.969,48.933 73.626 C 48.827 73.047,48.060 71.356,47.818 71.167 C 47.760 71.121,47.659 70.915,47.595 70.708 C 47.530 70.502,47.408 70.333,47.322 70.333 C 47.237 70.333,47.167 70.237,47.167 70.119 C 47.167 69.584,43.759 66.167,43.226 66.167 C 43.102 66.167,43.000 66.093,43.000 66.003 C 43.000 65.913,42.794 65.789,42.542 65.728 C 42.290 65.666,42.046 65.569,42.000 65.511 C 41.954 65.454,41.729 65.324,41.500 65.222 L 41.083 65.036 41.500 64.852 C 42.052 64.608,42.475 64.330,42.989 63.875 C 43.223 63.669,43.467 63.500,43.532 63.500 C 43.751 63.500,45.638 61.521,45.747 61.176 C 45.807 60.987,45.926 60.833,46.011 60.833 C 46.097 60.833,46.167 60.721,46.167 60.583 C 46.167 60.446,46.240 60.333,46.330 60.333 C 46.420 60.333,46.541 60.146,46.598 59.917 C 46.656 59.688,46.763 59.500,46.837 59.500 C 46.910 59.500,47.021 59.200,47.083 58.833 C 47.145 58.467,47.260 58.167,47.338 58.167 C 47.416 58.167,47.526 57.810,47.582 57.375 C 47.638 56.940,47.755 56.453,47.842 56.294 C 48.048 55.916,48.048 51.249,47.841 50.873 C 47.754 50.714,47.635 50.077,47.578 49.458 C 47.520 48.840,47.414 48.333,47.342 48.333 C 47.269 48.333,47.169 48.079,47.119 47.768 C 47.027 47.204,46.215 45.324,45.995 45.167 C 45.931 45.121,45.826 44.915,45.761 44.708 C 45.697 44.502,45.574 44.333,45.489 44.333 C 45.403 44.333,45.333 44.226,45.333 44.095 C 45.333 43.965,45.146 43.710,44.917 43.530 C 44.688 43.350,44.500 43.120,44.500 43.020 C 44.500 42.753,43.047 41.338,42.083 40.665 C 41.625 40.345,41.212 40.045,41.167 39.998 C 41.121 39.952,40.802 39.766,40.458 39.586 C 40.115 39.405,39.833 39.206,39.833 39.142 C 39.833 39.078,39.603 38.976,39.322 38.914 C 39.041 38.852,38.610 38.697,38.364 38.569 C 38.118 38.440,37.825 38.335,37.713 38.334 C 37.602 38.334,37.248 38.186,36.928 38.007 C 36.609 37.827,35.950 37.628,35.465 37.565 C 34.980 37.502,34.530 37.368,34.464 37.267 C 34.379 37.136,29.457 37.070,17.173 37.036 L 0.000 36.990 0.000 45.411 M168.099 51.808 C 168.051 51.886,167.356 52.000,166.555 52.062 C 165.754 52.123,165.058 52.238,165.008 52.317 C 164.958 52.395,164.598 52.512,164.208 52.578 C 163.819 52.643,163.500 52.748,163.500 52.811 C 163.500 52.875,163.125 53.072,162.667 53.250 C 162.208 53.428,161.833 53.624,161.833 53.685 C 161.833 53.747,161.659 53.841,161.445 53.895 C 161.232 53.948,160.853 54.181,160.603 54.413 C 160.354 54.644,160.113 54.833,160.068 54.833 C 159.867 54.833,158.270 56.396,157.667 57.182 C 157.438 57.481,157.160 57.816,157.050 57.926 C 156.940 58.036,156.800 58.323,156.740 58.563 C 156.680 58.803,156.578 59.000,156.514 59.000 C 156.380 59.000,155.833 60.182,155.833 60.473 C 155.833 60.579,155.765 60.667,155.681 60.667 C 155.598 60.667,155.476 60.985,155.411 61.375 C 155.346 61.765,155.208 62.137,155.105 62.202 C 154.845 62.367,154.840 69.796,155.100 69.964 C 155.200 70.030,155.335 70.419,155.399 70.828 C 155.463 71.238,155.568 71.613,155.633 71.662 C 155.697 71.710,156.007 72.275,156.321 72.917 C 157.112 74.534,159.572 77.500,160.122 77.500 C 160.197 77.500,160.388 77.650,160.545 77.833 C 160.702 78.017,160.937 78.167,161.068 78.167 C 161.199 78.167,161.331 78.223,161.361 78.292 C 161.449 78.489,162.440 79.000,162.734 79.000 C 162.880 79.000,163.000 79.069,163.000 79.153 C 163.000 79.238,163.244 79.359,163.542 79.423 C 163.840 79.486,164.169 79.607,164.274 79.692 C 164.379 79.776,164.848 79.890,165.316 79.946 C 165.784 80.001,166.167 80.111,166.167 80.190 C 166.167 80.269,166.602 80.333,167.133 80.333 C 167.665 80.333,168.181 80.414,168.280 80.513 C 168.531 80.765,173.167 80.440,173.167 80.171 C 173.167 80.098,173.578 79.987,174.081 79.924 C 174.583 79.861,175.038 79.740,175.091 79.655 C 175.143 79.570,175.307 79.500,175.455 79.500 C 175.830 79.500,177.833 78.506,177.833 78.319 C 177.833 78.235,177.986 78.167,178.172 78.167 C 178.358 78.167,178.554 78.054,178.606 77.917 C 178.659 77.779,178.800 77.667,178.920 77.667 C 179.470 77.667,182.833 73.834,182.833 73.207 C 182.833 73.093,182.890 72.999,182.958 72.999 C 183.097 72.997,183.499 72.201,183.501 71.925 C 183.502 71.829,183.608 71.546,183.738 71.297 C 183.868 71.048,184.027 70.428,184.090 69.920 C 184.154 69.411,184.272 68.955,184.353 68.905 C 184.545 68.786,184.545 63.333,184.353 63.333 C 184.272 63.333,184.153 62.846,184.089 62.250 C 184.026 61.654,183.904 61.167,183.820 61.167 C 183.736 61.167,183.667 61.047,183.667 60.900 C 183.667 60.637,183.187 59.495,183.009 59.333 C 182.958 59.288,182.731 58.894,182.503 58.458 C 182.276 58.023,182.032 57.667,181.962 57.667 C 181.891 57.667,181.833 57.585,181.833 57.485 C 181.833 57.122,178.462 54.000,178.071 54.000 C 178.006 54.000,177.588 53.775,177.141 53.500 C 176.694 53.225,176.217 53.000,176.081 53.000 C 175.945 53.000,175.833 52.930,175.833 52.844 C 175.833 52.757,175.477 52.635,175.042 52.570 C 174.606 52.506,174.207 52.388,174.155 52.307 C 174.103 52.227,173.447 52.114,172.697 52.056 C 171.947 51.998,171.333 51.887,171.333 51.809 C 171.333 51.623,168.213 51.623,168.099 51.808 M76.667 66.093 L 76.667 80.018 85.756 79.968 C 92.189 79.932,94.880 79.863,94.965 79.731 C 95.030 79.630,95.440 79.494,95.875 79.430 C 96.310 79.365,96.667 79.248,96.667 79.170 C 96.667 79.091,96.892 78.977,97.167 78.917 C 97.442 78.856,97.667 78.738,97.667 78.653 C 97.667 78.569,97.745 78.500,97.840 78.500 C 98.039 78.500,98.304 78.292,99.006 77.583 C 99.894 76.688,100.000 76.558,100.000 76.361 C 100.000 76.254,100.056 76.166,100.125 76.165 C 100.390 76.163,100.702 75.202,100.788 74.121 C 100.838 73.500,100.944 72.952,101.023 72.903 C 101.210 72.787,101.210 72.000,101.022 72.000 C 100.943 72.000,100.838 71.494,100.788 70.875 C 100.702 69.798,100.390 68.837,100.125 68.835 C 100.056 68.834,100.000 68.687,100.000 68.508 C 100.000 68.330,99.899 68.123,99.776 68.050 C 99.653 67.977,99.420 67.710,99.257 67.458 C 99.095 67.206,98.885 67.000,98.792 67.000 C 98.699 67.000,98.501 66.860,98.353 66.689 C 98.043 66.332,96.861 65.667,96.536 65.667 C 96.331 65.667,96.540 65.443,97.549 64.580 C 98.128 64.084,99.000 62.828,99.000 62.489 C 99.000 62.327,99.094 62.163,99.208 62.125 C 99.363 62.074,99.417 61.413,99.417 59.583 C 99.417 57.754,99.363 57.093,99.208 57.042 C 99.094 57.004,99.000 56.800,99.000 56.590 C 99.000 56.380,98.888 56.114,98.750 56.000 C 98.612 55.886,98.500 55.726,98.500 55.644 C 98.500 55.395,96.845 53.833,96.581 53.833 C 96.445 53.833,96.333 53.766,96.333 53.683 C 96.333 53.601,95.996 53.394,95.584 53.225 C 95.172 53.055,94.834 52.864,94.834 52.800 C 94.834 52.736,94.382 52.632,93.830 52.570 C 93.278 52.507,92.786 52.391,92.736 52.311 C 92.687 52.232,89.051 52.167,84.657 52.167 L 76.667 52.167 76.667 66.093 M106.707 66.208 L 106.750 80.250 116.958 80.293 L 127.167 80.336 127.167 78.251 L 127.167 76.167 119.167 76.167 L 111.167 76.167 111.167 72.083 L 111.167 68.000 118.083 68.000 L 125.000 68.000 125.000 66.000 L 125.000 64.000 118.083 64.000 L 111.167 64.000 111.167 60.085 L 111.167 56.170 118.875 56.127 L 126.583 56.083 126.630 54.125 L 126.677 52.167 116.671 52.167 L 106.665 52.167 106.707 66.208 M128.578 52.623 C 128.642 52.874,128.743 53.118,128.805 53.165 C 128.973 53.293,129.330 53.879,129.441 54.208 C 129.495 54.369,129.605 54.500,129.686 54.500 C 129.767 54.500,129.833 54.607,129.833 54.738 C 129.833 54.869,129.927 55.076,130.042 55.199 C 130.156 55.322,130.393 55.702,130.568 56.044 C 130.743 56.387,130.949 56.667,131.026 56.667 C 131.103 56.667,131.167 56.774,131.167 56.905 C 131.167 57.036,131.260 57.245,131.375 57.371 C 131.490 57.496,131.715 57.839,131.875 58.133 C 132.035 58.426,132.298 58.907,132.458 59.201 C 132.619 59.494,132.844 59.837,132.958 59.963 C 133.073 60.088,133.167 60.265,133.167 60.357 C 133.167 60.449,133.260 60.628,133.375 60.756 C 133.761 61.187,133.915 61.414,134.246 62.042 C 134.427 62.385,134.634 62.667,134.705 62.667 C 134.775 62.667,134.833 62.774,134.833 62.905 C 134.833 63.036,134.927 63.243,135.042 63.366 C 135.156 63.488,135.393 63.869,135.568 64.211 C 135.743 64.553,135.943 64.833,136.013 64.833 C 136.083 64.833,136.190 65.058,136.250 65.333 C 136.310 65.608,136.427 65.833,136.510 65.833 C 136.593 65.833,136.707 66.021,136.765 66.250 C 136.822 66.479,136.928 66.667,136.999 66.667 C 137.070 66.667,137.172 66.798,137.226 66.958 C 137.334 67.282,137.691 67.871,137.857 68.000 C 137.915 68.046,138.129 68.402,138.332 68.792 C 138.535 69.181,138.768 69.500,138.850 69.500 C 138.933 69.500,139.000 69.606,139.000 69.736 C 139.000 69.866,139.094 70.003,139.208 70.042 C 139.368 70.095,139.428 71.316,139.465 75.222 L 139.514 80.333 141.590 80.333 L 143.667 80.333 143.667 75.500 C 143.667 72.389,143.726 70.667,143.833 70.667 C 143.925 70.667,144.000 70.520,144.000 70.342 C 144.000 70.163,144.094 69.957,144.210 69.883 C 144.325 69.810,144.568 69.469,144.748 69.125 C 144.928 68.781,145.126 68.500,145.186 68.500 C 145.247 68.500,145.346 68.306,145.405 68.069 C 145.465 67.832,145.642 67.500,145.798 67.330 C 145.955 67.161,146.271 66.662,146.500 66.222 C 146.729 65.782,147.010 65.322,147.125 65.199 C 147.240 65.077,147.333 64.869,147.333 64.738 C 147.333 64.607,147.408 64.500,147.500 64.500 C 147.592 64.500,147.667 64.387,147.667 64.250 C 147.667 64.112,147.740 64.000,147.830 64.000 C 147.920 64.000,148.041 63.813,148.098 63.583 C 148.156 63.354,148.261 63.167,148.332 63.167 C 148.403 63.167,148.509 63.035,148.568 62.875 C 148.681 62.567,149.072 61.917,149.955 60.571 C 150.251 60.119,150.495 59.656,150.497 59.542 C 150.499 59.427,150.563 59.333,150.640 59.333 C 150.718 59.333,150.924 59.053,151.099 58.711 C 151.274 58.369,151.510 57.988,151.625 57.866 C 151.740 57.743,151.833 57.536,151.833 57.405 C 151.833 57.274,151.900 57.167,151.982 57.167 C 152.064 57.167,152.178 56.979,152.235 56.750 C 152.293 56.521,152.413 56.333,152.503 56.333 C 152.593 56.333,152.667 56.221,152.667 56.083 C 152.667 55.946,152.734 55.833,152.815 55.833 C 152.897 55.833,153.011 55.646,153.068 55.417 C 153.126 55.188,153.247 55.000,153.337 55.000 C 153.426 55.000,153.500 54.898,153.500 54.772 C 153.500 54.647,153.650 54.354,153.833 54.121 C 154.017 53.888,154.167 53.612,154.167 53.508 C 154.167 53.404,154.317 53.158,154.500 52.962 C 155.170 52.243,154.994 52.167,152.655 52.167 C 150.365 52.167,150.162 52.226,149.927 52.966 C 149.863 53.168,149.741 53.333,149.655 53.333 C 149.570 53.333,149.500 53.446,149.500 53.583 C 149.500 53.721,149.438 53.833,149.363 53.833 C 149.287 53.833,149.057 54.152,148.850 54.542 C 148.243 55.687,147.923 56.244,147.821 56.333 C 147.768 56.379,147.581 56.678,147.404 56.997 C 147.228 57.316,146.990 57.678,146.875 57.801 C 146.760 57.923,146.667 58.131,146.667 58.262 C 146.667 58.393,146.593 58.500,146.503 58.500 C 146.413 58.500,146.293 58.688,146.235 58.917 C 146.178 59.146,146.064 59.333,145.982 59.333 C 145.900 59.333,145.833 59.446,145.833 59.583 C 145.833 59.721,145.760 59.833,145.670 59.833 C 145.580 59.833,145.459 60.021,145.402 60.250 C 145.344 60.479,145.238 60.667,145.167 60.667 C 145.095 60.667,144.989 60.854,144.932 61.083 C 144.874 61.313,144.753 61.500,144.663 61.500 C 144.574 61.500,144.500 61.587,144.500 61.693 C 144.500 61.799,144.313 62.131,144.084 62.431 C 143.854 62.732,143.592 63.151,143.501 63.364 C 143.330 63.758,142.983 64.350,142.833 64.500 C 142.713 64.620,142.350 65.208,142.217 65.500 C 141.863 66.271,141.655 66.203,141.087 65.125 C 140.906 64.781,140.706 64.500,140.642 64.500 C 140.578 64.500,140.477 64.275,140.417 64.000 C 140.356 63.725,140.255 63.500,140.192 63.500 C 140.128 63.500,139.892 63.163,139.667 62.750 C 139.441 62.337,139.218 61.999,139.170 61.998 C 139.122 61.997,138.940 61.697,138.765 61.331 C 138.590 60.966,138.392 60.667,138.325 60.667 C 138.258 60.667,138.160 60.496,138.108 60.288 C 138.056 60.080,137.879 59.759,137.715 59.575 C 137.551 59.391,137.229 58.869,137.000 58.415 C 136.771 57.961,136.490 57.489,136.375 57.366 C 136.260 57.243,136.167 57.036,136.167 56.905 C 136.167 56.774,136.092 56.667,136.000 56.667 C 135.908 56.667,135.833 56.554,135.833 56.417 C 135.833 56.279,135.760 56.167,135.670 56.167 C 135.580 56.167,135.459 55.979,135.402 55.750 C 135.344 55.521,135.239 55.333,135.168 55.333 C 135.097 55.333,134.995 55.202,134.941 55.042 C 134.834 54.724,134.621 54.371,134.042 53.553 C 133.836 53.261,133.667 52.954,133.667 52.870 C 133.667 52.315,133.054 52.167,130.760 52.167 L 128.464 52.167 128.578 52.623 M190.041 66.208 L 190.083 80.250 192.292 80.297 L 194.500 80.343 194.505 70.297 L 194.510 60.250 194.963 60.771 C 195.213 61.057,195.604 61.540,195.833 61.843 C 196.063 62.147,196.494 62.654,196.792 62.971 C 197.090 63.287,197.333 63.621,197.333 63.712 C 197.333 63.803,197.596 64.125,197.917 64.427 C 198.237 64.730,198.500 65.039,198.501 65.114 C 198.501 65.189,198.726 65.490,199.001 65.783 C 199.275 66.076,199.500 66.367,199.500 66.431 C 199.500 66.495,199.722 66.759,199.992 67.018 C 200.263 67.276,200.619 67.697,200.784 67.952 C 201.132 68.492,201.570 69.030,202.193 69.683 C 202.437 69.938,202.772 70.376,202.937 70.657 C 203.103 70.937,203.281 71.167,203.333 71.167 C 203.384 71.167,203.724 71.579,204.088 72.082 C 204.452 72.586,204.806 72.999,204.875 72.999 C 204.944 73.000,205.000 73.085,205.000 73.189 C 205.000 73.293,205.176 73.541,205.390 73.740 C 205.605 73.939,205.849 74.224,205.933 74.374 C 206.100 74.672,206.990 75.749,207.708 76.519 C 207.960 76.790,208.167 77.052,208.167 77.101 C 208.167 77.150,208.260 77.290,208.375 77.411 C 208.490 77.533,208.771 77.879,209.000 78.180 C 209.229 78.482,209.604 78.931,209.833 79.179 C 210.063 79.426,210.333 79.769,210.434 79.939 C 210.659 80.318,213.854 80.496,214.267 80.152 C 214.463 79.990,214.500 77.752,214.500 66.063 L 214.500 52.167 212.250 52.167 L 210.000 52.167 210.000 62.083 C 210.000 71.234,209.934 72.772,209.588 71.682 C 209.533 71.507,209.378 71.322,209.244 71.271 C 209.110 71.219,209.000 71.094,209.000 70.991 C 209.000 70.889,208.737 70.551,208.417 70.239 C 208.096 69.927,207.833 69.602,207.833 69.516 C 207.833 69.430,207.608 69.134,207.333 68.859 C 207.058 68.584,206.833 68.306,206.833 68.240 C 206.833 68.175,206.663 67.963,206.455 67.769 C 206.247 67.575,205.914 67.154,205.715 66.833 C 205.517 66.512,205.199 66.140,205.010 66.005 C 204.821 65.870,204.667 65.680,204.667 65.584 C 204.667 65.487,204.535 65.287,204.375 65.141 C 204.215 64.994,203.911 64.645,203.699 64.366 C 203.488 64.087,203.095 63.609,202.826 63.304 C 202.557 62.999,202.294 62.623,202.243 62.467 C 202.192 62.311,202.007 62.139,201.833 62.083 C 201.659 62.028,201.466 61.821,201.403 61.623 C 201.340 61.425,201.074 61.048,200.811 60.785 C 200.548 60.523,200.333 60.250,200.333 60.179 C 200.333 60.109,200.071 59.781,199.750 59.450 C 199.429 59.120,199.167 58.799,199.167 58.737 C 199.167 58.675,198.923 58.350,198.625 58.017 C 198.327 57.683,197.858 57.115,197.583 56.755 C 197.308 56.395,196.840 55.851,196.542 55.545 C 196.244 55.239,196.000 54.919,196.000 54.834 C 196.000 54.748,195.775 54.448,195.500 54.167 C 195.225 53.885,195.000 53.617,195.000 53.571 C 195.000 53.480,194.895 53.347,194.255 52.625 C 193.857 52.175,193.815 52.167,191.924 52.167 L 189.998 52.167 190.041 66.208 M222.167 66.250 L 222.167 80.333 228.157 80.333 C 231.451 80.333,234.187 80.269,234.235 80.191 C 234.283 80.113,235.264 80.008,236.415 79.959 C 237.566 79.909,238.599 79.792,238.712 79.700 C 238.825 79.607,239.273 79.478,239.708 79.413 C 240.144 79.349,240.500 79.229,240.500 79.148 C 240.500 79.066,240.610 79.000,240.744 79.000 C 241.004 79.000,242.193 78.487,242.333 78.314 C 242.379 78.258,242.585 78.159,242.792 78.095 C 242.998 78.030,243.167 77.908,243.167 77.822 C 243.167 77.737,243.250 77.667,243.352 77.667 C 243.754 77.667,246.500 75.141,246.500 74.772 C 246.500 74.642,246.612 74.492,246.750 74.440 C 246.887 74.387,247.000 74.235,247.000 74.102 C 247.000 73.970,247.064 73.836,247.141 73.806 C 247.326 73.733,248.166 72.215,248.168 71.952 C 248.168 71.841,248.277 71.542,248.410 71.288 C 248.542 71.033,248.702 70.376,248.764 69.826 C 248.826 69.276,248.942 68.786,249.022 68.736 C 249.211 68.619,249.211 63.500,249.022 63.500 C 248.942 63.500,248.825 62.975,248.761 62.333 C 248.698 61.692,248.582 61.167,248.503 61.167 C 248.424 61.167,248.309 60.934,248.246 60.649 C 248.103 59.999,247.334 58.500,247.143 58.500 C 247.064 58.500,247.000 58.403,247.000 58.284 C 247.000 57.902,244.740 55.337,244.397 55.330 C 244.316 55.329,244.089 55.160,243.893 54.955 C 243.696 54.751,243.171 54.396,242.726 54.167 C 242.281 53.938,241.879 53.712,241.833 53.667 C 241.694 53.527,240.612 53.134,240.125 53.045 C 239.873 53.000,239.667 52.899,239.667 52.823 C 239.667 52.746,239.215 52.632,238.663 52.570 C 238.111 52.507,237.619 52.391,237.570 52.311 C 237.521 52.232,234.035 52.167,229.823 52.167 L 222.167 52.167 222.167 66.250 M253.833 66.094 L 253.833 80.021 262.590 79.969 C 268.861 79.932,271.379 79.863,271.465 79.729 C 271.530 79.625,271.977 79.487,272.458 79.421 C 272.940 79.356,273.333 79.250,273.333 79.186 C 273.333 79.121,273.746 78.929,274.250 78.757 C 274.754 78.586,275.167 78.384,275.167 78.309 C 275.167 78.234,275.354 78.126,275.583 78.068 C 275.813 78.011,276.000 77.897,276.000 77.815 C 276.000 77.734,276.103 77.667,276.229 77.667 C 276.776 77.667,280.167 74.263,280.167 73.714 C 280.167 73.596,280.236 73.500,280.320 73.500 C 280.404 73.500,280.523 73.275,280.583 73.000 C 280.644 72.725,280.762 72.500,280.847 72.500 C 280.931 72.500,281.000 72.356,281.000 72.181 C 281.000 72.005,281.077 71.836,281.171 71.804 C 281.264 71.773,281.389 71.448,281.446 71.082 C 281.504 70.716,281.621 70.371,281.707 70.315 C 281.792 70.258,281.904 69.450,281.956 68.518 C 282.007 67.585,282.113 66.783,282.191 66.735 C 282.389 66.613,282.370 65.709,282.167 65.583 C 282.075 65.527,281.997 64.979,281.993 64.365 C 281.989 63.752,281.918 62.950,281.836 62.583 C 281.446 60.851,281.297 60.333,281.191 60.333 C 281.127 60.333,280.927 59.997,280.746 59.585 C 280.565 59.173,280.360 58.836,280.292 58.835 C 280.223 58.834,280.167 58.732,280.167 58.609 C 280.167 58.485,280.035 58.229,279.875 58.038 C 279.715 57.848,279.396 57.454,279.167 57.162 C 278.621 56.469,277.963 55.811,277.504 55.500 C 277.302 55.362,276.936 55.079,276.693 54.871 C 276.449 54.662,276.081 54.448,275.875 54.394 C 275.669 54.341,275.500 54.245,275.500 54.181 C 275.500 54.117,275.181 53.932,274.792 53.771 C 274.402 53.610,273.884 53.371,273.641 53.239 C 273.398 53.108,273.041 53.000,272.849 53.000 C 272.657 53.000,272.500 52.930,272.500 52.843 C 272.500 52.757,271.975 52.635,271.333 52.572 C 270.692 52.509,270.167 52.392,270.167 52.312 C 270.167 52.231,266.525 52.167,262.000 52.167 L 253.833 52.167 253.833 66.094 M286.500 66.083 L 286.500 80.000 297.417 80.000 L 308.333 80.000 308.333 77.250 L 308.333 74.500 300.833 74.500 L 293.333 74.500 293.333 71.667 L 293.333 68.833 299.750 68.833 L 306.167 68.833 306.167 66.000 L 306.167 63.167 299.750 63.167 L 293.333 63.167 293.333 60.417 L 293.333 57.667 300.583 57.667 L 307.833 57.667 307.833 54.917 L 307.833 52.167 297.167 52.167 L 286.500 52.167 286.500 66.083 M310.000 54.917 L 310.000 57.667 314.417 57.667 L 318.833 57.667 318.833 68.833 L 318.833 80.000 322.250 80.000 L 325.667 80.000 325.667 68.833 L 325.667 57.667 330.167 57.667 L 334.667 57.667 334.667 54.917 L 334.667 52.167 322.333 52.167 L 310.000 52.167 310.000 54.917 M344.548 52.409 C 344.438 52.535,344.298 52.832,344.239 53.069 C 344.179 53.306,344.072 53.500,344.000 53.500 C 343.928 53.500,343.820 53.706,343.759 53.958 C 343.601 54.611,343.273 55.333,343.134 55.333 C 343.068 55.333,342.966 55.596,342.906 55.917 C 342.845 56.237,342.738 56.500,342.667 56.500 C 342.595 56.500,342.488 56.762,342.428 57.083 C 342.367 57.404,342.255 57.667,342.178 57.667 C 342.100 57.667,341.988 57.929,341.928 58.250 C 341.867 58.571,341.747 58.833,341.659 58.833 C 341.572 58.833,341.500 58.983,341.500 59.167 C 341.500 59.350,341.433 59.500,341.352 59.500 C 341.270 59.500,341.155 59.762,341.094 60.083 C 341.034 60.404,340.919 60.667,340.839 60.667 C 340.759 60.667,340.644 60.891,340.584 61.165 C 340.524 61.439,340.405 61.706,340.321 61.758 C 340.236 61.810,340.167 61.999,340.167 62.177 C 340.167 62.354,340.092 62.500,340.000 62.500 C 339.908 62.500,339.831 62.594,339.828 62.708 C 339.825 62.823,339.677 63.217,339.500 63.583 C 339.323 63.950,339.175 64.381,339.172 64.542 C 339.169 64.702,339.098 64.833,339.013 64.833 C 338.929 64.833,338.810 65.058,338.750 65.333 C 338.690 65.608,338.571 65.833,338.487 65.833 C 338.402 65.833,338.333 65.979,338.333 66.157 C 338.333 66.335,338.264 66.523,338.179 66.575 C 338.095 66.628,337.976 66.895,337.916 67.169 C 337.856 67.443,337.746 67.667,337.672 67.667 C 337.598 67.667,337.488 67.929,337.428 68.250 C 337.367 68.571,337.247 68.833,337.159 68.833 C 337.072 68.833,337.000 68.945,337.000 69.082 C 337.000 69.427,336.449 70.667,336.296 70.667 C 336.227 70.667,336.123 70.967,336.064 71.333 C 336.005 71.700,335.898 72.000,335.825 72.000 C 335.753 72.000,335.644 72.225,335.583 72.500 C 335.523 72.775,335.417 73.000,335.347 73.000 C 335.278 73.000,335.081 73.412,334.909 73.917 C 334.738 74.421,334.538 74.833,334.465 74.833 C 334.393 74.833,334.333 74.927,334.332 75.042 C 334.332 75.156,334.226 75.451,334.098 75.697 C 333.970 75.943,333.814 76.374,333.752 76.655 C 333.691 76.937,333.589 77.167,333.526 77.167 C 333.385 77.167,332.833 78.416,332.833 78.737 C 332.833 78.866,332.764 78.997,332.679 79.028 C 332.594 79.058,332.473 79.290,332.411 79.542 L 332.297 80.000 335.774 79.997 C 339.517 79.995,339.581 79.983,339.759 79.275 C 339.824 79.016,340.054 78.454,340.271 78.027 C 340.488 77.600,340.666 77.119,340.666 76.958 C 340.666 76.798,340.736 76.667,340.820 76.667 C 340.904 76.667,341.024 76.437,341.086 76.155 C 341.148 75.874,341.303 75.443,341.431 75.197 C 341.560 74.951,341.665 74.656,341.666 74.542 C 341.668 74.128,354.177 74.252,354.285 74.667 C 354.333 74.850,354.429 75.000,354.498 75.000 C 354.567 75.000,354.672 75.300,354.731 75.667 C 354.789 76.033,354.911 76.333,355.002 76.333 C 355.093 76.333,355.167 76.479,355.167 76.657 C 355.167 76.835,355.236 77.023,355.321 77.075 C 355.405 77.128,355.524 77.395,355.584 77.669 C 355.644 77.943,355.753 78.167,355.825 78.167 C 355.898 78.167,356.005 78.467,356.064 78.833 C 356.123 79.200,356.245 79.500,356.335 79.500 C 356.426 79.500,356.500 79.612,356.500 79.750 C 356.500 79.965,357.019 80.000,360.167 80.000 C 363.315 80.000,363.833 79.965,363.833 79.750 C 363.833 79.612,363.758 79.500,363.667 79.500 C 363.575 79.500,363.497 79.369,363.494 79.208 C 363.491 79.048,363.344 78.617,363.167 78.250 C 362.990 77.883,362.842 77.490,362.839 77.375 C 362.836 77.260,362.758 77.167,362.667 77.167 C 362.575 77.167,362.500 77.057,362.500 76.922 C 362.500 76.621,361.963 75.437,361.792 75.361 C 361.723 75.331,361.666 75.218,361.666 75.111 C 361.665 75.004,361.560 74.715,361.431 74.470 C 361.303 74.224,361.148 73.792,361.086 73.511 C 361.024 73.230,360.910 73.000,360.833 73.000 C 360.756 73.000,360.644 72.775,360.583 72.500 C 360.523 72.225,360.404 72.000,360.320 72.000 C 360.236 72.000,360.167 71.813,360.167 71.583 C 360.167 71.354,360.092 71.167,360.000 71.167 C 359.908 71.167,359.833 71.084,359.833 70.984 C 359.833 70.800,359.688 70.456,358.808 68.560 C 358.547 67.996,358.333 67.453,358.333 67.351 C 358.333 67.250,358.258 67.167,358.167 67.167 C 358.075 67.167,357.997 67.035,357.994 66.875 C 357.991 66.715,357.844 66.283,357.667 65.917 C 357.490 65.550,357.342 65.156,357.339 65.042 C 357.336 64.927,357.277 64.833,357.207 64.833 C 357.062 64.833,356.735 64.124,356.575 63.458 C 356.514 63.206,356.403 63.000,356.329 63.000 C 356.254 63.000,356.144 62.775,356.083 62.500 C 356.023 62.225,355.904 62.000,355.820 62.000 C 355.736 62.000,355.667 61.843,355.667 61.651 C 355.667 61.292,355.181 60.293,354.958 60.194 C 354.890 60.164,354.833 60.029,354.833 59.894 C 354.833 59.759,354.694 59.334,354.524 58.949 C 354.353 58.565,354.110 58.006,353.983 57.708 C 353.856 57.410,353.695 57.167,353.626 57.167 C 353.557 57.167,353.497 57.035,353.494 56.875 C 353.491 56.715,353.344 56.283,353.167 55.917 C 352.990 55.550,352.842 55.156,352.839 55.042 C 352.836 54.927,352.758 54.833,352.667 54.833 C 352.575 54.833,352.500 54.713,352.500 54.567 C 352.500 54.280,352.006 53.137,351.823 53.000 C 351.762 52.954,351.659 52.748,351.595 52.542 C 351.449 52.075,344.950 51.952,344.548 52.409 M366.167 66.083 L 366.167 80.000 369.583 80.000 L 373.000 80.000 373.000 66.083 L 373.000 52.167 369.583 52.167 L 366.167 52.167 366.167 66.083 M379.167 66.083 L 379.167 80.000 389.500 80.000 L 399.833 80.000 399.833 77.250 L 399.833 74.500 392.917 74.500 L 386.000 74.500 386.000 63.333 L 386.000 52.167 382.583 52.167 L 379.167 52.167 379.167 66.083 M91.167 56.000 C 91.167 56.092,91.374 56.167,91.626 56.167 C 92.443 56.167,94.490 57.434,94.497 57.944 C 94.499 58.051,94.594 58.170,94.708 58.208 C 95.063 58.327,94.991 61.366,94.625 61.732 C 94.465 61.893,94.333 62.104,94.333 62.202 C 94.333 62.436,93.919 62.745,93.000 63.194 C 92.587 63.395,92.197 63.641,92.131 63.739 C 92.052 63.857,90.195 63.935,86.590 63.971 L 81.167 64.025 81.167 59.929 L 81.167 55.833 86.167 55.833 C 89.389 55.833,91.167 55.893,91.167 56.000 M171.833 55.977 C 171.833 56.057,172.152 56.167,172.542 56.222 C 173.548 56.365,175.841 57.550,176.550 58.294 C 177.952 59.765,178.667 60.663,178.667 60.953 C 178.667 61.070,178.736 61.167,178.820 61.167 C 178.904 61.167,179.023 61.391,179.083 61.665 C 179.143 61.939,179.262 62.206,179.346 62.258 C 179.431 62.310,179.500 62.492,179.500 62.663 C 179.500 62.833,179.594 63.003,179.708 63.042 C 179.971 63.129,180.011 69.112,179.750 69.298 C 179.497 69.478,179.222 70.034,179.091 70.630 C 179.027 70.925,178.904 71.167,178.820 71.167 C 178.736 71.167,178.667 71.265,178.667 71.385 C 178.667 71.821,176.177 74.500,175.772 74.500 C 175.642 74.500,175.492 74.612,175.440 74.750 C 175.387 74.887,175.229 75.000,175.089 75.000 C 174.948 75.000,174.833 75.075,174.833 75.167 C 174.833 75.258,174.683 75.333,174.500 75.333 C 174.317 75.333,174.167 75.408,174.167 75.500 C 174.167 75.592,174.035 75.667,173.875 75.668 C 173.715 75.668,173.358 75.798,173.083 75.955 C 172.343 76.379,166.990 76.379,166.250 75.955 C 165.975 75.798,165.581 75.668,165.375 75.668 C 165.169 75.667,165.000 75.592,165.000 75.500 C 165.000 75.408,164.887 75.333,164.750 75.333 C 164.612 75.333,164.500 75.263,164.500 75.178 C 164.500 75.092,164.335 74.970,164.133 74.906 C 163.931 74.842,163.677 74.706,163.570 74.603 C 163.462 74.501,163.204 74.304,162.996 74.167 C 162.340 73.733,160.951 72.126,160.547 71.333 C 160.384 71.012,160.201 70.712,160.140 70.666 C 160.080 70.620,159.978 70.301,159.913 69.958 C 159.849 69.614,159.730 69.333,159.648 69.333 C 159.567 69.333,159.500 69.071,159.500 68.750 C 159.500 68.429,159.425 68.167,159.333 68.167 C 159.232 68.167,159.167 67.392,159.167 66.177 C 159.167 65.030,159.237 64.143,159.333 64.083 C 159.425 64.027,159.500 63.760,159.500 63.490 C 159.500 63.221,159.567 63.000,159.648 63.000 C 159.730 63.000,159.849 62.719,159.913 62.375 C 159.978 62.032,160.080 61.713,160.140 61.667 C 160.201 61.621,160.436 61.227,160.663 60.792 C 160.890 60.356,161.134 60.000,161.205 60.000 C 161.276 60.000,161.333 59.927,161.333 59.837 C 161.333 59.747,161.706 59.316,162.161 58.879 C 163.262 57.820,163.319 57.776,164.176 57.315 C 164.583 57.096,164.942 56.860,164.972 56.792 C 165.003 56.723,165.209 56.667,165.431 56.667 C 165.652 56.667,165.833 56.594,165.833 56.506 C 165.833 56.417,166.210 56.295,166.670 56.234 C 167.131 56.173,167.548 56.058,167.597 55.978 C 167.713 55.789,171.833 55.789,171.833 55.977 M237.625 56.458 C 237.663 56.573,237.834 56.667,238.004 56.667 C 238.174 56.667,238.356 56.736,238.409 56.821 C 238.461 56.905,238.728 57.024,239.002 57.084 C 239.276 57.144,239.500 57.254,239.500 57.329 C 239.500 57.403,239.689 57.511,239.920 57.569 C 240.330 57.672,240.570 57.848,241.813 58.954 C 242.145 59.250,242.473 59.494,242.542 59.496 C 242.610 59.498,242.667 59.607,242.667 59.738 C 242.667 59.869,242.769 60.079,242.895 60.204 C 243.020 60.330,243.175 60.597,243.239 60.799 C 243.303 61.001,243.426 61.167,243.511 61.167 C 243.597 61.167,243.667 61.279,243.667 61.417 C 243.667 61.554,243.733 61.667,243.815 61.667 C 243.896 61.667,244.015 61.948,244.080 62.292 C 244.144 62.635,244.284 63.022,244.390 63.151 C 244.664 63.482,244.657 68.693,244.382 69.024 C 244.272 69.158,244.131 69.582,244.069 69.967 C 244.008 70.352,243.892 70.667,243.812 70.667 C 243.732 70.667,243.667 70.779,243.667 70.917 C 243.667 71.054,243.593 71.167,243.503 71.167 C 243.413 71.167,243.293 71.354,243.235 71.583 C 243.178 71.813,243.061 72.000,242.977 72.000 C 242.892 72.000,242.773 72.129,242.713 72.288 C 242.515 72.802,240.610 74.500,240.230 74.500 C 240.119 74.500,240.003 74.556,239.972 74.625 C 239.892 74.806,238.848 75.333,238.570 75.333 C 238.440 75.333,238.333 75.404,238.333 75.490 C 238.333 75.576,237.977 75.692,237.542 75.748 C 237.106 75.804,236.620 75.922,236.461 76.009 C 236.297 76.098,234.071 76.167,231.336 76.167 L 226.500 76.167 226.500 66.151 L 226.500 56.136 232.028 56.193 C 236.261 56.237,237.572 56.299,237.625 56.458 M266.735 57.809 C 266.784 57.888,267.442 57.994,268.199 58.046 C 268.955 58.098,269.602 58.221,269.634 58.320 C 269.667 58.419,269.876 58.500,270.097 58.500 C 270.319 58.500,270.500 58.569,270.500 58.653 C 270.500 58.738,270.725 58.856,271.000 58.917 C 271.275 58.977,271.500 59.090,271.500 59.169 C 271.500 59.247,271.638 59.355,271.806 59.408 C 272.241 59.546,273.610 60.893,273.744 61.314 C 273.805 61.508,273.926 61.667,274.011 61.667 C 274.097 61.667,274.167 61.779,274.167 61.917 C 274.167 62.054,274.238 62.167,274.326 62.167 C 274.413 62.167,274.537 62.448,274.600 62.792 C 274.663 63.135,274.798 63.470,274.899 63.536 C 275.175 63.714,275.152 68.699,274.875 68.792 C 274.760 68.830,274.667 68.975,274.667 69.114 C 274.667 69.479,274.139 70.560,273.884 70.717 C 273.764 70.790,273.667 70.924,273.667 71.015 C 273.667 71.345,272.390 72.667,272.071 72.667 C 271.940 72.667,271.833 72.740,271.833 72.830 C 271.833 72.920,271.646 73.041,271.417 73.098 C 271.188 73.156,271.000 73.270,271.000 73.351 C 271.000 73.433,270.887 73.500,270.750 73.500 C 270.612 73.500,270.500 73.566,270.500 73.648 C 270.500 73.729,270.144 73.849,269.708 73.914 C 269.273 73.979,268.871 74.107,268.814 74.198 C 268.754 74.296,267.066 74.402,264.689 74.457 L 260.667 74.551 260.667 66.109 L 260.667 57.667 263.657 57.667 C 265.301 57.667,266.687 57.731,266.735 57.809 M348.333 60.136 C 348.333 60.223,348.445 60.510,348.582 60.773 C 348.719 61.035,348.832 61.381,348.832 61.542 C 348.833 61.702,348.900 61.833,348.981 61.833 C 349.063 61.833,349.179 62.096,349.239 62.417 C 349.299 62.737,349.420 63.000,349.508 63.000 C 349.595 63.000,349.667 63.131,349.668 63.292 C 349.668 63.452,349.781 63.798,349.918 64.061 C 350.055 64.323,350.167 64.642,350.167 64.769 C 350.167 64.896,350.242 65.000,350.333 65.000 C 350.425 65.000,350.503 65.131,350.506 65.292 C 350.509 65.452,350.656 65.883,350.833 66.250 C 351.010 66.617,351.158 67.048,351.161 67.208 C 351.164 67.369,351.242 67.500,351.333 67.500 C 351.425 67.500,351.500 67.631,351.501 67.792 C 351.502 67.952,351.610 68.290,351.741 68.542 L 351.980 69.000 348.073 69.000 C 343.873 69.000,343.943 69.016,344.402 68.136 C 344.530 67.890,344.686 67.459,344.748 67.178 C 344.809 66.897,344.929 66.667,345.013 66.667 C 345.098 66.667,345.167 66.553,345.167 66.414 C 345.167 66.276,345.237 66.032,345.323 65.873 C 345.680 65.209,345.980 64.472,346.083 64.002 C 346.144 63.726,346.253 63.500,346.325 63.500 C 346.398 63.500,346.505 63.200,346.564 62.833 C 346.623 62.467,346.733 62.167,346.808 62.167 C 346.884 62.167,347.086 61.754,347.257 61.250 C 347.429 60.746,347.628 60.333,347.701 60.333 C 347.774 60.333,347.833 60.140,347.833 59.905 C 347.833 59.524,347.861 59.504,348.083 59.726 C 348.221 59.864,348.333 60.048,348.333 60.136 M90.667 67.810 C 90.667 67.888,91.275 67.994,92.019 68.045 C 92.763 68.096,93.453 68.219,93.552 68.319 C 93.652 68.418,93.868 68.500,94.033 68.500 C 94.198 68.500,94.333 68.575,94.333 68.667 C 94.333 68.758,94.429 68.833,94.547 68.833 C 94.929 68.833,95.993 70.020,96.185 70.661 C 96.424 71.460,96.316 73.867,96.037 73.960 C 95.925 73.997,95.833 74.131,95.833 74.257 C 95.833 74.536,95.002 75.333,94.710 75.333 C 94.595 75.333,94.500 75.400,94.500 75.482 C 94.500 75.564,94.295 75.682,94.043 75.745 C 93.792 75.808,93.532 75.948,93.466 76.055 C 93.379 76.197,91.678 76.264,87.256 76.303 L 81.167 76.356 81.167 72.011 L 81.167 67.667 85.917 67.667 C 88.529 67.667,90.667 67.731,90.667 67.810 " stroke="none" fill="#fcfcfc" fill-rule="evenodd"></path><path id="path1" d="M0.000 78.000 L 0.000 95.333 10.750 95.333 L 21.500 95.333 21.500 90.101 C 21.500 85.273,21.477 84.860,21.208 84.753 C 21.048 84.689,18.723 84.648,16.042 84.661 L 11.167 84.684 11.167 78.009 L 11.167 71.333 16.333 71.333 L 21.500 71.333 21.500 66.000 L 21.500 60.667 10.750 60.667 L 0.000 60.667 0.000 78.000 " stroke="none" fill="#f37c04" fill-rule="evenodd"></path></g></svg>