<svg id="svg" version="1.1" xmlns="http://www.w3.org/2000/svg" xmlns:xlink="http://www.w3.org/1999/xlink" width="400" height="464.8148148148148" viewBox="0, 0, 400,464.8148148148148"><g id="svgg"><path id="path0" d="M17.200 83.800 L 17.200 146.000 58.400 146.000 L 99.600 146.000 99.600 121.800 L 99.600 97.600 166.800 97.600 C 226.267 97.600,234.000 97.669,234.000 98.200 C 234.000 98.683,234.622 98.800,237.200 98.800 C 239.067 98.800,240.400 98.967,240.400 99.200 C 240.400 99.420,241.390 99.600,242.600 99.600 C 243.810 99.600,244.800 99.780,244.800 100.000 C 244.800 100.220,245.700 100.400,246.800 100.400 C 247.900 100.400,248.800 100.580,248.800 100.800 C 248.800 101.020,249.321 101.200,249.957 101.200 C 250.617 101.200,251.213 101.458,251.345 101.800 C 251.479 102.151,252.079 102.400,252.787 102.400 C 253.454 102.400,254.000 102.580,254.000 102.800 C 254.000 103.020,254.630 103.200,255.400 103.200 C 256.170 103.200,256.800 103.380,256.800 103.600 C 256.800 103.820,257.250 104.000,257.800 104.000 C 258.422 104.000,258.800 104.227,258.800 104.600 C 258.800 104.973,259.178 105.200,259.800 105.200 C 260.350 105.200,260.800 105.380,260.800 105.600 C 260.800 105.820,261.160 106.000,261.600 106.000 C 262.040 106.000,262.400 106.180,262.400 106.400 C 262.400 106.620,262.850 106.800,263.400 106.800 C 263.950 106.800,264.400 106.993,264.400 107.229 C 264.400 107.934,265.486 108.800,266.371 108.800 C 266.827 108.800,267.200 108.980,267.200 109.200 C 267.200 109.420,267.476 109.600,267.812 109.600 C 268.149 109.600,269.297 110.500,270.362 111.600 C 271.428 112.700,272.553 113.600,272.862 113.600 C 273.171 113.600,273.683 113.960,274.000 114.400 C 274.317 114.840,274.807 115.200,275.088 115.200 C 275.370 115.200,275.600 115.388,275.600 115.618 C 275.600 116.161,277.439 118.000,277.982 118.000 C 278.212 118.000,278.400 118.450,278.400 119.000 C 278.400 119.550,278.580 120.000,278.800 120.000 C 279.020 120.000,279.200 120.360,279.200 120.800 C 279.200 121.387,279.467 121.600,280.200 121.600 C 280.974 121.600,281.200 121.806,281.200 122.512 C 281.200 123.013,281.560 123.683,282.000 124.000 C 282.440 124.317,282.800 124.956,282.800 125.421 C 282.800 125.912,283.218 126.489,283.800 126.800 C 284.428 127.136,284.800 127.682,284.800 128.268 C 284.800 128.780,284.980 129.200,285.200 129.200 C 285.420 129.200,285.600 129.650,285.600 130.200 C 285.600 130.750,285.780 131.200,286.000 131.200 C 286.220 131.200,286.400 131.740,286.400 132.400 C 286.400 133.200,286.600 133.600,287.000 133.600 C 287.419 133.600,287.600 134.022,287.600 135.000 C 287.600 135.770,287.780 136.400,288.000 136.400 C 288.220 136.400,288.400 137.030,288.400 137.800 C 288.400 138.570,288.580 139.200,288.800 139.200 C 289.020 139.200,289.200 140.016,289.200 141.013 C 289.200 142.255,289.389 142.898,289.800 143.055 C 290.694 143.398,290.694 156.602,289.800 156.945 C 289.367 157.111,289.200 157.790,289.200 159.387 C 289.200 160.604,289.020 161.600,288.800 161.600 C 288.580 161.600,288.400 162.230,288.400 163.000 C 288.400 163.770,288.220 164.400,288.000 164.400 C 287.780 164.400,287.600 164.850,287.600 165.400 C 287.600 166.022,287.373 166.400,287.000 166.400 C 286.600 166.400,286.400 166.800,286.400 167.600 C 286.400 168.260,286.220 168.800,286.000 168.800 C 285.780 168.800,285.600 169.210,285.600 169.712 C 285.600 170.213,285.240 170.883,284.800 171.200 C 284.360 171.517,284.000 172.072,284.000 172.432 C 284.000 172.793,283.550 173.426,283.000 173.839 C 282.450 174.252,282.000 174.817,282.000 175.095 C 282.000 175.373,281.820 175.600,281.600 175.600 C 281.380 175.600,281.200 175.960,281.200 176.400 C 281.200 176.844,280.933 177.200,280.600 177.200 C 280.270 177.200,280.000 177.388,280.000 177.618 C 280.000 178.347,278.069 180.000,277.218 180.000 C 276.768 180.000,276.400 180.193,276.400 180.429 C 276.400 180.982,275.382 182.000,274.829 182.000 C 274.593 182.000,274.400 182.180,274.400 182.400 C 274.400 182.620,274.121 182.800,273.781 182.800 C 273.440 182.800,272.745 183.250,272.235 183.800 C 271.725 184.350,271.014 184.800,270.654 184.800 C 270.294 184.800,270.000 184.980,270.000 185.200 C 270.000 185.420,269.730 185.600,269.400 185.600 C 269.070 185.600,268.800 185.780,268.800 186.000 C 268.800 186.220,268.440 186.400,268.000 186.400 C 267.556 186.400,267.200 186.667,267.200 187.000 C 267.200 187.419,266.778 187.600,265.800 187.600 C 265.030 187.600,264.400 187.780,264.400 188.000 C 264.400 188.220,263.950 188.400,263.400 188.400 C 262.850 188.400,262.400 188.580,262.400 188.800 C 262.400 189.020,261.854 189.200,261.187 189.200 C 260.479 189.200,259.879 189.449,259.745 189.800 C 259.603 190.170,258.995 190.400,258.157 190.400 C 257.411 190.400,256.800 190.580,256.800 190.800 C 256.800 191.020,256.170 191.200,255.400 191.200 C 254.630 191.200,254.000 191.380,254.000 191.600 C 254.000 191.820,253.190 192.000,252.200 192.000 C 250.867 192.000,250.400 192.156,250.400 192.600 C 250.400 193.076,249.822 193.200,247.600 193.200 C 246.000 193.200,244.800 193.371,244.800 193.600 C 244.800 193.837,243.333 194.000,241.200 194.000 C 239.067 194.000,237.600 194.163,237.600 194.400 C 237.600 194.633,236.267 194.800,234.400 194.800 L 231.200 194.800 231.200 231.800 C 231.200 256.200,231.336 268.800,231.600 268.800 C 231.820 268.800,232.000 269.070,232.000 269.400 C 232.000 269.889,232.667 270.000,235.600 270.000 C 237.733 270.000,239.200 270.163,239.200 270.400 C 239.200 270.622,240.267 270.800,241.600 270.800 C 242.933 270.800,244.000 270.978,244.000 271.200 C 244.000 271.420,244.810 271.600,245.800 271.600 C 247.133 271.600,247.600 271.756,247.600 272.200 C 247.600 272.643,248.064 272.800,249.376 272.800 C 250.353 272.800,251.264 272.980,251.400 273.200 C 251.536 273.420,252.177 273.600,252.824 273.600 C 253.471 273.600,254.000 273.780,254.000 274.000 C 254.000 274.220,254.611 274.400,255.357 274.400 C 256.195 274.400,256.803 274.630,256.945 275.000 C 257.079 275.351,257.679 275.600,258.387 275.600 C 259.054 275.600,259.600 275.780,259.600 276.000 C 259.600 276.220,260.050 276.400,260.600 276.400 C 261.150 276.400,261.600 276.580,261.600 276.800 C 261.600 277.020,262.050 277.200,262.600 277.200 C 263.222 277.200,263.600 277.427,263.600 277.800 C 263.600 278.219,264.022 278.400,265.000 278.400 C 265.770 278.400,266.400 278.580,266.400 278.800 C 266.400 279.020,266.717 279.200,267.105 279.200 C 267.493 279.200,268.148 279.650,268.561 280.200 C 269.056 280.859,269.703 281.200,270.456 281.200 C 271.085 281.200,271.600 281.380,271.600 281.600 C 271.600 281.820,271.870 282.000,272.200 282.000 C 272.530 282.000,272.800 282.180,272.800 282.400 C 272.800 282.620,273.160 282.800,273.600 282.800 C 274.040 282.800,274.400 282.980,274.400 283.200 C 274.400 283.420,274.850 283.600,275.400 283.600 C 275.950 283.600,276.400 283.793,276.400 284.029 C 276.400 284.676,277.458 285.600,278.200 285.600 C 278.942 285.600,280.000 286.524,280.000 287.171 C 280.000 287.407,280.410 287.600,280.912 287.600 C 281.413 287.600,282.083 287.960,282.400 288.400 C 282.717 288.840,283.207 289.200,283.488 289.200 C 283.770 289.200,284.000 289.393,284.000 289.629 C 284.000 290.266,285.053 291.200,285.771 291.200 C 286.117 291.200,286.400 291.380,286.400 291.600 C 286.400 291.820,286.670 292.000,287.000 292.000 C 287.330 292.000,287.600 292.188,287.600 292.418 C 287.600 292.648,288.042 293.278,288.582 293.818 C 289.122 294.358,289.752 294.800,289.982 294.800 C 290.212 294.800,290.400 295.070,290.400 295.400 C 290.400 295.730,290.580 296.000,290.800 296.000 C 291.020 296.000,291.200 296.292,291.200 296.648 C 291.200 297.004,292.010 298.072,293.000 299.021 C 293.997 299.976,294.800 301.114,294.800 301.573 C 294.800 302.028,294.993 302.400,295.229 302.400 C 295.934 302.400,296.800 303.486,296.800 304.371 C 296.800 304.827,296.980 305.200,297.200 305.200 C 297.420 305.200,297.600 305.560,297.600 306.000 C 297.600 306.444,297.867 306.800,298.200 306.800 C 298.573 306.800,298.800 307.178,298.800 307.800 C 298.800 308.350,298.980 308.800,299.200 308.800 C 299.420 308.800,299.600 309.250,299.600 309.800 C 299.600 310.350,299.780 310.800,300.000 310.800 C 300.220 310.800,300.400 311.329,300.400 311.976 C 300.400 312.623,300.580 313.264,300.800 313.400 C 301.020 313.536,301.200 314.092,301.200 314.636 C 301.200 315.180,301.470 315.729,301.800 315.855 C 302.220 316.017,302.400 316.672,302.400 318.043 C 302.400 319.119,302.580 320.000,302.800 320.000 C 303.052 320.000,303.200 322.733,303.200 327.400 C 303.200 332.067,303.052 334.800,302.800 334.800 C 302.580 334.800,302.400 335.591,302.400 336.557 C 302.400 337.750,302.207 338.388,301.800 338.545 C 301.404 338.697,301.200 339.323,301.200 340.387 C 301.200 341.274,301.020 342.000,300.800 342.000 C 300.580 342.000,300.400 342.450,300.400 343.000 C 300.400 343.550,300.220 344.000,300.000 344.000 C 299.780 344.000,299.600 344.450,299.600 345.000 C 299.600 345.550,299.420 346.000,299.200 346.000 C 298.980 346.000,298.800 346.360,298.800 346.800 C 298.800 347.244,298.533 347.600,298.200 347.600 C 297.842 347.600,297.600 347.968,297.600 348.512 C 297.600 349.013,297.240 349.683,296.800 350.000 C 296.360 350.317,296.000 350.987,296.000 351.488 C 296.000 351.990,295.812 352.400,295.582 352.400 C 295.352 352.400,294.722 352.842,294.182 353.382 C 293.642 353.922,293.200 354.552,293.200 354.782 C 293.200 355.012,293.012 355.200,292.782 355.200 C 292.552 355.200,291.922 355.642,291.382 356.182 C 290.842 356.722,290.400 357.352,290.400 357.582 C 290.400 357.812,290.212 358.000,289.982 358.000 C 289.752 358.000,289.122 358.442,288.582 358.982 C 288.042 359.522,287.600 360.152,287.600 360.382 C 287.600 360.612,287.330 360.800,287.000 360.800 C 286.670 360.800,286.400 360.980,286.400 361.200 C 286.400 361.420,286.106 361.600,285.746 361.600 C 285.386 361.600,284.675 362.050,284.165 362.600 C 283.655 363.150,282.999 363.600,282.707 363.600 C 282.415 363.600,281.917 363.960,281.600 364.400 C 281.283 364.840,280.613 365.200,280.112 365.200 C 279.610 365.200,279.200 365.360,279.200 365.557 C 279.200 365.753,278.750 366.026,278.200 366.164 C 277.650 366.302,277.200 366.592,277.200 366.808 C 277.200 367.023,276.840 367.200,276.400 367.200 C 275.960 367.200,275.600 367.380,275.600 367.600 C 275.600 367.820,275.150 368.000,274.600 368.000 C 274.050 368.000,273.600 368.180,273.600 368.400 C 273.600 368.620,273.234 368.800,272.787 368.800 C 272.341 368.800,271.871 369.070,271.745 369.400 C 271.603 369.770,270.995 370.000,270.157 370.000 C 269.411 370.000,268.800 370.180,268.800 370.400 C 268.800 370.620,268.440 370.800,268.000 370.800 C 267.560 370.800,267.200 370.980,267.200 371.200 C 267.200 371.420,266.570 371.600,265.800 371.600 C 264.822 371.600,264.400 371.781,264.400 372.200 C 264.400 372.644,263.933 372.800,262.600 372.800 C 261.610 372.800,260.800 372.980,260.800 373.200 C 260.800 373.420,260.170 373.600,259.400 373.600 C 258.630 373.600,258.000 373.780,258.000 374.000 C 258.000 374.222,256.933 374.400,255.600 374.400 C 253.733 374.400,253.200 374.533,253.200 375.000 C 253.200 375.461,252.689 375.600,251.000 375.600 C 249.790 375.600,248.800 375.780,248.800 376.000 C 248.800 376.229,247.600 376.400,246.000 376.400 C 244.400 376.400,243.200 376.571,243.200 376.800 C 243.200 377.041,241.533 377.200,239.000 377.200 C 235.533 377.200,234.800 377.305,234.800 377.800 C 234.800 378.323,232.733 378.400,218.600 378.400 L 202.400 378.400 202.400 417.200 L 202.400 456.000 224.600 456.000 C 239.133 456.000,246.800 455.862,246.800 455.600 C 246.800 455.352,248.933 455.200,252.400 455.200 C 257.111 455.200,258.000 455.105,258.000 454.600 C 258.000 454.105,258.733 454.000,262.200 454.000 C 264.733 454.000,266.400 453.841,266.400 453.600 C 266.400 453.374,267.533 453.200,269.000 453.200 C 270.467 453.200,271.600 453.026,271.600 452.800 C 271.600 452.567,272.938 452.400,274.813 452.400 C 277.299 452.400,278.077 452.264,278.255 451.800 C 278.412 451.393,279.050 451.200,280.243 451.200 C 281.209 451.200,282.000 451.020,282.000 450.800 C 282.000 450.580,282.990 450.400,284.200 450.400 C 285.410 450.400,286.400 450.220,286.400 450.000 C 286.400 449.778,287.467 449.600,288.800 449.600 C 290.667 449.600,291.200 449.467,291.200 449.000 C 291.200 448.581,291.622 448.400,292.600 448.400 C 293.370 448.400,294.000 448.220,294.000 448.000 C 294.000 447.780,294.810 447.600,295.800 447.600 C 296.790 447.600,297.600 447.420,297.600 447.200 C 297.600 446.980,298.230 446.800,299.000 446.800 C 299.770 446.800,300.400 446.620,300.400 446.400 C 300.400 446.180,301.210 446.000,302.200 446.000 C 303.533 446.000,304.000 445.844,304.000 445.400 C 304.000 444.981,304.422 444.800,305.400 444.800 C 306.170 444.800,306.800 444.620,306.800 444.400 C 306.800 444.180,307.250 444.000,307.800 444.000 C 308.350 444.000,308.800 443.820,308.800 443.600 C 308.800 443.380,309.430 443.200,310.200 443.200 C 311.178 443.200,311.600 443.019,311.600 442.600 C 311.600 442.181,312.022 442.000,313.000 442.000 C 313.770 442.000,314.400 441.820,314.400 441.600 C 314.400 441.380,314.850 441.200,315.400 441.200 C 315.950 441.200,316.400 441.020,316.400 440.800 C 316.400 440.580,316.760 440.400,317.200 440.400 C 317.644 440.400,318.000 440.133,318.000 439.800 C 318.000 439.381,318.422 439.200,319.400 439.200 C 320.170 439.200,320.800 439.020,320.800 438.800 C 320.800 438.580,321.250 438.400,321.800 438.400 C 322.350 438.400,322.800 438.220,322.800 438.000 C 322.800 437.780,323.160 437.600,323.600 437.600 C 324.044 437.600,324.400 437.333,324.400 437.000 C 324.400 436.627,324.778 436.400,325.400 436.400 C 325.950 436.400,326.400 436.220,326.400 436.000 C 326.400 435.780,326.773 435.600,327.229 435.600 C 328.114 435.600,329.200 434.734,329.200 434.029 C 329.200 433.793,329.650 433.600,330.200 433.600 C 330.750 433.600,331.200 433.420,331.200 433.200 C 331.200 432.980,331.560 432.800,332.000 432.800 C 332.440 432.800,332.800 432.620,332.800 432.400 C 332.800 432.180,333.173 432.000,333.629 432.000 C 334.514 432.000,335.600 431.134,335.600 430.429 C 335.600 430.193,336.010 430.000,336.512 430.000 C 337.013 430.000,337.683 429.640,338.000 429.200 C 338.317 428.760,338.854 428.400,339.192 428.400 C 339.531 428.400,340.346 427.774,341.004 427.009 C 341.701 426.198,342.576 425.614,343.100 425.609 C 343.595 425.604,344.000 425.407,344.000 425.171 C 344.000 424.618,345.018 423.600,345.571 423.600 C 345.807 423.600,346.000 423.420,346.000 423.200 C 346.000 422.980,346.360 422.800,346.800 422.800 C 347.244 422.800,347.600 422.533,347.600 422.200 C 347.600 421.870,347.788 421.600,348.018 421.600 C 348.464 421.600,350.400 419.804,350.400 419.390 C 350.400 419.064,351.472 418.000,351.800 418.000 C 352.134 418.000,353.200 416.934,353.200 416.600 C 353.200 416.272,354.264 415.200,354.590 415.200 C 355.004 415.200,356.800 413.264,356.800 412.818 C 356.800 412.588,356.988 412.400,357.218 412.400 C 357.761 412.400,359.600 410.561,359.600 410.018 C 359.600 409.788,359.793 409.600,360.029 409.600 C 360.676 409.600,361.600 408.542,361.600 407.800 C 361.600 407.153,362.497 406.000,363.000 406.000 C 363.415 406.000,364.400 404.895,364.400 404.429 C 364.400 404.193,364.580 404.000,364.800 404.000 C 365.020 404.000,365.200 403.640,365.200 403.200 C 365.200 402.756,365.467 402.400,365.800 402.400 C 366.130 402.400,366.400 402.130,366.400 401.800 C 366.400 401.470,366.580 401.200,366.800 401.200 C 367.020 401.200,367.200 400.840,367.200 400.400 C 367.200 399.960,367.380 399.600,367.600 399.600 C 367.820 399.600,368.000 399.330,368.000 399.000 C 368.000 398.670,368.180 398.400,368.400 398.400 C 368.620 398.400,368.800 398.040,368.800 397.600 C 368.800 397.156,369.067 396.800,369.400 396.800 C 369.758 396.800,370.000 396.432,370.000 395.888 C 370.000 395.387,370.360 394.717,370.800 394.400 C 371.240 394.083,371.600 393.413,371.600 392.912 C 371.600 392.368,371.842 392.000,372.200 392.000 C 372.533 392.000,372.800 391.644,372.800 391.200 C 372.800 390.760,372.980 390.400,373.200 390.400 C 373.420 390.400,373.600 389.950,373.600 389.400 C 373.600 388.850,373.780 388.400,374.000 388.400 C 374.220 388.400,374.400 387.950,374.400 387.400 C 374.400 386.778,374.627 386.400,375.000 386.400 C 375.333 386.400,375.600 386.044,375.600 385.600 C 375.600 385.160,375.780 384.800,376.000 384.800 C 376.220 384.800,376.400 384.170,376.400 383.400 C 376.400 382.630,376.580 382.000,376.800 382.000 C 377.020 382.000,377.200 381.550,377.200 381.000 C 377.200 380.378,377.427 380.000,377.800 380.000 C 378.219 380.000,378.400 379.578,378.400 378.600 C 378.400 377.830,378.580 377.200,378.800 377.200 C 379.020 377.200,379.200 376.570,379.200 375.800 C 379.200 375.030,379.380 374.400,379.600 374.400 C 379.820 374.400,380.000 373.770,380.000 373.000 C 380.000 372.022,380.181 371.600,380.600 371.600 C 381.019 371.600,381.200 371.178,381.200 370.200 C 381.200 369.430,381.380 368.800,381.600 368.800 C 381.820 368.800,382.000 367.810,382.000 366.600 C 382.000 365.390,382.180 364.400,382.400 364.400 C 382.620 364.400,382.800 363.590,382.800 362.600 C 382.800 361.610,382.980 360.800,383.200 360.800 C 383.422 360.800,383.600 359.733,383.600 358.400 C 383.600 356.533,383.733 356.000,384.200 356.000 C 384.683 356.000,384.800 355.378,384.800 352.800 C 384.800 350.933,384.967 349.600,385.200 349.600 C 385.448 349.600,385.600 347.467,385.600 344.000 C 385.600 340.533,385.752 338.400,386.000 338.400 C 386.255 338.400,386.400 335.200,386.400 329.600 C 386.400 324.000,386.255 320.800,386.000 320.800 C 385.763 320.800,385.600 319.333,385.600 317.200 C 385.600 315.067,385.437 313.600,385.200 313.600 C 384.978 313.600,384.800 312.533,384.800 311.200 C 384.800 309.333,384.667 308.800,384.200 308.800 C 383.756 308.800,383.600 308.333,383.600 307.000 C 383.600 306.010,383.420 305.200,383.200 305.200 C 382.980 305.200,382.800 304.300,382.800 303.200 C 382.800 302.100,382.620 301.200,382.400 301.200 C 382.180 301.200,382.000 300.660,382.000 300.000 C 382.000 299.340,381.820 298.800,381.600 298.800 C 381.380 298.800,381.200 298.170,381.200 297.400 C 381.200 296.422,381.019 296.000,380.600 296.000 C 380.181 296.000,380.000 295.578,380.000 294.600 C 380.000 293.830,379.820 293.200,379.600 293.200 C 379.380 293.200,379.200 292.750,379.200 292.200 C 379.200 291.650,379.020 291.200,378.800 291.200 C 378.580 291.200,378.400 290.570,378.400 289.800 C 378.400 288.822,378.219 288.400,377.800 288.400 C 377.427 288.400,377.200 288.022,377.200 287.400 C 377.200 286.850,377.020 286.400,376.800 286.400 C 376.580 286.400,376.400 286.040,376.400 285.600 C 376.400 285.160,376.220 284.800,376.000 284.800 C 375.780 284.800,375.600 284.350,375.600 283.800 C 375.600 283.178,375.373 282.800,375.000 282.800 C 374.667 282.800,374.400 282.444,374.400 282.000 C 374.400 281.560,374.220 281.200,374.000 281.200 C 373.780 281.200,373.600 280.750,373.600 280.200 C 373.600 279.650,373.420 279.200,373.200 279.200 C 372.980 279.200,372.800 278.750,372.800 278.200 C 372.800 277.578,372.573 277.200,372.200 277.200 C 371.867 277.200,371.600 276.844,371.600 276.400 C 371.600 275.960,371.420 275.600,371.200 275.600 C 370.980 275.600,370.800 275.227,370.800 274.771 C 370.800 273.886,369.934 272.800,369.229 272.800 C 368.993 272.800,368.800 272.350,368.800 271.800 C 368.800 271.250,368.620 270.800,368.400 270.800 C 368.180 270.800,368.000 270.432,368.000 269.982 C 368.000 269.131,366.347 267.200,365.618 267.200 C 365.388 267.200,365.200 266.832,365.200 266.382 C 365.200 265.531,363.547 263.600,362.818 263.600 C 362.588 263.600,362.400 263.190,362.400 262.688 C 362.400 262.187,362.040 261.517,361.600 261.200 C 361.160 260.883,360.800 260.393,360.800 260.112 C 360.800 259.830,360.607 259.600,360.371 259.600 C 359.724 259.600,358.800 258.542,358.800 257.800 C 358.800 257.153,357.903 256.000,357.400 256.000 C 357.066 256.000,356.000 254.934,356.000 254.600 C 356.000 254.253,354.928 253.200,354.575 253.200 C 354.222 253.200,352.401 251.107,352.400 250.700 C 352.400 250.535,352.130 250.400,351.800 250.400 C 351.470 250.400,351.200 250.220,351.200 250.000 C 351.200 249.780,350.917 249.600,350.571 249.600 C 349.853 249.600,348.800 248.666,348.800 248.029 C 348.800 247.793,348.575 247.596,348.300 247.591 C 348.025 247.587,347.262 246.957,346.604 246.191 C 345.946 245.426,345.131 244.800,344.792 244.800 C 344.454 244.800,343.917 244.440,343.600 244.000 C 343.283 243.560,342.793 243.200,342.512 243.200 C 342.230 243.200,342.000 242.930,342.000 242.600 C 342.000 242.267,341.644 242.000,341.200 242.000 C 340.760 242.000,340.400 241.820,340.400 241.600 C 340.400 241.380,340.130 241.200,339.800 241.200 C 339.470 241.200,339.200 241.020,339.200 240.800 C 339.200 240.580,338.840 240.400,338.400 240.400 C 337.956 240.400,337.600 240.133,337.600 239.800 C 337.600 239.442,337.232 239.200,336.688 239.200 C 336.187 239.200,335.517 238.840,335.200 238.400 C 334.883 237.960,334.213 237.600,333.712 237.600 C 333.168 237.600,332.800 237.358,332.800 237.000 C 332.800 236.670,332.451 236.400,332.024 236.400 C 331.597 236.400,331.136 236.220,331.000 236.000 C 330.864 235.780,330.403 235.600,329.976 235.600 C 329.549 235.600,329.200 235.420,329.200 235.200 C 329.200 234.980,328.769 234.800,328.243 234.800 C 327.716 234.800,327.182 234.530,327.055 234.200 C 326.921 233.849,326.321 233.600,325.613 233.600 C 324.946 233.600,324.400 233.420,324.400 233.200 C 324.400 232.980,324.040 232.800,323.600 232.800 C 323.160 232.800,322.800 232.620,322.800 232.400 C 322.800 232.180,322.170 232.000,321.400 232.000 C 320.630 232.000,320.000 231.820,320.000 231.600 C 320.000 231.380,320.180 231.200,320.400 231.200 C 320.620 231.200,320.800 230.930,320.800 230.600 C 320.800 230.227,321.178 230.000,321.800 230.000 C 322.350 230.000,322.800 229.820,322.800 229.600 C 322.800 229.380,323.160 229.200,323.600 229.200 C 324.040 229.200,324.400 229.020,324.400 228.800 C 324.400 228.580,324.850 228.400,325.400 228.400 C 325.950 228.400,326.400 228.207,326.400 227.971 C 326.400 227.266,327.486 226.400,328.371 226.400 C 328.827 226.400,329.200 226.220,329.200 226.000 C 329.200 225.780,329.535 225.600,329.944 225.600 C 330.353 225.600,331.026 225.150,331.439 224.600 C 331.852 224.050,332.507 223.600,332.895 223.600 C 333.283 223.600,333.600 223.420,333.600 223.200 C 333.600 222.980,333.870 222.800,334.200 222.800 C 334.530 222.800,334.800 222.530,334.800 222.200 C 334.800 221.867,335.156 221.600,335.600 221.600 C 336.040 221.600,336.400 221.420,336.400 221.200 C 336.400 220.980,336.593 220.800,336.829 220.800 C 337.382 220.800,338.400 219.782,338.400 219.229 C 338.400 218.993,338.768 218.800,339.218 218.800 C 340.069 218.800,342.000 217.147,342.000 216.418 C 342.000 216.188,342.230 216.000,342.512 216.000 C 342.793 216.000,343.283 215.640,343.600 215.200 C 343.917 214.760,344.510 214.400,344.917 214.400 C 345.630 214.400,346.800 213.530,346.800 213.000 C 346.800 212.666,347.866 211.600,348.200 211.600 C 348.575 211.600,349.600 210.514,349.600 210.117 C 349.600 209.930,349.960 209.517,350.400 209.200 C 350.840 208.883,351.200 208.213,351.200 207.712 C 351.200 207.210,351.388 206.800,351.618 206.800 C 352.161 206.800,354.000 204.961,354.000 204.418 C 354.000 204.188,354.193 204.000,354.429 204.000 C 355.076 204.000,356.000 202.942,356.000 202.200 C 356.000 201.553,356.897 200.400,357.400 200.400 C 357.903 200.400,358.800 199.247,358.800 198.600 C 358.800 197.858,359.724 196.800,360.371 196.800 C 360.607 196.800,360.800 196.350,360.800 195.800 C 360.800 195.250,360.980 194.800,361.200 194.800 C 361.420 194.800,361.600 194.440,361.600 194.000 C 361.600 193.560,361.780 193.200,362.000 193.200 C 362.220 193.200,362.400 192.750,362.400 192.200 C 362.400 191.578,362.627 191.200,363.000 191.200 C 363.373 191.200,363.600 190.822,363.600 190.200 C 363.600 189.650,363.780 189.200,364.000 189.200 C 364.220 189.200,364.400 188.840,364.400 188.400 C 364.400 187.960,364.580 187.600,364.800 187.600 C 365.020 187.600,365.200 187.150,365.200 186.600 C 365.200 185.978,365.427 185.600,365.800 185.600 C 366.173 185.600,366.400 185.222,366.400 184.600 C 366.400 184.050,366.580 183.600,366.800 183.600 C 367.020 183.600,367.200 183.240,367.200 182.800 C 367.200 182.360,367.380 182.000,367.600 182.000 C 367.820 182.000,368.000 181.370,368.000 180.600 C 368.000 179.830,368.180 179.200,368.400 179.200 C 368.620 179.200,368.800 178.570,368.800 177.800 C 368.800 176.822,368.981 176.400,369.400 176.400 C 369.844 176.400,370.000 175.933,370.000 174.600 C 370.000 173.610,370.180 172.800,370.400 172.800 C 370.620 172.800,370.800 171.900,370.800 170.800 C 370.800 169.700,370.980 168.800,371.200 168.800 C 371.420 168.800,371.600 167.810,371.600 166.600 C 371.600 164.911,371.739 164.400,372.200 164.400 C 372.695 164.400,372.800 163.667,372.800 160.200 C 372.800 157.667,372.959 156.000,373.200 156.000 C 373.455 156.000,373.600 152.667,373.600 146.800 C 373.600 140.933,373.455 137.600,373.200 137.600 C 372.954 137.600,372.800 135.600,372.800 132.400 C 372.800 128.044,372.703 127.200,372.200 127.200 C 371.717 127.200,371.600 126.578,371.600 124.000 C 371.600 122.133,371.433 120.800,371.200 120.800 C 370.980 120.800,370.800 119.810,370.800 118.600 C 370.800 117.390,370.620 116.400,370.400 116.400 C 370.180 116.400,370.000 115.500,370.000 114.400 C 370.000 112.889,369.853 112.400,369.400 112.400 C 368.956 112.400,368.800 111.933,368.800 110.600 C 368.800 109.610,368.620 108.800,368.400 108.800 C 368.180 108.800,368.000 107.990,368.000 107.000 C 368.000 106.010,367.820 105.200,367.600 105.200 C 367.380 105.200,367.200 104.570,367.200 103.800 C 367.200 103.030,367.020 102.400,366.800 102.400 C 366.580 102.400,366.400 101.770,366.400 101.000 C 366.400 100.022,366.219 99.600,365.800 99.600 C 365.427 99.600,365.200 99.222,365.200 98.600 C 365.200 98.050,365.020 97.600,364.800 97.600 C 364.580 97.600,364.400 96.970,364.400 96.200 C 364.400 95.430,364.220 94.800,364.000 94.800 C 363.780 94.800,363.600 94.440,363.600 94.000 C 363.600 93.556,363.333 93.200,363.000 93.200 C 362.627 93.200,362.400 92.822,362.400 92.200 C 362.400 91.650,362.220 91.200,362.000 91.200 C 361.780 91.200,361.600 90.570,361.600 89.800 C 361.600 89.030,361.420 88.400,361.200 88.400 C 360.980 88.400,360.800 88.034,360.800 87.587 C 360.800 87.141,360.530 86.671,360.200 86.545 C 359.870 86.418,359.600 86.056,359.600 85.740 C 359.600 85.425,359.240 84.780,358.800 84.308 C 358.360 83.836,358.000 83.123,358.000 82.725 C 358.000 82.326,357.730 82.000,357.400 82.000 C 357.042 82.000,356.800 81.632,356.800 81.088 C 356.800 80.587,356.440 79.917,356.000 79.600 C 355.560 79.283,355.200 78.613,355.200 78.112 C 355.200 77.610,355.007 77.200,354.771 77.200 C 354.124 77.200,353.200 76.142,353.200 75.400 C 353.200 74.658,352.276 73.600,351.629 73.600 C 351.393 73.600,351.200 73.222,351.200 72.760 C 351.200 72.299,350.660 71.417,350.000 70.800 C 349.340 70.183,348.800 69.435,348.800 69.136 C 348.800 68.837,348.174 68.054,347.409 67.396 C 346.643 66.738,346.013 65.975,346.009 65.700 C 346.004 65.425,345.812 65.200,345.582 65.200 C 345.039 65.200,343.200 63.361,343.200 62.818 C 343.200 62.588,343.012 62.400,342.782 62.400 C 342.239 62.400,340.400 60.561,340.400 60.018 C 340.400 59.788,340.212 59.600,339.982 59.600 C 339.439 59.600,337.600 57.761,337.600 57.218 C 337.600 56.988,337.408 56.800,337.173 56.800 C 336.938 56.800,335.969 55.990,335.021 55.000 C 334.072 54.010,333.082 53.200,332.821 53.200 C 332.560 53.200,331.752 52.570,331.026 51.800 C 330.300 51.030,329.412 50.400,329.053 50.400 C 328.694 50.400,328.400 50.220,328.400 50.000 C 328.400 49.780,328.207 49.600,327.971 49.600 C 327.418 49.600,326.400 48.582,326.400 48.029 C 326.400 47.793,325.990 47.600,325.488 47.600 C 324.987 47.600,324.317 47.240,324.000 46.800 C 323.683 46.360,323.013 46.000,322.512 46.000 C 321.968 46.000,321.600 45.758,321.600 45.400 C 321.600 45.067,321.244 44.800,320.800 44.800 C 320.360 44.800,320.000 44.620,320.000 44.400 C 320.000 44.180,319.730 44.000,319.400 44.000 C 319.070 44.000,318.800 43.820,318.800 43.600 C 318.800 43.380,318.440 43.200,318.000 43.200 C 317.556 43.200,317.200 42.933,317.200 42.600 C 317.200 42.227,316.822 42.000,316.200 42.000 C 315.650 42.000,315.200 41.820,315.200 41.600 C 315.200 41.380,314.840 41.200,314.400 41.200 C 313.960 41.200,313.600 41.020,313.600 40.800 C 313.600 40.580,313.330 40.400,313.000 40.400 C 312.670 40.400,312.400 40.130,312.400 39.800 C 312.400 39.467,312.044 39.200,311.600 39.200 C 311.160 39.200,310.800 39.020,310.800 38.800 C 310.800 38.580,310.170 38.400,309.400 38.400 C 308.630 38.400,308.000 38.220,308.000 38.000 C 308.000 37.780,307.550 37.600,307.000 37.600 C 306.378 37.600,306.000 37.373,306.000 37.000 C 306.000 36.627,305.622 36.400,305.000 36.400 C 304.450 36.400,304.000 36.220,304.000 36.000 C 304.000 35.780,303.640 35.600,303.200 35.600 C 302.760 35.600,302.400 35.420,302.400 35.200 C 302.400 34.980,301.770 34.800,301.000 34.800 C 300.230 34.800,299.600 34.620,299.600 34.400 C 299.600 34.180,299.234 34.000,298.787 34.000 C 298.341 34.000,297.871 33.730,297.745 33.400 C 297.603 33.030,296.995 32.800,296.157 32.800 C 295.411 32.800,294.800 32.620,294.800 32.400 C 294.800 32.180,294.170 32.000,293.400 32.000 C 292.630 32.000,292.000 31.820,292.000 31.600 C 292.000 31.380,291.370 31.200,290.600 31.200 C 289.622 31.200,289.200 31.019,289.200 30.600 C 289.200 30.181,288.778 30.000,287.800 30.000 C 287.030 30.000,286.400 29.820,286.400 29.600 C 286.400 29.380,285.590 29.200,284.600 29.200 C 283.610 29.200,282.800 29.020,282.800 28.800 C 282.800 28.580,282.170 28.400,281.400 28.400 C 280.422 28.400,280.000 28.219,280.000 27.800 C 280.000 27.339,279.489 27.200,277.800 27.200 C 276.590 27.200,275.600 27.020,275.600 26.800 C 275.600 26.580,274.700 26.400,273.600 26.400 C 272.500 26.400,271.600 26.220,271.600 26.000 C 271.600 25.780,270.610 25.600,269.400 25.600 C 267.711 25.600,267.200 25.461,267.200 25.000 C 267.200 24.524,266.622 24.400,264.400 24.400 C 262.800 24.400,261.600 24.229,261.600 24.000 C 261.600 23.767,260.267 23.600,258.400 23.600 C 256.533 23.600,255.200 23.433,255.200 23.200 C 255.200 22.957,253.414 22.800,250.643 22.800 C 246.961 22.800,246.041 22.685,245.855 22.200 C 245.651 21.669,232.566 21.600,131.413 21.600 L 17.200 21.600 17.200 83.800 " stroke="none" fill="#fcfcfc" fill-rule="evenodd"></path><path id="path1" d="M17.200 326.828 C 17.200 437.253,17.279 454.936,17.771 455.429 C 18.263 455.920,29.360 456.000,96.971 456.000 L 175.600 456.000 175.600 417.200 L 175.600 378.400 137.600 378.400 L 99.600 378.400 99.600 327.400 L 99.600 276.400 137.602 276.400 L 175.604 276.400 175.502 237.700 L 175.400 199.000 96.300 198.899 L 17.200 198.798 17.200 326.828 " stroke="none" fill="#f37c04" fill-rule="evenodd"></path></g></svg>