<svg id="svg" version="1.1" xmlns="http://www.w3.org/2000/svg" xmlns:xlink="http://www.w3.org/1999/xlink" width="400" height="125.26512788521522" viewBox="0, 0, 400,125.26512788521522"><g id="svgg"><path id="path0" d="M0.000 34.329 L 0.000 45.833 7.320 45.833 C 11.346 45.833,14.758 45.788,14.903 45.732 C 15.134 45.644,15.167 45.097,15.167 41.316 L 15.167 37.000 27.823 37.000 C 34.965 37.000,40.520 37.064,40.571 37.147 C 40.621 37.228,41.075 37.346,41.579 37.409 C 42.082 37.472,42.533 37.585,42.579 37.659 C 42.625 37.734,42.937 37.847,43.272 37.910 C 43.607 37.973,43.988 38.131,44.119 38.262 C 44.250 38.393,44.502 38.500,44.679 38.500 C 44.855 38.500,45.000 38.570,45.000 38.655 C 45.000 38.741,45.162 38.862,45.359 38.925 C 45.557 38.988,45.884 39.218,46.087 39.436 C 46.289 39.655,46.511 39.833,46.579 39.833 C 46.750 39.833,47.494 40.552,47.497 40.720 C 47.499 40.796,47.594 40.962,47.708 41.089 C 48.194 41.631,48.333 41.828,48.333 41.973 C 48.333 42.057,48.441 42.215,48.573 42.324 C 48.704 42.434,48.860 42.743,48.919 43.012 C 48.978 43.280,49.078 43.500,49.142 43.500 C 49.205 43.500,49.356 43.969,49.478 44.542 C 49.830 46.201,49.878 46.646,49.741 46.958 C 49.577 47.330,49.589 47.279,49.441 48.204 C 49.371 48.638,49.252 49.031,49.176 49.078 C 49.099 49.125,48.988 49.358,48.928 49.596 C 48.869 49.834,48.746 50.116,48.657 50.223 C 48.024 50.976,47.833 51.231,47.833 51.323 C 47.833 51.381,47.611 51.559,47.339 51.720 C 47.068 51.880,46.749 52.105,46.631 52.220 C 46.282 52.559,44.297 53.485,43.667 53.604 C 43.346 53.664,43.008 53.771,42.917 53.840 C 42.825 53.910,42.168 54.021,41.456 54.086 C 40.744 54.152,40.121 54.272,40.071 54.353 C 40.021 54.434,39.722 54.500,39.407 54.500 L 38.833 54.500 38.833 61.313 C 38.833 69.111,38.661 68.412,40.625 68.582 C 41.381 68.648,42.000 68.760,42.000 68.832 C 42.000 68.903,42.336 69.013,42.746 69.074 C 43.156 69.136,43.531 69.248,43.578 69.324 C 43.625 69.400,43.926 69.512,44.248 69.572 C 44.570 69.632,44.833 69.747,44.833 69.828 C 44.833 69.908,45.058 70.023,45.333 70.083 C 45.608 70.144,45.833 70.256,45.833 70.333 C 45.833 70.410,46.058 70.523,46.333 70.583 C 46.608 70.644,46.833 70.762,46.833 70.847 C 46.833 70.931,46.915 71.000,47.015 71.000 C 47.116 71.000,47.397 71.152,47.640 71.338 C 47.884 71.524,48.302 71.843,48.568 72.047 C 49.201 72.529,49.854 73.189,50.167 73.663 C 50.304 73.871,50.501 74.129,50.603 74.237 C 50.706 74.344,50.842 74.597,50.906 74.799 C 50.970 75.001,51.084 75.167,51.159 75.167 C 51.235 75.167,51.344 75.424,51.403 75.738 C 51.462 76.052,51.602 76.340,51.714 76.377 C 51.860 76.426,51.916 77.069,51.914 78.681 C 51.912 80.983,51.820 81.370,50.950 82.729 C 50.583 83.304,48.677 85.141,48.336 85.249 C 48.151 85.308,48.000 85.420,48.000 85.498 C 48.000 85.576,47.775 85.690,47.500 85.750 C 47.225 85.810,47.000 85.921,47.000 85.995 C 47.000 86.069,46.737 86.179,46.417 86.239 C 46.096 86.299,45.833 86.412,45.833 86.489 C 45.833 86.566,45.496 86.679,45.083 86.741 C 44.671 86.803,44.333 86.914,44.333 86.989 C 44.333 87.063,43.865 87.177,43.293 87.241 C 42.721 87.306,42.162 87.435,42.050 87.527 C 41.934 87.624,40.078 87.743,37.715 87.806 L 33.583 87.917 33.540 95.141 L 33.496 102.365 39.421 102.308 C 43.493 102.268,45.383 102.193,45.464 102.066 C 45.530 101.965,46.169 101.840,46.885 101.787 C 47.601 101.734,48.276 101.620,48.385 101.533 C 48.494 101.446,48.985 101.339,49.476 101.294 C 49.967 101.249,50.417 101.137,50.476 101.045 C 50.535 100.954,51.015 100.825,51.542 100.761 C 52.069 100.696,52.500 100.580,52.500 100.503 C 52.500 100.426,52.800 100.312,53.167 100.250 C 53.533 100.188,53.833 100.077,53.833 100.004 C 53.833 99.930,54.096 99.821,54.417 99.761 C 54.737 99.701,55.000 99.580,55.000 99.492 C 55.000 99.405,55.116 99.333,55.259 99.333 C 55.510 99.333,56.832 98.686,57.000 98.481 C 57.046 98.424,57.271 98.321,57.500 98.250 C 57.729 98.179,57.954 98.075,58.000 98.017 C 58.046 97.959,58.515 97.619,59.042 97.262 C 59.569 96.904,60.000 96.549,60.000 96.472 C 60.000 96.396,60.096 96.333,60.212 96.333 C 60.484 96.333,63.000 93.810,63.000 93.538 C 63.000 93.425,63.066 93.333,63.148 93.333 C 63.337 93.333,65.000 90.832,65.000 90.548 C 65.000 90.430,65.067 90.333,65.149 90.333 C 65.230 90.333,65.349 90.128,65.412 89.877 C 65.475 89.626,65.582 89.382,65.651 89.335 C 65.834 89.209,66.335 87.715,66.545 86.667 C 66.646 86.162,66.781 85.712,66.845 85.667 C 66.908 85.621,67.014 84.965,67.081 84.208 C 67.147 83.452,67.269 82.833,67.351 82.833 C 67.434 82.833,67.500 81.353,67.500 79.500 C 67.500 77.581,67.435 76.167,67.347 76.167 C 67.262 76.167,67.141 75.679,67.077 75.083 C 67.013 74.487,66.898 74.000,66.821 74.000 C 66.745 74.000,66.638 73.719,66.585 73.375 C 66.532 73.031,66.379 72.538,66.244 72.278 C 66.110 72.019,66.000 71.672,66.000 71.507 C 66.000 71.342,65.887 71.114,65.750 71.000 C 65.612 70.886,65.500 70.696,65.500 70.579 C 65.500 70.112,63.781 67.362,62.929 66.466 C 62.693 66.218,62.500 65.973,62.500 65.921 C 62.500 65.833,62.117 65.463,60.602 64.088 C 60.245 63.765,59.885 63.500,59.802 63.500 C 59.719 63.500,59.486 63.323,59.284 63.106 C 59.082 62.890,58.733 62.655,58.508 62.585 C 58.283 62.514,57.996 62.353,57.871 62.228 C 57.745 62.103,57.536 62.000,57.405 62.000 C 57.274 62.000,57.167 61.928,57.167 61.841 C 57.167 61.753,56.909 61.634,56.595 61.575 C 55.807 61.427,55.743 61.101,56.429 60.732 C 56.743 60.562,57.000 60.374,57.000 60.314 C 57.000 60.253,57.188 60.156,57.417 60.098 C 57.646 60.041,57.833 59.920,57.833 59.830 C 57.833 59.740,57.948 59.667,58.089 59.667 C 58.229 59.667,58.387 59.554,58.440 59.417 C 58.492 59.279,58.633 59.167,58.751 59.167 C 59.048 59.167,62.000 56.203,62.000 55.906 C 62.000 55.774,62.069 55.667,62.152 55.667 C 62.351 55.667,63.294 54.132,63.430 53.588 C 63.489 53.356,63.597 53.167,63.671 53.167 C 63.746 53.167,63.856 52.942,63.917 52.667 C 63.977 52.392,64.089 52.167,64.165 52.167 C 64.242 52.167,64.357 51.848,64.421 51.458 C 64.485 51.069,64.610 50.661,64.698 50.552 C 64.786 50.443,64.895 49.768,64.941 49.052 C 64.988 48.336,65.100 47.594,65.192 47.404 C 65.441 46.887,65.019 40.517,64.710 40.125 C 64.620 40.010,64.500 39.562,64.443 39.129 C 64.387 38.695,64.270 38.208,64.184 38.045 C 64.097 37.883,63.861 37.280,63.658 36.705 C 63.456 36.130,63.225 35.619,63.145 35.570 C 63.065 35.521,63.000 35.352,63.000 35.195 C 63.000 35.038,62.738 34.510,62.417 34.023 C 62.096 33.536,61.833 33.069,61.833 32.985 C 61.833 32.902,61.758 32.833,61.667 32.833 C 61.575 32.833,61.500 32.759,61.500 32.668 C 61.500 32.222,58.096 28.500,57.688 28.500 C 57.594 28.500,57.457 28.404,57.383 28.288 C 57.310 28.171,57.054 27.951,56.815 27.799 C 56.576 27.647,56.276 27.424,56.148 27.303 C 56.021 27.181,55.504 26.872,55.000 26.614 C 54.496 26.356,53.971 26.086,53.833 26.013 C 52.781 25.456,52.499 25.333,52.266 25.333 C 52.120 25.333,52.000 25.264,52.000 25.180 C 52.000 25.096,51.770 24.976,51.489 24.914 C 51.208 24.852,50.776 24.697,50.530 24.569 C 50.285 24.440,49.919 24.335,49.718 24.334 C 49.517 24.334,49.309 24.263,49.256 24.176 C 49.203 24.090,48.804 23.974,48.371 23.918 C 47.938 23.862,47.440 23.737,47.265 23.640 C 47.089 23.543,46.489 23.424,45.931 23.376 C 45.373 23.328,44.811 23.205,44.683 23.103 C 44.514 22.968,38.279 22.904,22.224 22.870 L 0.000 22.824 0.000 34.329 M179.167 49.178 C 177.555 49.406,176.333 49.695,176.333 49.850 C 176.333 49.932,176.188 50.000,176.010 50.000 C 175.531 50.000,172.503 51.618,172.501 51.875 C 172.500 51.944,172.416 52.000,172.313 52.000 C 171.927 52.000,169.333 54.884,169.333 55.313 C 169.333 55.400,169.277 55.497,169.208 55.528 C 169.016 55.613,168.333 56.950,168.333 57.241 C 168.333 57.384,168.265 57.500,168.181 57.500 C 168.098 57.500,167.976 57.819,167.911 58.208 C 167.846 58.598,167.708 58.970,167.605 59.036 C 167.325 59.213,167.344 66.077,167.625 66.358 C 167.740 66.473,167.836 66.720,167.839 66.908 C 167.842 67.096,167.990 67.550,168.167 67.917 C 168.344 68.283,168.491 68.638,168.494 68.706 C 168.501 68.842,169.473 70.465,169.744 70.791 C 169.839 70.905,170.179 71.323,170.500 71.720 C 170.821 72.117,171.410 72.698,171.809 73.012 C 172.208 73.326,172.630 73.673,172.746 73.783 C 173.654 74.636,177.008 75.938,178.972 76.200 C 181.234 76.501,185.285 76.282,185.732 75.835 C 185.824 75.742,186.042 75.667,186.216 75.667 C 186.538 75.667,187.346 75.357,188.250 74.886 C 189.756 74.103,190.000 73.953,190.000 73.817 C 190.000 73.734,190.096 73.667,190.212 73.667 C 190.473 73.667,193.000 71.149,193.000 70.889 C 193.000 70.786,193.098 70.665,193.217 70.619 C 193.500 70.511,194.796 67.904,194.937 67.159 C 194.998 66.843,195.130 66.478,195.232 66.349 C 195.507 66.001,195.486 59.252,195.208 58.975 C 195.094 58.860,195.000 58.624,195.000 58.450 C 195.000 57.960,193.873 55.500,193.648 55.500 C 193.588 55.500,193.491 55.369,193.433 55.208 C 192.848 53.589,188.390 50.000,186.964 50.000 C 186.837 50.000,186.662 49.931,186.575 49.846 C 186.409 49.685,185.222 49.409,183.667 49.169 C 182.555 48.998,180.414 49.002,179.167 49.178 M93.207 62.701 L 93.250 75.917 101.240 75.960 C 106.454 75.988,109.289 75.945,109.398 75.835 C 109.491 75.742,109.776 75.667,110.033 75.667 C 110.495 75.667,112.507 75.043,112.667 74.850 C 112.712 74.795,112.962 74.640,113.221 74.506 C 113.853 74.180,115.333 72.709,115.333 72.407 C 115.333 72.275,115.402 72.167,115.487 72.167 C 115.571 72.167,115.692 71.923,115.756 71.625 C 115.820 71.327,115.948 70.989,116.041 70.874 C 116.259 70.602,116.264 66.665,116.046 66.523 C 115.955 66.465,115.830 66.135,115.766 65.792 C 115.703 65.448,115.580 65.167,115.492 65.167 C 115.405 65.167,115.333 65.071,115.333 64.954 C 115.333 64.837,115.202 64.623,115.042 64.480 C 114.881 64.336,114.640 64.057,114.505 63.859 C 114.370 63.662,114.205 63.500,114.138 63.500 C 114.072 63.500,113.813 63.311,113.563 63.079 C 113.314 62.848,112.940 62.616,112.733 62.564 C 112.074 62.399,112.145 62.040,113.006 61.192 C 113.461 60.744,113.833 60.293,113.833 60.189 C 113.833 60.085,113.907 60.000,113.997 60.000 C 114.087 60.000,114.211 59.794,114.272 59.542 C 114.334 59.290,114.467 59.030,114.567 58.964 C 114.841 58.786,114.817 54.134,114.542 54.042 C 114.427 54.004,114.333 53.856,114.333 53.714 C 114.333 53.090,112.585 51.000,112.063 51.000 C 111.937 51.000,111.833 50.939,111.833 50.865 C 111.833 50.731,111.250 50.447,109.833 49.893 C 109.163 49.631,108.240 49.594,101.124 49.543 L 93.165 49.485 93.207 62.701 M121.667 62.833 L 121.667 76.167 131.422 76.167 L 141.177 76.167 141.130 74.208 L 141.083 72.250 133.458 72.207 L 125.833 72.163 125.833 68.334 L 125.833 64.504 132.458 64.460 L 139.083 64.417 139.130 62.542 L 139.178 60.667 132.505 60.667 L 125.833 60.667 125.833 56.917 L 125.833 53.167 133.250 53.167 L 140.667 53.167 140.667 51.333 L 140.667 49.500 131.167 49.500 L 121.667 49.500 121.667 62.833 M142.333 49.750 C 142.333 49.887,142.402 50.000,142.487 50.000 C 142.571 50.000,142.688 50.219,142.747 50.486 C 142.806 50.753,142.962 51.014,143.094 51.064 C 143.225 51.115,143.333 51.271,143.333 51.411 C 143.333 51.552,143.408 51.667,143.500 51.667 C 143.592 51.667,143.667 51.774,143.667 51.905 C 143.667 52.036,143.761 52.242,143.877 52.363 C 143.993 52.484,144.180 52.771,144.292 53.000 C 144.554 53.531,144.860 54.007,145.125 54.297 C 145.240 54.422,145.333 54.631,145.333 54.762 C 145.333 54.893,145.408 55.000,145.500 55.000 C 145.592 55.000,145.667 55.115,145.667 55.255 C 145.667 55.396,145.775 55.552,145.906 55.602 C 146.038 55.653,146.194 55.913,146.253 56.181 C 146.312 56.448,146.424 56.667,146.502 56.667 C 146.580 56.667,146.697 56.832,146.761 57.034 C 146.825 57.236,146.961 57.496,147.064 57.611 C 147.438 58.034,147.591 58.276,148.000 59.088 C 148.229 59.544,148.510 59.977,148.625 60.050 C 148.740 60.123,148.833 60.292,148.833 60.425 C 148.833 60.558,148.908 60.667,149.000 60.667 C 149.092 60.667,149.167 60.774,149.167 60.905 C 149.167 61.036,149.261 61.242,149.377 61.363 C 149.493 61.484,149.699 61.803,149.835 62.070 C 150.317 63.016,150.414 63.167,150.540 63.167 C 150.609 63.167,150.667 63.274,150.667 63.405 C 150.667 63.536,150.760 63.745,150.875 63.870 C 151.140 64.160,151.446 64.636,151.708 65.167 C 151.820 65.396,152.007 65.682,152.123 65.804 C 152.239 65.925,152.333 66.125,152.333 66.248 C 152.333 66.371,152.427 66.503,152.542 66.542 C 152.700 66.594,152.762 67.750,152.799 71.389 L 152.848 76.167 154.833 76.167 L 156.819 76.167 156.868 71.446 C 156.912 67.213,156.947 66.696,157.208 66.434 C 157.369 66.274,157.500 66.036,157.500 65.905 C 157.500 65.774,157.575 65.667,157.667 65.667 C 157.758 65.667,157.833 65.552,157.833 65.411 C 157.833 65.271,157.941 65.115,158.073 65.064 C 158.205 65.014,158.361 64.753,158.420 64.486 C 158.478 64.219,158.590 64.000,158.669 64.000 C 158.747 64.000,158.863 63.837,158.926 63.638 C 159.034 63.298,159.147 63.126,159.603 62.611 C 159.706 62.496,159.842 62.236,159.906 62.034 C 159.970 61.832,160.086 61.667,160.165 61.667 C 160.243 61.667,160.355 61.448,160.414 61.181 C 160.472 60.913,160.628 60.653,160.760 60.602 C 160.892 60.552,161.000 60.396,161.000 60.255 C 161.000 60.115,161.075 60.000,161.167 60.000 C 161.258 60.000,161.333 59.893,161.333 59.762 C 161.333 59.631,161.428 59.425,161.544 59.304 C 161.659 59.182,161.846 58.896,161.959 58.667 C 162.220 58.136,162.526 57.660,162.792 57.370 C 162.906 57.245,163.000 57.036,163.000 56.905 C 163.000 56.774,163.057 56.667,163.127 56.667 C 163.253 56.667,163.350 56.516,163.831 55.570 C 163.968 55.303,164.174 54.984,164.290 54.863 C 164.405 54.742,164.500 54.536,164.500 54.405 C 164.500 54.274,164.575 54.167,164.667 54.167 C 164.758 54.167,164.833 54.052,164.833 53.911 C 164.833 53.771,164.941 53.615,165.073 53.564 C 165.205 53.514,165.361 53.253,165.420 52.986 C 165.478 52.719,165.590 52.500,165.669 52.500 C 165.747 52.500,165.863 52.337,165.926 52.138 C 165.989 51.939,166.125 51.673,166.229 51.549 C 166.661 51.027,166.764 50.876,167.042 50.354 C 167.492 49.509,167.473 49.500,165.193 49.500 C 163.142 49.500,163.046 49.516,162.861 49.875 C 162.619 50.348,162.278 50.891,162.156 51.000 C 161.962 51.174,160.833 53.135,160.833 53.300 C 160.833 53.395,160.771 53.497,160.695 53.528 C 160.619 53.558,160.225 54.132,159.820 54.804 C 159.415 55.475,158.953 56.225,158.794 56.470 C 158.634 56.716,158.453 57.029,158.390 57.167 C 158.328 57.304,158.084 57.718,157.847 58.086 C 157.142 59.182,157.017 59.393,156.756 59.917 C 156.454 60.522,156.154 60.992,155.875 61.297 C 155.760 61.422,155.667 61.631,155.667 61.762 C 155.667 61.893,155.600 62.000,155.519 62.000 C 155.438 62.000,155.333 62.150,155.285 62.333 C 155.237 62.517,155.109 62.667,155.000 62.667 C 154.891 62.667,154.763 62.517,154.715 62.333 C 154.667 62.150,154.570 62.000,154.500 62.000 C 154.430 62.000,154.328 61.869,154.274 61.708 C 154.220 61.548,154.080 61.268,153.963 61.086 C 153.081 59.719,152.875 59.387,152.772 59.167 C 152.636 58.879,152.429 58.538,151.783 57.536 C 151.530 57.144,151.167 56.525,150.978 56.161 C 150.788 55.798,150.566 55.500,150.483 55.500 C 150.401 55.500,150.333 55.416,150.333 55.313 C 150.333 55.082,149.151 53.104,148.967 53.028 C 148.894 52.997,148.833 52.895,148.833 52.800 C 148.833 52.578,147.644 50.601,147.467 50.528 C 147.394 50.497,147.333 50.378,147.333 50.262 C 147.333 50.146,147.196 49.928,147.029 49.776 C 146.596 49.384,142.333 49.361,142.333 49.750 M200.833 62.833 L 200.833 76.167 202.917 76.167 L 205.000 76.167 205.000 66.642 L 205.000 57.118 205.375 57.545 C 206.097 58.367,206.490 58.852,206.866 59.380 C 207.075 59.673,207.359 60.034,207.498 60.183 C 207.792 60.499,208.707 61.629,208.833 61.833 C 208.965 62.047,209.881 63.176,210.189 63.504 C 210.338 63.663,210.854 64.309,211.335 64.939 C 211.816 65.568,212.257 66.121,212.313 66.167 C 212.400 66.236,213.272 67.308,213.914 68.134 C 214.007 68.254,214.281 68.567,214.523 68.830 C 214.766 69.093,214.991 69.378,215.023 69.464 C 215.099 69.661,215.941 70.709,216.542 71.353 C 216.794 71.624,217.002 71.898,217.004 71.964 C 217.006 72.030,217.267 72.383,217.585 72.750 C 217.902 73.117,218.369 73.665,218.623 73.969 C 218.876 74.272,219.161 74.610,219.256 74.719 C 219.351 74.828,219.641 75.198,219.901 75.542 L 220.373 76.167 221.986 76.167 C 223.019 76.167,223.672 76.095,223.800 75.967 C 223.952 75.814,224.000 72.626,224.000 62.633 L 224.000 49.500 221.833 49.500 L 219.667 49.500 219.667 58.828 C 219.667 68.862,219.688 68.647,218.833 67.374 C 218.604 67.032,218.248 66.594,218.042 66.399 C 217.835 66.204,217.667 65.975,217.667 65.890 C 217.667 65.804,217.445 65.550,217.174 65.326 C 216.903 65.101,216.678 64.829,216.674 64.721 C 216.670 64.614,216.442 64.301,216.167 64.026 C 215.892 63.751,215.667 63.460,215.667 63.380 C 215.667 63.300,215.445 63.050,215.174 62.826 C 214.903 62.601,214.678 62.333,214.674 62.232 C 214.670 62.130,214.423 61.776,214.125 61.444 C 213.394 60.632,212.746 59.853,212.299 59.250 C 212.095 58.975,211.832 58.690,211.714 58.617 C 211.596 58.543,211.500 58.402,211.500 58.302 C 211.500 58.203,211.331 57.959,211.125 57.761 C 210.919 57.563,210.568 57.142,210.346 56.825 C 210.123 56.509,209.842 56.190,209.721 56.117 C 209.599 56.043,209.500 55.906,209.500 55.812 C 209.500 55.718,209.294 55.431,209.042 55.174 C 208.790 54.917,208.471 54.536,208.333 54.327 C 208.196 54.119,207.952 53.831,207.792 53.687 C 207.631 53.543,207.500 53.362,207.500 53.283 C 207.500 53.205,207.294 52.924,207.042 52.659 C 206.790 52.394,206.507 52.081,206.414 51.964 C 206.015 51.459,204.897 50.069,204.671 49.797 C 204.464 49.546,204.149 49.500,202.630 49.500 L 200.833 49.500 200.833 62.833 M231.207 62.784 L 231.250 76.083 238.365 76.070 C 243.059 76.062,245.554 75.998,245.698 75.883 C 245.818 75.786,246.348 75.656,246.875 75.592 C 247.402 75.528,247.833 75.406,247.833 75.321 C 247.833 75.236,247.994 75.167,248.191 75.167 C 248.590 75.167,251.052 74.034,251.139 73.810 C 251.169 73.731,251.297 73.667,251.422 73.667 C 251.548 73.667,251.710 73.571,251.783 73.454 C 251.857 73.338,252.120 73.113,252.369 72.954 C 252.966 72.575,254.333 71.142,254.333 70.896 C 254.333 70.789,254.446 70.659,254.583 70.606 C 254.721 70.554,254.833 70.396,254.833 70.255 C 254.833 70.115,254.907 70.000,254.997 70.000 C 255.087 70.000,255.207 69.813,255.265 69.583 C 255.322 69.354,255.433 69.167,255.511 69.167 C 255.588 69.167,255.701 68.904,255.761 68.583 C 255.821 68.262,255.930 68.000,256.004 68.000 C 256.077 68.000,256.191 67.681,256.256 67.292 C 256.321 66.902,256.459 66.530,256.562 66.464 C 256.821 66.301,256.826 59.204,256.567 59.036 C 256.467 58.970,256.338 58.617,256.280 58.251 C 256.222 57.885,256.098 57.560,256.004 57.529 C 255.910 57.498,255.833 57.319,255.833 57.131 C 255.833 56.785,255.208 55.630,254.965 55.528 C 254.893 55.497,254.833 55.381,254.833 55.270 C 254.833 54.933,252.729 52.500,252.438 52.500 C 252.372 52.500,252.128 52.323,251.896 52.108 C 251.520 51.759,249.474 50.656,248.583 50.322 C 246.580 49.570,246.780 49.586,238.791 49.534 L 231.165 49.484 231.207 62.784 M261.333 62.740 L 261.333 76.000 268.990 76.000 C 273.915 76.000,276.684 75.941,276.750 75.833 C 276.807 75.742,277.089 75.667,277.377 75.667 C 278.017 75.667,280.333 74.989,280.333 74.801 C 280.333 74.727,280.450 74.667,280.592 74.667 C 280.883 74.667,282.220 73.984,282.306 73.792 C 282.336 73.723,282.436 73.667,282.528 73.667 C 283.118 73.667,286.333 70.427,286.333 69.832 C 286.333 69.741,286.400 69.667,286.482 69.667 C 286.564 69.667,286.682 69.461,286.745 69.210 C 286.808 68.959,286.918 68.715,286.989 68.668 C 287.178 68.544,287.833 66.562,287.833 66.116 C 287.833 65.906,287.918 65.649,288.021 65.546 C 288.257 65.309,288.273 60.083,288.038 59.788 C 287.949 59.675,287.826 59.242,287.766 58.825 C 287.655 58.058,286.514 55.601,285.913 54.833 C 285.174 53.891,283.195 52.061,282.578 51.750 C 282.214 51.567,281.879 51.370,281.833 51.313 C 281.787 51.256,281.375 51.047,280.917 50.849 C 280.458 50.651,279.961 50.421,279.812 50.339 C 279.663 50.257,279.251 50.137,278.896 50.073 C 278.540 50.009,278.145 49.873,278.016 49.770 C 277.853 49.640,275.305 49.568,269.558 49.532 L 261.333 49.480 261.333 62.740 M292.333 62.750 L 292.333 76.000 302.667 76.000 L 313.000 76.000 313.000 73.333 L 313.000 70.667 305.917 70.667 L 298.833 70.667 298.833 67.917 L 298.833 65.167 304.917 65.167 L 311.000 65.167 311.000 62.583 L 311.000 60.000 304.917 60.000 L 298.833 60.000 298.833 57.333 L 298.833 54.667 305.667 54.667 L 312.500 54.667 312.500 52.083 L 312.500 49.500 302.417 49.500 L 292.333 49.500 292.333 62.750 M314.500 52.083 L 314.500 54.667 318.750 54.667 L 323.000 54.667 323.000 65.333 L 323.000 76.000 326.250 76.000 L 329.500 76.000 329.500 65.333 L 329.500 54.667 333.750 54.667 L 338.000 54.667 338.000 52.083 L 338.000 49.500 326.250 49.500 L 314.500 49.500 314.500 52.083 M347.373 49.708 C 347.109 50.036,346.500 51.454,346.500 51.741 C 346.500 51.883,346.431 52.000,346.347 52.000 C 346.262 52.000,346.144 52.225,346.083 52.500 C 346.023 52.775,345.908 53.000,345.828 53.000 C 345.747 53.000,345.633 53.262,345.572 53.583 C 345.512 53.904,345.396 54.167,345.315 54.167 C 345.233 54.167,345.167 54.249,345.167 54.350 C 345.167 54.451,345.060 54.769,344.929 55.058 C 344.246 56.566,344.000 57.165,344.000 57.324 C 344.000 57.421,343.925 57.500,343.833 57.500 C 343.742 57.500,343.667 57.579,343.667 57.676 C 343.667 57.835,343.381 58.534,342.752 59.917 C 342.227 61.070,342.000 61.644,342.000 61.817 C 342.000 61.918,341.925 62.000,341.833 62.000 C 341.742 62.000,341.667 62.079,341.667 62.176 C 341.667 62.347,341.368 63.057,340.580 64.755 C 340.366 65.217,340.140 65.798,340.078 66.047 C 340.015 66.296,339.897 66.500,339.815 66.500 C 339.734 66.500,339.667 66.579,339.667 66.676 C 339.667 66.847,339.368 67.557,338.580 69.255 C 338.366 69.717,338.140 70.298,338.078 70.547 C 338.015 70.796,337.897 71.000,337.815 71.000 C 337.734 71.000,337.667 71.079,337.667 71.176 C 337.667 71.362,337.110 72.700,336.811 73.233 C 336.576 73.651,335.833 75.630,335.833 75.837 C 335.833 75.938,337.106 76.000,339.163 76.000 L 342.494 76.000 342.598 75.583 C 342.656 75.354,342.770 75.167,342.851 75.167 C 342.933 75.167,343.003 75.035,343.006 74.875 C 343.009 74.715,343.156 74.283,343.333 73.917 C 343.510 73.550,343.658 73.119,343.661 72.958 C 343.664 72.798,343.742 72.667,343.833 72.667 C 343.925 72.667,344.003 72.573,344.006 72.458 C 344.009 72.344,344.156 71.950,344.333 71.583 C 344.510 71.217,344.658 70.823,344.661 70.708 C 344.672 70.295,356.510 70.419,356.618 70.833 C 356.666 71.017,356.772 71.167,356.853 71.167 C 356.934 71.167,357.000 71.298,357.001 71.458 C 357.002 71.619,357.107 71.951,357.235 72.197 C 357.364 72.443,357.519 72.874,357.581 73.155 C 357.643 73.437,357.759 73.667,357.839 73.667 C 357.919 73.667,358.034 73.929,358.094 74.250 C 358.155 74.571,358.262 74.833,358.333 74.833 C 358.405 74.833,358.512 75.096,358.572 75.417 L 358.682 76.000 362.174 76.000 C 364.164 76.000,365.667 75.935,365.667 75.848 C 365.667 75.572,364.932 73.751,364.798 73.694 C 364.726 73.664,364.664 73.551,364.661 73.444 C 364.658 73.338,364.510 72.950,364.333 72.583 C 364.156 72.217,364.009 71.823,364.006 71.708 C 364.003 71.594,363.925 71.500,363.833 71.500 C 363.742 71.500,363.666 71.406,363.666 71.292 C 363.665 71.177,363.560 70.882,363.431 70.636 C 363.303 70.390,363.148 69.959,363.086 69.678 C 363.024 69.397,362.910 69.167,362.833 69.167 C 362.756 69.167,362.644 68.942,362.583 68.667 C 362.523 68.392,362.413 68.167,362.339 68.167 C 362.264 68.167,362.155 67.904,362.094 67.583 C 362.034 67.262,361.919 67.000,361.839 67.000 C 361.759 67.000,361.644 66.775,361.583 66.500 C 361.523 66.225,361.404 66.000,361.320 66.000 C 361.236 66.000,361.164 65.869,361.161 65.708 C 361.158 65.548,361.010 65.117,360.833 64.750 C 360.656 64.383,360.509 63.990,360.506 63.875 C 360.503 63.760,360.428 63.667,360.341 63.667 C 360.253 63.667,360.133 63.404,360.072 63.083 C 360.012 62.762,359.902 62.500,359.828 62.500 C 359.754 62.500,359.644 62.275,359.583 62.000 C 359.523 61.725,359.410 61.500,359.333 61.500 C 359.256 61.500,359.143 61.270,359.081 60.989 C 359.019 60.708,358.864 60.276,358.735 60.030 C 358.607 59.785,358.502 59.490,358.501 59.375 C 358.500 59.260,358.425 59.167,358.333 59.167 C 358.242 59.167,358.164 59.073,358.161 58.958 C 358.158 58.844,358.010 58.450,357.833 58.083 C 357.656 57.717,357.509 57.323,357.506 57.208 C 357.503 57.094,357.425 57.000,357.333 57.000 C 357.242 57.000,357.167 56.918,357.167 56.817 C 357.167 56.644,356.939 56.070,356.414 54.917 C 355.785 53.534,355.500 52.835,355.500 52.676 C 355.500 52.579,355.425 52.500,355.333 52.500 C 355.242 52.500,355.167 52.421,355.167 52.324 C 355.167 52.164,354.915 51.551,354.230 50.042 L 353.984 49.500 350.763 49.500 C 348.386 49.500,347.497 49.555,347.373 49.708 M368.000 62.754 L 368.000 76.007 371.208 75.962 L 374.417 75.917 374.459 62.708 L 374.502 49.500 371.251 49.500 L 368.000 49.500 368.000 62.754 M380.167 62.750 L 380.167 76.000 390.000 76.000 L 399.833 76.000 399.833 73.333 L 399.833 70.667 393.250 70.667 L 386.667 70.667 386.667 60.083 L 386.667 49.500 383.417 49.500 L 380.167 49.500 380.167 62.750 M107.966 53.278 C 108.032 53.386,108.292 53.525,108.543 53.588 C 108.795 53.651,109.000 53.770,109.000 53.851 C 109.000 53.933,109.102 54.000,109.227 54.000 C 109.351 54.000,109.595 54.196,109.768 54.435 C 109.942 54.674,110.196 54.988,110.333 55.132 C 110.516 55.322,110.583 55.779,110.583 56.826 C 110.583 58.302,110.556 58.377,109.716 59.216 C 109.135 59.797,108.919 59.951,108.487 60.085 C 108.265 60.155,108.030 60.295,107.965 60.397 C 107.883 60.526,106.241 60.600,102.673 60.638 L 97.500 60.692 97.500 56.833 L 97.500 52.975 102.673 53.029 C 106.393 53.068,107.880 53.138,107.966 53.278 M184.471 53.287 C 184.533 53.387,184.865 53.522,185.209 53.587 C 185.552 53.651,185.833 53.754,185.833 53.815 C 185.833 53.877,186.040 54.016,186.292 54.124 C 187.038 54.445,187.359 54.696,188.414 55.780 C 189.665 57.066,189.766 57.191,189.908 57.638 C 189.971 57.837,190.092 58.000,190.178 58.000 C 190.263 58.000,190.336 58.094,190.339 58.208 C 190.342 58.323,190.490 58.717,190.667 59.083 C 190.844 59.450,190.991 59.952,190.994 60.198 C 190.997 60.445,191.075 60.693,191.167 60.750 C 191.262 60.809,191.333 61.668,191.333 62.760 C 191.333 63.920,191.268 64.667,191.167 64.667 C 191.075 64.667,191.000 64.873,190.999 65.125 C 190.998 65.377,190.893 65.785,190.765 66.030 C 190.636 66.276,190.481 66.708,190.419 66.989 C 190.357 67.270,190.238 67.500,190.153 67.500 C 190.069 67.500,190.000 67.615,190.000 67.755 C 190.000 67.896,189.887 68.054,189.750 68.106 C 189.612 68.159,189.500 68.301,189.500 68.421 C 189.500 68.706,187.540 70.667,187.254 70.667 C 187.134 70.667,186.992 70.779,186.940 70.917 C 186.887 71.054,186.729 71.167,186.589 71.167 C 186.448 71.167,186.333 71.236,186.333 71.320 C 186.333 71.404,186.103 71.524,185.822 71.586 C 185.541 71.648,185.110 71.803,184.864 71.931 C 184.618 72.060,184.210 72.165,183.958 72.166 C 183.706 72.166,183.500 72.242,183.500 72.333 C 183.500 72.541,179.558 72.562,179.430 72.355 C 179.381 72.276,179.024 72.160,178.637 72.098 C 178.250 72.036,177.854 71.924,177.758 71.849 C 177.662 71.774,177.371 71.662,177.111 71.600 C 176.851 71.537,176.551 71.413,176.444 71.323 C 175.670 70.673,175.433 70.500,175.316 70.500 C 175.142 70.500,173.500 68.858,173.500 68.684 C 173.500 68.567,173.327 68.330,172.677 67.556 C 172.587 67.449,172.465 67.167,172.405 66.929 C 172.345 66.691,172.232 66.457,172.153 66.408 C 172.074 66.360,171.960 65.948,171.900 65.493 C 171.840 65.039,171.725 64.667,171.645 64.667 C 171.440 64.667,171.461 60.877,171.667 60.750 C 171.758 60.693,171.836 60.445,171.839 60.198 C 171.842 59.952,171.990 59.450,172.167 59.083 C 172.344 58.717,172.491 58.323,172.494 58.208 C 172.497 58.094,172.570 58.000,172.655 58.000 C 172.741 58.000,172.863 57.837,172.926 57.638 C 173.060 57.217,173.135 57.119,174.263 55.908 C 174.729 55.409,175.191 55.000,175.291 55.000 C 175.391 55.000,175.497 54.944,175.528 54.875 C 175.612 54.685,176.629 54.000,176.827 54.000 C 176.922 54.000,177.000 53.925,177.000 53.833 C 177.000 53.742,177.157 53.667,177.350 53.667 C 177.542 53.667,177.936 53.559,178.225 53.426 C 179.199 52.980,184.213 52.868,184.471 53.287 M244.794 53.325 C 244.953 53.412,245.440 53.529,245.875 53.585 C 246.310 53.641,246.667 53.752,246.667 53.830 C 246.667 53.909,246.892 54.023,247.167 54.083 C 247.442 54.144,247.667 54.254,247.667 54.329 C 247.667 54.403,247.856 54.511,248.087 54.569 C 248.318 54.627,248.706 54.842,248.949 55.046 C 249.894 55.838,250.667 56.636,250.667 56.819 C 250.667 56.924,250.772 57.051,250.902 57.101 C 251.031 57.150,251.182 57.373,251.238 57.595 C 251.294 57.818,251.413 58.000,251.503 58.000 C 251.593 58.000,251.667 58.082,251.667 58.183 C 251.667 58.284,251.777 58.603,251.911 58.891 C 252.519 60.199,252.935 64.131,252.511 64.556 C 252.413 64.653,252.333 64.868,252.333 65.033 C 252.333 65.371,251.671 67.372,251.517 67.500 C 251.461 67.546,251.212 67.883,250.963 68.250 C 250.391 69.094,249.565 70.000,249.369 70.000 C 249.286 70.000,249.083 70.150,248.917 70.333 C 248.751 70.517,248.514 70.667,248.391 70.667 C 248.268 70.667,248.167 70.736,248.167 70.820 C 248.167 70.904,247.942 71.023,247.667 71.083 C 247.392 71.144,247.167 71.256,247.167 71.333 C 247.167 71.410,246.923 71.526,246.625 71.591 C 246.327 71.656,246.030 71.793,245.964 71.896 C 245.882 72.026,244.264 72.101,240.673 72.141 L 235.500 72.199 235.500 62.683 L 235.500 53.167 240.002 53.167 C 242.527 53.167,244.632 53.236,244.794 53.325 M273.570 54.811 C 273.619 54.891,274.231 54.992,274.930 55.037 C 275.629 55.082,276.249 55.194,276.309 55.285 C 276.368 55.377,276.698 55.504,277.042 55.567 C 277.385 55.630,277.667 55.753,277.667 55.841 C 277.667 55.928,277.782 56.000,277.922 56.000 C 278.062 56.000,278.220 56.112,278.273 56.250 C 278.326 56.387,278.464 56.500,278.581 56.500 C 278.875 56.500,280.110 57.725,280.245 58.151 C 280.306 58.343,280.420 58.500,280.498 58.500 C 280.576 58.500,280.690 58.725,280.750 59.000 C 280.810 59.275,280.924 59.500,281.003 59.500 C 281.082 59.500,281.192 59.856,281.248 60.292 C 281.304 60.727,281.422 61.214,281.509 61.373 C 281.707 61.736,281.718 64.000,281.522 64.000 C 281.442 64.000,281.325 64.450,281.263 65.000 C 281.201 65.550,281.085 66.000,281.005 66.000 C 280.925 66.000,280.810 66.225,280.750 66.500 C 280.690 66.775,280.569 67.000,280.482 67.000 C 280.394 67.000,280.273 67.131,280.213 67.292 C 280.068 67.675,278.746 69.000,278.508 69.000 C 278.406 69.000,278.281 69.108,278.231 69.240 C 278.180 69.372,277.920 69.528,277.653 69.586 C 277.385 69.645,277.167 69.753,277.167 69.825 C 277.167 69.898,276.852 70.008,276.467 70.069 C 276.082 70.131,275.671 70.260,275.554 70.357 C 275.427 70.463,273.840 70.570,271.588 70.625 L 267.833 70.717 267.833 62.692 L 267.833 54.667 270.657 54.667 C 272.210 54.667,273.521 54.732,273.570 54.811 M351.066 57.344 C 351.123 57.705,351.236 58.000,351.317 58.000 C 351.397 58.000,351.512 58.262,351.572 58.583 C 351.633 58.904,351.747 59.167,351.828 59.167 C 351.908 59.167,352.024 59.397,352.086 59.678 C 352.148 59.959,352.303 60.390,352.431 60.636 C 352.560 60.882,352.665 61.215,352.666 61.375 C 352.666 61.535,352.742 61.667,352.833 61.667 C 352.925 61.667,353.000 61.760,353.001 61.875 C 353.002 61.990,353.107 62.285,353.235 62.530 C 353.364 62.776,353.519 63.208,353.581 63.489 C 353.643 63.770,353.754 64.000,353.828 64.000 C 353.902 64.000,354.012 64.262,354.072 64.583 C 354.133 64.904,354.253 65.167,354.341 65.167 C 354.428 65.167,354.500 65.242,354.500 65.333 C 354.500 65.440,353.139 65.500,350.750 65.500 C 346.718 65.500,346.777 65.514,347.235 64.636 C 347.364 64.390,347.519 63.959,347.581 63.678 C 347.643 63.397,347.754 63.167,347.828 63.167 C 347.902 63.167,348.012 62.904,348.072 62.583 C 348.133 62.262,348.247 62.000,348.326 62.000 C 348.406 62.000,348.521 61.700,348.583 61.333 C 348.645 60.967,348.761 60.667,348.840 60.667 C 348.920 60.667,349.034 60.404,349.094 60.083 C 349.155 59.762,349.270 59.500,349.352 59.500 C 349.433 59.500,349.500 59.406,349.501 59.292 C 349.502 59.177,349.607 58.882,349.735 58.636 C 349.864 58.390,350.019 57.959,350.081 57.678 C 350.143 57.397,350.262 57.167,350.347 57.167 C 350.431 57.167,350.500 57.019,350.500 56.839 C 350.500 56.248,350.955 56.654,351.066 57.344 M106.500 64.333 C 106.500 64.425,106.912 64.500,107.416 64.500 C 109.250 64.500,111.313 65.612,111.599 66.755 C 111.657 66.983,111.770 67.211,111.852 67.261 C 111.933 67.312,112.000 67.832,112.000 68.417 C 112.000 69.002,111.933 69.522,111.852 69.572 C 111.770 69.622,111.654 69.861,111.593 70.103 C 111.458 70.642,110.714 71.410,110.160 71.583 C 109.935 71.654,109.705 71.782,109.649 71.868 C 109.593 71.955,109.237 72.067,108.857 72.118 C 108.477 72.169,108.167 72.276,108.167 72.355 C 108.167 72.435,105.767 72.500,102.833 72.500 L 97.500 72.500 97.500 68.333 L 97.500 64.167 102.000 64.167 C 104.889 64.167,106.500 64.226,106.500 64.333 " stroke="none" fill="#fcfcfc" fill-rule="evenodd"></path><path id="path1" d="M-0.000 78.749 L 0.000 102.333 14.500 102.333 L 29.000 102.333 29.000 95.347 C 29.000 91.504,28.954 88.242,28.899 88.097 C 28.809 87.863,28.043 87.833,21.982 87.833 L 15.167 87.833 15.167 78.752 L 15.167 69.670 22.042 69.627 L 28.917 69.583 28.917 62.417 L 28.917 55.250 14.458 55.207 L -0.000 55.165 -0.000 78.749 " stroke="none" fill="#f47c04" fill-rule="evenodd"></path></g></svg>