<svg id="svg" xmlns="http://www.w3.org/2000/svg" xmlns:xlink="http://www.w3.org/1999/xlink" width="400" height="598.5964912280701" viewBox="0, 0, 400,598.5964912280701"><g id="svgg"><path id="path0" d="M177.895 0.351 C 177.895 0.561,176.506 0.702,174.429 0.702 C 171.776 0.702,170.861 0.825,170.526 1.228 C 170.202 1.619,169.337 1.754,167.167 1.754 C 164.399 1.754,162.456 2.212,162.456 2.863 C 162.456 3.025,161.283 3.158,159.850 3.158 C 158.121 3.158,157.083 3.318,156.766 3.635 C 156.504 3.897,155.356 4.189,154.215 4.283 C 153.074 4.378,152.080 4.637,152.006 4.859 C 151.928 5.092,151.127 5.263,150.113 5.263 C 148.650 5.263,148.325 5.381,148.172 5.965 C 148.013 6.574,147.693 6.667,145.749 6.667 C 143.992 6.667,143.509 6.780,143.509 7.193 C 143.509 7.602,143.041 7.719,141.406 7.719 C 139.684 7.719,139.225 7.846,138.866 8.421 C 138.553 8.922,138.048 9.123,137.098 9.123 C 136.239 9.123,135.696 9.309,135.565 9.649 C 135.441 9.974,134.908 10.175,134.173 10.175 C 133.349 10.175,132.982 10.337,132.982 10.702 C 132.982 11.092,132.572 11.228,131.392 11.228 C 130.303 11.228,129.739 11.394,129.601 11.754 C 129.476 12.079,128.943 12.281,128.208 12.281 C 127.485 12.281,126.742 12.556,126.316 12.982 C 125.930 13.368,125.152 13.684,124.586 13.684 C 124.021 13.684,123.322 13.921,123.033 14.211 C 122.743 14.500,122.016 14.737,121.418 14.737 C 120.774 14.737,120.246 14.952,120.127 15.263 C 120.016 15.553,119.548 15.789,119.088 15.789 C 118.628 15.789,118.054 16.105,117.813 16.491 C 117.547 16.918,116.995 17.193,116.407 17.193 C 115.780 17.193,115.439 17.379,115.439 17.719 C 115.439 18.071,115.086 18.246,114.375 18.246 C 113.753 18.246,113.227 18.464,113.109 18.772 C 112.998 19.061,112.621 19.298,112.272 19.298 C 111.261 19.298,110.526 19.683,110.526 20.213 C 110.526 20.522,110.140 20.702,109.474 20.702 C 108.772 20.702,108.421 20.877,108.421 21.228 C 108.421 21.596,108.051 21.754,107.193 21.754 C 106.335 21.754,105.965 21.913,105.965 22.281 C 105.965 22.635,105.610 22.807,104.879 22.807 C 104.089 22.807,103.744 22.998,103.610 23.509 C 103.491 23.966,103.132 24.211,102.580 24.211 C 102.114 24.211,101.641 24.447,101.530 24.737 C 101.419 25.026,101.041 25.263,100.689 25.263 C 100.338 25.263,99.841 25.469,99.586 25.721 C 99.331 25.973,98.846 26.284,98.509 26.412 C 98.171 26.540,97.895 26.886,97.895 27.182 C 97.895 27.546,97.552 27.719,96.831 27.719 C 96.209 27.719,95.684 27.938,95.565 28.246 C 95.454 28.535,95.144 28.772,94.875 28.772 C 94.606 28.772,94.386 29.009,94.386 29.298 C 94.386 29.653,94.031 29.825,93.300 29.825 C 92.510 29.825,92.165 30.015,92.031 30.526 C 91.904 31.015,91.553 31.228,90.874 31.228 C 90.332 31.228,89.810 31.461,89.698 31.754 C 89.587 32.044,89.254 32.281,88.958 32.281 C 88.663 32.281,88.421 32.518,88.421 32.807 C 88.421 33.134,88.090 33.333,87.547 33.333 C 87.053 33.333,86.482 33.638,86.234 34.035 C 85.993 34.421,85.597 34.737,85.354 34.737 C 85.111 34.737,84.912 34.974,84.912 35.263 C 84.912 35.553,84.687 35.789,84.411 35.789 C 84.135 35.789,83.694 36.005,83.430 36.269 C 83.166 36.534,82.602 36.860,82.177 36.995 C 81.751 37.130,81.404 37.466,81.404 37.743 C 81.404 38.019,81.167 38.246,80.877 38.246 C 80.588 38.246,80.351 38.482,80.351 38.772 C 80.351 39.061,80.046 39.298,79.674 39.298 C 79.302 39.298,78.789 39.504,78.534 39.756 C 78.279 40.009,77.794 40.319,77.456 40.447 C 77.118 40.575,76.842 40.922,76.842 41.217 C 76.842 41.513,76.600 41.754,76.305 41.754 C 76.009 41.754,75.682 41.977,75.578 42.249 C 75.473 42.521,75.005 42.840,74.536 42.957 C 74.068 43.075,73.684 43.326,73.684 43.515 C 73.684 43.705,73.449 43.860,73.161 43.860 C 72.873 43.860,72.440 44.175,72.199 44.561 C 71.958 44.947,71.562 45.263,71.319 45.263 C 71.076 45.263,70.877 45.500,70.877 45.789 C 70.877 46.079,70.640 46.316,70.351 46.316 C 70.061 46.316,69.825 46.534,69.825 46.801 C 69.825 47.068,69.509 47.369,69.123 47.470 C 68.737 47.571,68.421 47.905,68.421 48.213 C 68.421 48.520,68.184 48.772,67.895 48.772 C 67.605 48.772,67.368 49.009,67.368 49.298 C 67.368 49.588,67.132 49.825,66.842 49.825 C 66.553 49.825,66.316 50.043,66.316 50.310 C 66.316 50.577,66.000 50.878,65.614 50.979 C 65.228 51.080,64.912 51.414,64.912 51.722 C 64.912 52.050,64.618 52.281,64.200 52.281 C 63.807 52.281,63.396 52.518,63.285 52.807 C 63.174 53.096,62.858 53.333,62.583 53.333 C 62.308 53.333,61.995 53.564,61.886 53.846 C 61.778 54.128,61.388 54.455,61.020 54.572 C 60.652 54.689,60.351 55.010,60.351 55.287 C 60.351 55.563,60.114 55.789,59.825 55.789 C 59.535 55.789,59.298 56.026,59.298 56.316 C 59.298 56.605,59.123 56.842,58.909 56.842 C 58.468 56.842,56.857 58.282,56.848 58.684 C 56.839 59.076,55.492 60.351,55.088 60.351 C 54.895 60.351,54.737 60.553,54.737 60.799 C 54.737 61.046,54.461 61.502,54.123 61.812 C 53.188 62.672,52.281 63.954,52.281 64.416 C 52.281 64.644,51.965 64.913,51.579 65.014 C 51.193 65.115,50.877 65.449,50.877 65.757 C 50.877 66.064,50.640 66.316,50.351 66.316 C 50.061 66.316,49.825 66.553,49.825 66.842 C 49.825 67.132,49.588 67.368,49.298 67.368 C 49.009 67.368,48.772 67.605,48.772 67.895 C 48.772 68.184,48.520 68.421,48.213 68.421 C 47.905 68.421,47.571 68.737,47.470 69.123 C 47.369 69.509,47.068 69.825,46.801 69.825 C 46.534 69.825,46.316 69.988,46.316 70.187 C 46.316 70.387,45.848 71.007,45.276 71.566 C 44.704 72.126,44.134 72.989,44.010 73.484 C 43.885 73.980,43.564 74.386,43.295 74.386 C 43.027 74.386,42.807 74.606,42.807 74.875 C 42.807 75.144,42.570 75.454,42.281 75.565 C 41.991 75.677,41.754 76.009,41.754 76.305 C 41.754 76.600,41.530 76.842,41.256 76.842 C 40.982 76.842,40.656 77.303,40.533 77.865 C 40.409 78.428,40.081 78.976,39.803 79.082 C 39.525 79.189,39.298 79.518,39.298 79.814 C 39.298 80.109,39.061 80.351,38.772 80.351 C 38.482 80.351,38.246 80.571,38.246 80.840 C 38.246 81.108,38.024 81.414,37.752 81.518 C 37.481 81.622,37.153 82.191,37.023 82.783 C 36.893 83.375,36.562 83.860,36.288 83.860 C 36.014 83.860,35.789 84.096,35.789 84.386 C 35.789 84.675,35.553 84.912,35.263 84.912 C 34.974 84.912,34.737 85.154,34.737 85.450 C 34.737 85.745,34.510 86.074,34.232 86.181 C 33.954 86.287,33.629 86.822,33.509 87.368 C 33.389 87.915,33.063 88.450,32.786 88.556 C 32.508 88.663,32.281 88.992,32.281 89.287 C 32.281 89.583,32.135 89.825,31.958 89.825 C 31.780 89.825,31.531 90.298,31.404 90.877 C 31.276 91.456,30.966 91.930,30.713 91.930 C 30.460 91.930,30.150 92.482,30.023 93.158 C 29.885 93.893,29.588 94.386,29.282 94.386 C 29.002 94.386,28.772 94.623,28.772 94.912 C 28.772 95.202,28.621 95.439,28.437 95.439 C 28.253 95.439,27.998 95.991,27.872 96.667 C 27.737 97.382,27.434 97.895,27.145 97.895 C 26.872 97.895,26.556 98.358,26.443 98.925 C 26.330 99.492,26.018 100.039,25.750 100.142 C 25.482 100.245,25.263 100.571,25.263 100.866 C 25.263 101.162,25.108 101.404,24.919 101.404 C 24.730 101.404,24.467 101.838,24.336 102.368 C 24.205 102.899,23.807 103.540,23.452 103.792 C 23.097 104.044,22.807 104.619,22.807 105.070 C 22.807 105.521,22.570 105.981,22.281 106.092 C 21.979 106.208,21.754 106.731,21.754 107.320 C 21.754 107.908,21.530 108.432,21.228 108.548 C 20.939 108.659,20.702 109.133,20.702 109.601 C 20.702 110.068,20.480 110.536,20.209 110.641 C 19.937 110.745,19.609 111.314,19.479 111.906 C 19.349 112.498,19.104 112.982,18.935 112.982 C 18.766 112.982,18.525 113.535,18.398 114.211 C 18.271 114.886,18.034 115.439,17.872 115.439 C 17.709 115.439,17.474 115.980,17.350 116.642 C 17.226 117.304,16.923 117.923,16.677 118.018 C 16.432 118.112,16.119 118.634,15.982 119.179 C 15.846 119.723,15.583 120.262,15.398 120.376 C 15.214 120.490,14.966 121.202,14.847 121.958 C 14.728 122.715,14.418 123.460,14.157 123.614 C 13.873 123.782,13.684 124.519,13.684 125.456 C 13.684 126.557,13.540 127.018,13.195 127.018 C 12.583 127.018,12.281 127.781,12.281 129.327 C 12.281 130.159,12.120 130.526,11.754 130.526 C 11.401 130.526,11.228 130.880,11.228 131.604 C 11.228 132.197,10.991 132.919,10.702 133.208 C 10.412 133.497,10.175 134.355,10.175 135.113 C 10.175 136.052,10.021 136.491,9.690 136.491 C 9.163 136.491,8.784 137.530,8.777 138.998 C 8.774 139.508,8.535 140.016,8.246 140.127 C 7.860 140.275,7.719 140.884,7.719 142.408 C 7.719 143.932,7.579 144.540,7.193 144.688 C 6.806 144.837,6.667 145.449,6.667 147.007 C 6.667 148.582,6.542 149.123,6.178 149.123 C 5.559 149.123,5.266 149.882,5.252 151.520 C 5.246 152.228,5.009 153.114,4.726 153.488 C 4.441 153.864,4.211 154.913,4.211 155.827 C 4.211 156.842,4.040 157.542,3.772 157.631 C 3.475 157.730,3.293 158.842,3.208 161.071 C 3.112 163.582,2.949 164.461,2.520 164.775 C 2.086 165.093,1.925 166.010,1.812 168.802 C 1.715 171.237,1.510 172.576,1.185 172.901 C 0.821 173.264,0.702 174.590,0.702 178.271 C 0.702 181.295,0.568 183.158,0.351 183.158 C 0.122 183.158,0.000 188.947,0.000 199.825 C 0.000 210.702,0.122 216.491,0.351 216.491 C 0.569 216.491,0.702 218.415,0.702 221.562 C 0.702 225.511,0.809 226.694,1.187 226.912 C 1.536 227.114,1.713 228.220,1.815 230.828 C 1.925 233.627,2.086 234.557,2.515 234.871 C 2.919 235.166,3.112 236.043,3.213 238.052 C 3.302 239.815,3.509 240.877,3.782 240.968 C 4.060 241.061,4.211 241.901,4.211 243.363 C 4.211 245.130,4.324 245.614,4.737 245.614 C 5.140 245.614,5.263 246.059,5.263 247.515 C 5.263 249.739,5.502 250.526,6.178 250.526 C 6.542 250.526,6.667 251.068,6.667 252.643 C 6.667 254.200,6.806 254.812,7.193 254.961 C 7.562 255.102,7.719 255.677,7.719 256.880 C 7.719 258.103,7.858 258.596,8.202 258.596 C 8.536 258.596,8.736 259.210,8.849 260.579 C 8.957 261.871,9.216 262.709,9.595 262.986 C 9.922 263.225,10.175 263.892,10.175 264.512 C 10.175 265.258,10.346 265.614,10.702 265.614 C 11.092 265.614,11.228 266.025,11.228 267.204 C 11.228 268.294,11.394 268.858,11.754 268.996 C 12.044 269.107,12.283 269.615,12.285 270.125 C 12.293 271.593,12.672 272.632,13.199 272.632 C 13.520 272.632,13.684 273.048,13.684 273.860 C 13.684 274.666,13.849 275.088,14.165 275.088 C 14.478 275.088,14.728 275.703,14.879 276.842 C 15.007 277.807,15.264 278.596,15.451 278.596 C 15.637 278.596,15.789 279.006,15.789 279.507 C 15.789 280.121,16.017 280.476,16.491 280.600 C 17.019 280.738,17.193 281.079,17.193 281.971 C 17.193 282.792,17.355 283.158,17.719 283.158 C 18.085 283.158,18.246 283.525,18.246 284.361 C 18.246 285.023,18.482 285.801,18.772 286.090 C 19.061 286.380,19.298 286.865,19.298 287.168 C 19.298 287.471,19.456 287.719,19.649 287.719 C 19.842 287.719,20.000 287.956,20.000 288.246 C 20.000 288.535,20.158 288.772,20.351 288.772 C 20.544 288.772,20.702 289.076,20.702 289.449 C 20.702 289.821,20.939 290.362,21.228 290.652 C 21.518 290.941,21.754 291.494,21.754 291.880 C 21.754 292.266,21.991 292.818,22.281 293.108 C 22.570 293.397,22.807 293.882,22.807 294.185 C 22.807 294.489,22.965 294.737,23.158 294.737 C 23.351 294.737,23.509 294.974,23.509 295.263 C 23.509 295.553,23.667 295.789,23.860 295.789 C 24.053 295.789,24.211 296.105,24.211 296.491 C 24.211 296.881,24.444 297.193,24.737 297.193 C 25.089 297.193,25.263 297.545,25.263 298.257 C 25.263 298.858,25.482 299.404,25.768 299.514 C 26.046 299.621,26.374 300.168,26.498 300.731 C 26.621 301.294,26.947 301.754,27.221 301.754 C 27.539 301.754,27.719 302.129,27.719 302.790 C 27.719 303.359,27.917 303.951,28.158 304.105 C 28.400 304.260,28.963 305.136,29.411 306.053 C 29.858 306.969,30.450 307.719,30.726 307.719 C 31.066 307.719,31.228 308.116,31.228 308.947 C 31.228 309.805,31.387 310.175,31.754 310.175 C 32.084 310.175,32.281 310.508,32.281 311.064 C 32.281 311.552,32.502 312.037,32.773 312.141 C 33.043 312.244,33.366 312.871,33.490 313.533 C 33.617 314.211,33.927 314.737,34.199 314.737 C 34.464 314.737,34.785 315.211,34.912 315.789 C 35.039 316.368,35.289 316.842,35.466 316.842 C 35.644 316.842,35.789 317.158,35.789 317.544 C 35.789 317.934,36.023 318.246,36.316 318.246 C 36.670 318.246,36.842 318.600,36.842 319.331 C 36.842 320.121,37.033 320.466,37.544 320.600 C 38.041 320.730,38.246 321.079,38.246 321.795 C 38.246 322.461,38.426 322.807,38.772 322.807 C 39.124 322.807,39.298 323.159,39.298 323.871 C 39.298 324.472,39.518 325.018,39.803 325.128 C 40.081 325.235,40.411 325.793,40.538 326.369 C 40.664 326.945,40.990 327.501,41.261 327.605 C 41.532 327.709,41.754 328.014,41.754 328.283 C 41.754 328.552,41.991 328.772,42.281 328.772 C 42.648 328.772,42.807 329.142,42.807 330.000 C 42.807 330.858,42.966 331.228,43.333 331.228 C 43.666 331.228,43.860 331.563,43.860 332.138 C 43.860 332.753,44.087 333.108,44.561 333.232 C 45.061 333.362,45.263 333.710,45.263 334.438 C 45.263 335.000,45.486 335.546,45.758 335.650 C 46.030 335.755,46.353 336.240,46.475 336.729 C 46.792 337.989,47.714 339.298,48.286 339.298 C 48.607 339.298,48.772 339.714,48.772 340.526 C 48.772 341.384,48.931 341.754,49.298 341.754 C 49.649 341.754,49.825 342.105,49.825 342.807 C 49.825 343.509,50.000 343.860,50.351 343.860 C 50.640 343.860,50.877 344.163,50.877 344.533 C 50.877 345.578,51.255 346.316,51.792 346.316 C 52.076 346.316,52.281 346.673,52.281 347.168 C 52.281 347.637,52.497 348.236,52.761 348.500 C 53.025 348.764,53.351 349.328,53.486 349.753 C 53.621 350.178,53.879 350.526,54.059 350.526 C 54.239 350.526,54.386 350.857,54.386 351.261 C 54.386 351.700,54.668 352.069,55.088 352.179 C 55.585 352.309,55.789 352.658,55.789 353.374 C 55.789 354.040,55.970 354.386,56.316 354.386 C 56.668 354.386,56.842 354.738,56.842 355.450 C 56.842 356.051,57.061 356.597,57.347 356.707 C 57.625 356.814,57.953 357.360,58.076 357.922 C 58.200 358.484,58.485 359.063,58.712 359.208 C 59.236 359.547,60.351 361.655,60.351 362.309 C 60.351 362.583,60.588 362.807,60.877 362.807 C 61.210 362.807,61.404 363.142,61.404 363.717 C 61.404 364.332,61.631 364.687,62.105 364.811 C 62.633 364.949,62.807 365.289,62.807 366.181 C 62.807 367.003,62.969 367.368,63.333 367.368 C 63.682 367.368,63.860 367.717,63.860 368.404 C 63.860 368.973,64.060 369.565,64.306 369.719 C 64.551 369.874,64.942 370.434,65.175 370.965 C 65.408 371.496,65.760 371.930,65.957 371.930 C 66.155 371.930,66.316 372.246,66.316 372.632 C 66.316 373.021,66.550 373.333,66.842 373.333 C 67.193 373.333,67.368 373.684,67.368 374.386 C 67.368 375.088,67.544 375.439,67.895 375.439 C 68.249 375.439,68.421 375.793,68.421 376.524 C 68.421 377.314,68.612 377.659,69.123 377.793 C 69.622 377.924,69.825 378.272,69.825 378.999 C 69.825 379.585,70.050 380.108,70.351 380.224 C 70.640 380.335,70.877 380.809,70.877 381.277 C 70.877 381.744,71.098 382.212,71.369 382.316 C 71.639 382.420,71.940 382.810,72.038 383.182 C 72.135 383.555,72.467 383.860,72.774 383.860 C 73.162 383.860,73.333 384.183,73.333 384.912 C 73.333 385.614,73.509 385.965,73.860 385.965 C 74.227 385.965,74.386 386.335,74.386 387.193 C 74.386 388.051,74.545 388.421,74.912 388.421 C 75.239 388.421,75.439 388.752,75.439 389.295 C 75.439 389.789,75.744 390.360,76.140 390.608 C 76.526 390.849,76.842 391.408,76.842 391.850 C 76.842 392.292,77.079 392.744,77.368 392.856 C 77.658 392.967,77.895 393.345,77.895 393.697 C 77.895 394.048,78.101 394.544,78.353 394.799 C 78.605 395.055,78.916 395.539,79.044 395.877 C 79.172 396.215,79.518 396.491,79.814 396.491 C 80.194 396.491,80.351 396.850,80.351 397.719 C 80.351 398.577,80.510 398.947,80.877 398.947 C 81.229 398.947,81.404 399.299,81.404 400.011 C 81.404 400.633,81.622 401.159,81.930 401.277 C 82.219 401.388,82.456 401.699,82.456 401.967 C 82.456 402.236,82.749 402.749,83.107 403.107 C 83.465 403.465,83.863 404.176,83.991 404.686 C 84.119 405.196,84.379 405.614,84.568 405.614 C 84.757 405.614,84.912 405.930,84.912 406.316 C 84.912 406.706,85.146 407.018,85.439 407.018 C 85.793 407.018,85.965 407.372,85.965 408.103 C 85.965 408.893,86.156 409.238,86.667 409.372 C 87.166 409.503,87.368 409.851,87.368 410.578 C 87.368 411.164,87.593 411.687,87.895 411.803 C 88.184 411.914,88.421 412.388,88.421 412.856 C 88.421 413.323,88.648 413.793,88.926 413.900 C 89.204 414.007,89.532 414.554,89.656 415.117 C 89.779 415.680,90.105 416.140,90.379 416.140 C 90.653 416.140,90.877 416.456,90.877 416.842 C 90.877 417.232,91.111 417.544,91.404 417.544 C 91.771 417.544,91.930 417.914,91.930 418.772 C 91.930 419.630,92.089 420.000,92.456 420.000 C 92.811 420.000,92.982 420.355,92.982 421.085 C 92.982 421.876,93.173 422.221,93.684 422.354 C 94.142 422.474,94.386 422.833,94.386 423.385 C 94.386 423.851,94.623 424.323,94.912 424.435 C 95.202 424.546,95.439 424.924,95.439 425.276 C 95.439 425.627,95.645 426.123,95.897 426.378 C 96.149 426.633,96.460 427.118,96.588 427.456 C 96.715 427.794,97.062 428.070,97.357 428.070 C 97.738 428.070,97.895 428.429,97.895 429.298 C 97.895 430.156,98.053 430.526,98.421 430.526 C 98.773 430.526,98.947 430.878,98.947 431.590 C 98.947 432.212,99.166 432.738,99.474 432.856 C 99.763 432.967,100.000 433.450,100.000 433.930 C 100.000 434.507,100.237 434.865,100.702 434.986 C 101.201 435.117,101.404 435.465,101.404 436.192 C 101.404 436.778,101.629 437.301,101.930 437.417 C 102.219 437.528,102.456 437.839,102.456 438.108 C 102.456 438.377,102.693 438.596,102.982 438.596 C 103.337 438.596,103.509 438.951,103.509 439.682 C 103.509 440.472,103.700 440.817,104.211 440.951 C 104.710 441.082,104.912 441.430,104.912 442.157 C 104.912 442.743,105.137 443.266,105.439 443.382 C 105.728 443.493,105.965 443.967,105.965 444.435 C 105.965 444.902,106.202 445.376,106.491 445.487 C 106.781 445.598,107.018 445.982,107.018 446.340 C 107.018 446.697,107.321 447.273,107.691 447.618 C 108.061 447.963,108.473 448.680,108.606 449.211 C 108.739 449.741,108.989 450.175,109.161 450.175 C 109.333 450.175,109.474 450.491,109.474 450.877 C 109.474 451.267,109.708 451.579,110.000 451.579 C 110.354 451.579,110.526 451.933,110.526 452.664 C 110.526 453.455,110.717 453.800,111.228 453.933 C 111.685 454.053,111.930 454.412,111.930 454.964 C 111.930 455.430,112.167 455.902,112.456 456.013 C 112.756 456.129,112.982 456.652,112.982 457.231 C 112.982 457.789,113.148 458.246,113.351 458.246 C 113.554 458.246,113.951 458.798,114.233 459.474 C 114.515 460.149,114.902 460.702,115.092 460.702 C 115.283 460.702,115.439 461.018,115.439 461.404 C 115.439 461.793,115.673 462.105,115.965 462.105 C 116.317 462.105,116.491 462.457,116.491 463.169 C 116.491 463.791,116.710 464.316,117.018 464.435 C 117.307 464.546,117.544 465.029,117.544 465.509 C 117.544 466.086,117.781 466.444,118.246 466.565 C 118.745 466.696,118.947 467.044,118.947 467.771 C 118.947 468.357,119.172 468.880,119.474 468.996 C 119.763 469.107,120.000 469.486,120.000 469.837 C 120.000 470.189,120.206 470.685,120.458 470.940 C 120.710 471.195,121.021 471.680,121.149 472.018 C 121.277 472.355,121.623 472.632,121.919 472.632 C 122.283 472.632,122.456 472.974,122.456 473.695 C 122.456 474.317,122.675 474.843,122.982 474.961 C 123.272 475.072,123.509 475.546,123.509 476.013 C 123.509 476.481,123.746 476.955,124.035 477.066 C 124.331 477.180,124.561 477.702,124.561 478.260 C 124.561 478.943,124.780 479.320,125.263 479.474 C 125.755 479.630,125.965 480.005,125.965 480.725 C 125.965 481.406,126.143 481.754,126.491 481.754 C 126.784 481.754,127.018 482.066,127.018 482.456 C 127.018 482.846,127.251 483.158,127.544 483.158 C 127.898 483.158,128.070 483.512,128.070 484.243 C 128.070 485.034,128.261 485.379,128.772 485.512 C 129.229 485.632,129.474 485.991,129.474 486.543 C 129.474 487.009,129.711 487.481,130.000 487.592 C 130.300 487.708,130.526 488.231,130.526 488.809 C 130.526 489.478,130.706 489.825,131.053 489.825 C 131.342 489.825,131.579 490.127,131.579 490.498 C 131.579 491.543,131.957 492.281,132.494 492.281 C 132.763 492.281,132.982 492.585,132.982 492.957 C 132.982 493.330,133.219 493.871,133.509 494.160 C 133.798 494.450,134.035 494.940,134.035 495.249 C 134.035 495.558,134.272 495.902,134.561 496.013 C 134.851 496.125,135.088 496.608,135.088 497.088 C 135.088 497.665,135.325 498.023,135.789 498.144 C 136.289 498.275,136.491 498.623,136.491 499.350 C 136.491 499.936,136.716 500.459,137.018 500.575 C 137.318 500.690,137.544 501.213,137.544 501.792 C 137.544 502.460,137.724 502.807,138.070 502.807 C 138.360 502.807,138.596 503.014,138.596 503.267 C 138.596 503.520,138.912 504.066,139.298 504.481 C 139.684 504.895,140.000 505.482,140.000 505.786 C 140.000 506.089,140.237 506.429,140.526 506.540 C 140.820 506.652,141.053 507.174,141.053 507.719 C 141.053 508.265,141.285 508.786,141.579 508.899 C 141.868 509.010,142.105 509.490,142.105 509.965 C 142.105 510.522,142.355 510.909,142.807 511.053 C 143.299 511.209,143.509 511.584,143.509 512.304 C 143.509 512.985,143.687 513.333,144.035 513.333 C 144.358 513.333,144.561 513.662,144.561 514.185 C 144.561 514.654,144.768 515.246,145.020 515.501 C 145.272 515.756,145.582 516.241,145.710 516.579 C 145.838 516.917,146.185 517.193,146.480 517.193 C 146.845 517.193,147.018 517.535,147.018 518.257 C 147.018 518.878,147.236 519.404,147.544 519.522 C 147.833 519.633,148.070 520.107,148.070 520.575 C 148.070 521.043,148.307 521.516,148.596 521.627 C 148.886 521.739,149.123 522.222,149.123 522.702 C 149.123 523.279,149.360 523.637,149.825 523.758 C 150.324 523.889,150.526 524.237,150.526 524.964 C 150.526 525.550,150.751 526.073,151.053 526.189 C 151.342 526.300,151.579 526.616,151.579 526.891 C 151.579 527.166,151.816 527.481,152.105 527.592 C 152.398 527.705,152.632 528.226,152.632 528.769 C 152.632 529.448,152.844 529.798,153.333 529.926 C 153.810 530.051,154.035 530.405,154.035 531.031 C 154.035 531.537,154.272 532.043,154.561 532.154 C 154.861 532.269,155.088 532.792,155.088 533.371 C 155.088 534.039,155.267 534.386,155.614 534.386 C 155.941 534.386,156.140 534.717,156.140 535.260 C 156.140 535.754,156.445 536.325,156.842 536.573 C 157.228 536.814,157.544 537.215,157.544 537.464 C 157.544 537.713,157.781 538.008,158.070 538.119 C 158.364 538.231,158.596 538.753,158.596 539.298 C 158.596 539.843,158.829 540.365,159.123 540.478 C 159.412 540.589,159.649 541.069,159.649 541.544 C 159.649 542.101,159.899 542.488,160.351 542.632 C 160.842 542.788,161.053 543.162,161.053 543.883 C 161.053 544.564,161.231 544.912,161.579 544.912 C 161.931 544.912,162.105 545.264,162.105 545.976 C 162.105 546.598,162.324 547.123,162.632 547.242 C 162.921 547.353,163.158 547.634,163.158 547.866 C 163.158 548.099,163.474 548.628,163.860 549.042 C 164.246 549.456,164.561 550.039,164.561 550.336 C 164.561 550.634,164.798 550.877,165.088 550.877 C 165.434 550.877,165.614 551.224,165.614 551.892 C 165.614 552.471,165.840 552.994,166.140 553.109 C 166.448 553.227,166.667 553.753,166.667 554.375 C 166.667 555.205,166.821 555.439,167.368 555.439 C 167.937 555.439,168.070 555.673,168.070 556.667 C 168.070 557.494,168.233 557.895,168.569 557.895 C 168.843 557.895,169.171 558.368,169.298 558.947 C 169.425 559.526,169.675 560.000,169.852 560.000 C 170.030 560.000,170.175 560.316,170.175 560.702 C 170.175 561.170,170.409 561.404,170.877 561.404 C 171.417 561.404,171.579 561.637,171.579 562.419 C 171.579 562.997,171.805 563.521,172.105 563.636 C 172.413 563.754,172.632 564.279,172.632 564.901 C 172.632 565.613,172.806 565.965,173.158 565.965 C 173.512 565.965,173.684 566.319,173.684 567.050 C 173.684 567.841,173.875 568.186,174.386 568.319 C 174.843 568.439,175.088 568.798,175.088 569.350 C 175.088 569.816,175.325 570.288,175.614 570.399 C 175.904 570.511,176.140 570.900,176.140 571.266 C 176.140 571.631,176.377 571.930,176.667 571.930 C 177.018 571.930,177.193 572.281,177.193 572.982 C 177.193 573.801,177.349 574.035,177.895 574.035 C 178.463 574.035,178.596 574.269,178.596 575.263 C 178.596 576.121,178.755 576.491,179.123 576.491 C 179.475 576.491,179.649 576.843,179.649 577.555 C 179.649 578.157,179.868 578.703,180.154 578.812 C 180.432 578.919,180.760 579.466,180.884 580.029 C 181.007 580.592,181.333 581.053,181.607 581.053 C 181.881 581.053,182.105 581.368,182.105 581.754 C 182.105 582.144,182.339 582.456,182.632 582.456 C 182.982 582.456,183.158 582.807,183.158 583.509 C 183.158 584.211,183.333 584.561,183.684 584.561 C 184.052 584.561,184.211 584.932,184.211 585.789 C 184.211 586.784,184.344 587.018,184.912 587.018 C 185.480 587.018,185.614 587.251,185.614 588.246 C 185.614 589.103,185.773 589.474,186.140 589.474 C 186.470 589.474,186.667 589.806,186.667 590.362 C 186.667 590.850,186.904 591.341,187.193 591.452 C 187.482 591.563,187.719 591.953,187.719 592.318 C 187.719 592.749,187.966 592.982,188.421 592.982 C 188.967 592.982,189.123 593.216,189.123 594.035 C 189.123 594.697,189.303 595.088,189.608 595.088 C 189.875 595.088,190.176 595.404,190.277 595.789 C 190.411 596.300,190.756 596.491,191.546 596.491 C 192.277 596.491,192.632 596.663,192.632 597.018 C 192.632 597.307,192.852 597.544,193.120 597.544 C 193.389 597.544,193.700 597.781,193.811 598.070 C 193.980 598.510,195.001 598.596,199.989 598.596 C 205.067 598.596,205.965 598.517,205.965 598.070 C 205.965 597.781,206.207 597.544,206.502 597.544 C 206.798 597.544,207.130 597.307,207.242 597.018 C 207.357 596.718,207.880 596.491,208.459 596.491 C 209.240 596.491,209.474 596.330,209.474 595.789 C 209.474 595.404,209.698 595.088,209.972 595.088 C 210.246 595.088,210.575 594.614,210.702 594.035 C 210.829 593.456,211.157 592.982,211.431 592.982 C 211.706 592.982,211.930 592.667,211.930 592.281 C 211.930 591.891,212.164 591.579,212.456 591.579 C 212.746 591.579,212.982 591.274,212.982 590.902 C 212.982 590.530,213.200 590.008,213.466 589.742 C 213.732 589.476,214.060 588.754,214.196 588.138 C 214.332 587.519,214.665 587.018,214.940 587.018 C 215.234 587.018,215.439 586.668,215.439 586.165 C 215.439 585.697,215.675 585.076,215.965 584.787 C 216.254 584.497,216.491 584.037,216.491 583.763 C 216.491 583.489,216.807 582.901,217.193 582.456 C 217.579 582.011,217.895 581.513,217.895 581.350 C 217.895 581.186,218.132 581.053,218.421 581.053 C 218.772 581.053,218.947 580.702,218.947 580.000 C 218.947 579.298,219.123 578.947,219.474 578.947 C 219.797 578.947,220.000 578.619,220.000 578.095 C 220.000 577.627,220.218 577.026,220.484 576.760 C 220.749 576.494,221.078 575.772,221.213 575.156 C 221.349 574.537,221.682 574.035,221.958 574.035 C 222.257 574.035,222.456 573.680,222.456 573.147 C 222.456 572.658,222.693 572.168,222.982 572.057 C 223.272 571.946,223.509 571.556,223.509 571.191 C 223.509 570.825,223.746 570.526,224.035 570.526 C 224.386 570.526,224.561 570.175,224.561 569.474 C 224.561 568.655,224.717 568.421,225.263 568.421 C 225.831 568.421,225.965 568.187,225.965 567.193 C 225.965 566.335,226.124 565.965,226.491 565.965 C 226.838 565.965,227.018 565.618,227.018 564.950 C 227.018 564.371,227.244 563.848,227.544 563.733 C 227.852 563.615,228.070 563.089,228.070 562.467 C 228.070 561.637,228.225 561.404,228.772 561.404 C 229.227 561.404,229.474 561.170,229.474 560.739 C 229.474 560.374,229.711 559.984,230.000 559.873 C 230.289 559.762,230.526 559.271,230.526 558.783 C 230.526 558.227,230.723 557.895,231.053 557.895 C 231.420 557.895,231.579 557.524,231.579 556.667 C 231.579 555.673,231.713 555.439,232.281 555.439 C 232.821 555.439,232.982 555.205,232.982 554.424 C 232.982 553.845,233.209 553.322,233.509 553.206 C 233.816 553.088,234.035 552.563,234.035 551.941 C 234.035 551.229,234.209 550.877,234.561 550.877 C 234.851 550.877,235.088 550.599,235.088 550.260 C 235.088 549.920,235.404 549.445,235.789 549.204 C 236.175 548.963,236.491 548.468,236.491 548.105 C 236.491 547.741,236.728 547.353,237.018 547.242 C 237.325 547.123,237.544 546.598,237.544 545.976 C 237.544 545.264,237.718 544.912,238.070 544.912 C 238.416 544.912,238.596 544.566,238.596 543.901 C 238.596 543.184,238.801 542.835,239.298 542.705 C 239.809 542.572,240.000 542.227,240.000 541.436 C 240.000 540.705,240.172 540.351,240.526 540.351 C 240.877 540.351,241.053 540.000,241.053 539.298 C 241.053 538.596,241.228 538.246,241.579 538.246 C 241.868 538.246,242.105 537.948,242.105 537.585 C 242.105 537.219,242.419 536.842,242.807 536.740 C 243.318 536.607,243.509 536.262,243.509 535.471 C 243.509 534.740,243.681 534.386,244.035 534.386 C 244.382 534.386,244.561 534.039,244.561 533.371 C 244.561 532.792,244.788 532.269,245.088 532.154 C 245.377 532.043,245.614 531.563,245.614 531.087 C 245.614 530.531,245.864 530.143,246.316 530.000 C 246.807 529.844,247.018 529.469,247.018 528.748 C 247.018 528.068,247.196 527.719,247.544 527.719 C 247.833 527.719,248.070 527.420,248.070 527.055 C 248.070 526.690,248.307 526.300,248.596 526.189 C 248.904 526.071,249.123 525.545,249.123 524.923 C 249.123 524.094,249.277 523.860,249.825 523.860 C 250.365 523.860,250.526 523.626,250.526 522.845 C 250.526 522.266,250.753 521.743,251.053 521.627 C 251.342 521.516,251.579 521.043,251.579 520.575 C 251.579 520.107,251.816 519.633,252.105 519.522 C 252.413 519.404,252.632 518.878,252.632 518.257 C 252.632 517.537,252.805 517.193,253.167 517.193 C 253.461 517.193,253.852 516.798,254.035 516.316 C 254.219 515.833,254.530 515.439,254.728 515.439 C 254.926 515.439,255.088 514.965,255.088 514.386 C 255.088 513.684,255.263 513.333,255.614 513.333 C 255.960 513.333,256.140 512.987,256.140 512.322 C 256.140 511.605,256.345 511.256,256.842 511.126 C 257.307 511.005,257.544 510.648,257.544 510.070 C 257.544 509.591,257.781 509.107,258.070 508.996 C 258.378 508.878,258.596 508.352,258.596 507.730 C 258.596 507.019,258.771 506.667,259.123 506.667 C 259.443 506.667,259.649 506.340,259.649 505.830 C 259.649 505.289,259.897 504.929,260.351 504.811 C 260.825 504.687,261.053 504.332,261.053 503.717 C 261.053 503.142,261.246 502.807,261.579 502.807 C 261.925 502.807,262.105 502.460,262.105 501.792 C 262.105 501.213,262.332 500.690,262.632 500.575 C 262.939 500.457,263.158 499.931,263.158 499.309 C 263.158 498.480,263.312 498.246,263.860 498.246 C 264.405 498.246,264.561 498.012,264.561 497.193 C 264.561 496.491,264.737 496.140,265.088 496.140 C 265.455 496.140,265.614 495.770,265.614 494.912 C 265.614 494.055,265.773 493.684,266.140 493.684 C 266.433 493.684,266.667 493.372,266.667 492.982 C 266.667 492.515,266.901 492.281,267.368 492.281 C 267.937 492.281,268.070 492.047,268.070 491.053 C 268.070 490.195,268.229 489.825,268.596 489.825 C 268.947 489.825,269.123 489.474,269.123 488.772 C 269.123 488.070,269.298 487.719,269.649 487.719 C 269.995 487.719,270.175 487.373,270.175 486.708 C 270.175 485.991,270.380 485.642,270.877 485.512 C 271.388 485.379,271.579 485.034,271.579 484.243 C 271.579 483.512,271.751 483.158,272.105 483.158 C 272.398 483.158,272.632 482.846,272.632 482.456 C 272.632 482.066,272.865 481.754,273.158 481.754 C 273.504 481.754,273.684 481.408,273.684 480.743 C 273.684 480.026,273.889 479.677,274.386 479.547 C 274.897 479.414,275.088 479.069,275.088 478.278 C 275.088 477.548,275.260 477.193,275.614 477.193 C 275.965 477.193,276.140 476.842,276.140 476.140 C 276.140 475.439,276.316 475.088,276.667 475.088 C 277.034 475.088,277.193 474.717,277.193 473.860 C 277.193 472.865,277.327 472.632,277.895 472.632 C 278.349 472.632,278.596 472.398,278.596 471.967 C 278.596 471.602,278.833 471.212,279.123 471.101 C 279.412 470.990,279.649 470.516,279.649 470.049 C 279.649 469.581,279.886 469.107,280.175 468.996 C 280.477 468.880,280.702 468.357,280.702 467.771 C 280.702 467.044,280.904 466.696,281.404 466.565 C 281.878 466.441,282.105 466.086,282.105 465.471 C 282.105 464.896,282.299 464.561,282.632 464.561 C 282.999 464.561,283.158 464.191,283.158 463.333 C 283.158 462.476,283.317 462.105,283.684 462.105 C 283.974 462.105,284.211 461.808,284.211 461.444 C 284.211 461.079,284.524 460.702,284.912 460.600 C 285.377 460.479,285.614 460.121,285.614 459.544 C 285.614 459.064,285.851 458.581,286.140 458.470 C 286.448 458.352,286.667 457.826,286.667 457.204 C 286.667 456.492,286.841 456.140,287.193 456.140 C 287.539 456.140,287.719 455.794,287.719 455.129 C 287.719 454.412,287.924 454.063,288.421 453.933 C 288.932 453.800,289.123 453.455,289.123 452.664 C 289.123 451.933,289.295 451.579,289.649 451.579 C 289.939 451.579,290.175 451.280,290.175 450.915 C 290.175 450.549,290.412 450.160,290.702 450.049 C 290.991 449.937,291.228 449.458,291.228 448.982 C 291.228 448.426,291.478 448.038,291.930 447.895 C 292.421 447.739,292.632 447.364,292.632 446.643 C 292.632 445.962,292.810 445.614,293.158 445.614 C 293.509 445.614,293.684 445.263,293.684 444.561 C 293.684 443.860,293.860 443.509,294.211 443.509 C 294.578 443.509,294.737 443.138,294.737 442.281 C 294.737 441.287,294.871 441.053,295.439 441.053 C 296.007 441.053,296.140 440.819,296.140 439.825 C 296.140 438.967,296.299 438.596,296.667 438.596 C 296.959 438.596,297.193 438.285,297.193 437.895 C 297.193 437.505,297.427 437.193,297.719 437.193 C 298.070 437.193,298.246 436.842,298.246 436.140 C 298.246 435.322,298.402 435.088,298.947 435.088 C 299.493 435.088,299.649 434.854,299.649 434.035 C 299.649 433.333,299.825 432.982,300.175 432.982 C 300.543 432.982,300.702 432.612,300.702 431.754 C 300.702 430.897,300.860 430.526,301.228 430.526 C 301.596 430.526,301.754 430.156,301.754 429.298 C 301.754 428.304,301.888 428.070,302.456 428.070 C 302.924 428.070,303.158 427.836,303.158 427.368 C 303.158 426.979,303.392 426.667,303.684 426.667 C 304.035 426.667,304.211 426.316,304.211 425.614 C 304.211 424.912,304.386 424.561,304.737 424.561 C 305.083 424.561,305.263 424.215,305.263 423.550 C 305.263 422.833,305.468 422.484,305.965 422.354 C 306.476 422.221,306.667 421.876,306.667 421.085 C 306.667 420.355,306.839 420.000,307.193 420.000 C 307.561 420.000,307.719 419.630,307.719 418.772 C 307.719 417.914,307.878 417.544,308.246 417.544 C 308.535 417.544,308.772 417.246,308.772 416.883 C 308.772 416.517,309.085 416.140,309.474 416.039 C 309.938 415.917,310.175 415.560,310.175 414.983 C 310.175 414.503,310.412 414.019,310.702 413.908 C 310.991 413.797,311.228 413.307,311.228 412.818 C 311.228 412.262,311.425 411.930,311.754 411.930 C 312.122 411.930,312.281 411.559,312.281 410.702 C 312.281 409.708,312.414 409.474,312.982 409.474 C 313.551 409.474,313.684 409.240,313.684 408.246 C 313.684 407.388,313.843 407.018,314.211 407.018 C 314.500 407.018,314.737 406.719,314.737 406.353 C 314.737 405.988,314.974 405.598,315.263 405.487 C 315.553 405.376,315.789 404.904,315.789 404.438 C 315.789 403.886,316.034 403.527,316.491 403.407 C 316.965 403.283,317.193 402.929,317.193 402.314 C 317.193 401.739,317.387 401.404,317.719 401.404 C 318.087 401.404,318.246 401.033,318.246 400.175 C 318.246 399.318,318.404 398.947,318.772 398.947 C 319.140 398.947,319.298 398.577,319.298 397.719 C 319.298 396.725,319.432 396.491,320.000 396.491 C 320.546 396.491,320.702 396.257,320.702 395.439 C 320.702 394.737,320.877 394.386,321.228 394.386 C 321.518 394.386,321.754 394.087,321.754 393.722 C 321.754 393.356,321.991 392.967,322.281 392.856 C 322.570 392.744,322.807 392.272,322.807 391.806 C 322.807 391.254,323.051 390.895,323.509 390.776 C 324.020 390.642,324.211 390.297,324.211 389.507 C 324.211 388.776,324.382 388.421,324.737 388.421 C 325.104 388.421,325.263 388.051,325.263 387.193 C 325.263 386.335,325.422 385.965,325.789 385.965 C 326.140 385.965,326.316 385.614,326.316 384.912 C 326.316 384.094,326.472 383.860,327.018 383.860 C 327.472 383.860,327.719 383.626,327.719 383.195 C 327.719 382.830,327.956 382.440,328.246 382.329 C 328.535 382.218,328.772 381.728,328.772 381.239 C 328.772 380.683,328.969 380.351,329.298 380.351 C 329.666 380.351,329.825 379.981,329.825 379.123 C 329.825 378.129,329.958 377.895,330.526 377.895 C 331.094 377.895,331.228 377.661,331.228 376.667 C 331.228 375.809,331.387 375.439,331.754 375.439 C 332.105 375.439,332.281 375.088,332.281 374.386 C 332.281 373.684,332.456 373.333,332.807 373.333 C 333.096 373.333,333.333 373.056,333.333 372.716 C 333.333 372.376,333.649 371.901,334.035 371.660 C 334.421 371.419,334.737 370.925,334.737 370.561 C 334.737 370.197,334.974 369.809,335.263 369.698 C 335.571 369.580,335.789 369.054,335.789 368.432 C 335.789 367.721,335.964 367.368,336.316 367.368 C 336.683 367.368,336.842 366.998,336.842 366.140 C 336.842 365.146,336.976 364.912,337.544 364.912 C 338.090 364.912,338.246 364.678,338.246 363.860 C 338.246 363.158,338.421 362.807,338.772 362.807 C 339.093 362.807,339.298 362.480,339.298 361.967 C 339.298 361.506,339.535 361.037,339.825 360.926 C 340.114 360.815,340.351 360.421,340.351 360.052 C 340.351 359.675,340.659 359.299,341.053 359.197 C 341.564 359.063,341.754 358.718,341.754 357.928 C 341.754 357.197,341.926 356.842,342.281 356.842 C 342.648 356.842,342.807 356.472,342.807 355.614 C 342.807 354.756,342.966 354.386,343.333 354.386 C 343.684 354.386,343.860 354.035,343.860 353.333 C 343.860 352.515,344.016 352.281,344.561 352.281 C 345.129 352.281,345.263 352.047,345.263 351.053 C 345.263 350.195,345.422 349.825,345.789 349.825 C 346.079 349.825,346.316 349.605,346.316 349.336 C 346.316 349.067,346.553 348.756,346.842 348.645 C 347.150 348.527,347.368 348.001,347.368 347.379 C 347.368 346.550,347.523 346.316,348.070 346.316 C 348.638 346.316,348.772 346.082,348.772 345.088 C 348.772 344.230,348.931 343.860,349.298 343.860 C 349.649 343.860,349.825 343.509,349.825 342.807 C 349.825 342.105,350.000 341.754,350.351 341.754 C 350.718 341.754,350.877 341.384,350.877 340.526 C 350.877 339.532,351.011 339.298,351.579 339.298 C 351.965 339.298,352.281 339.078,352.281 338.809 C 352.281 338.541,352.518 338.230,352.807 338.119 C 353.115 338.001,353.333 337.475,353.333 336.853 C 353.333 336.142,353.508 335.789,353.860 335.789 C 354.227 335.789,354.386 335.419,354.386 334.561 C 354.386 333.567,354.520 333.333,355.088 333.333 C 355.634 333.333,355.789 333.099,355.789 332.281 C 355.789 331.579,355.965 331.228,356.316 331.228 C 356.683 331.228,356.842 330.858,356.842 330.000 C 356.842 329.142,357.001 328.772,357.368 328.772 C 357.658 328.772,357.895 328.573,357.895 328.330 C 357.895 328.087,358.211 327.691,358.596 327.450 C 358.993 327.202,359.298 326.632,359.298 326.137 C 359.298 325.594,359.498 325.263,359.825 325.263 C 360.192 325.263,360.351 324.893,360.351 324.035 C 360.351 323.177,360.510 322.807,360.877 322.807 C 361.228 322.807,361.404 322.456,361.404 321.754 C 361.404 320.936,361.559 320.702,362.105 320.702 C 362.673 320.702,362.807 320.468,362.807 319.474 C 362.807 318.616,362.966 318.246,363.333 318.246 C 363.623 318.246,363.860 317.947,363.860 317.581 C 363.860 317.216,364.096 316.826,364.386 316.715 C 364.675 316.604,364.912 316.132,364.912 315.666 C 364.912 315.114,365.157 314.755,365.614 314.635 C 366.125 314.502,366.316 314.157,366.316 313.366 C 366.316 312.635,366.488 312.281,366.842 312.281 C 367.193 312.281,367.368 311.930,367.368 311.228 C 367.368 310.526,367.544 310.175,367.895 310.175 C 368.262 310.175,368.421 309.805,368.421 308.947 C 368.421 307.953,368.555 307.719,369.123 307.719 C 369.591 307.719,369.825 307.485,369.825 307.018 C 369.825 306.632,369.970 306.316,370.148 306.316 C 370.325 306.316,370.575 305.842,370.702 305.263 C 370.829 304.684,371.157 304.211,371.431 304.211 C 371.767 304.211,371.930 303.810,371.930 302.982 C 371.930 301.988,372.063 301.754,372.632 301.754 C 373.177 301.754,373.333 301.520,373.333 300.702 C 373.333 300.000,373.509 299.649,373.860 299.649 C 374.227 299.649,374.386 299.279,374.386 298.421 C 374.386 297.563,374.545 297.193,374.912 297.193 C 375.280 297.193,375.439 296.823,375.439 295.965 C 375.439 294.971,375.572 294.737,376.140 294.737 C 376.544 294.737,376.842 294.503,376.842 294.185 C 376.842 293.882,377.079 293.397,377.368 293.108 C 377.658 292.818,377.895 292.266,377.895 291.880 C 377.895 291.494,378.132 290.941,378.421 290.652 C 378.711 290.362,378.947 289.821,378.947 289.449 C 378.947 289.076,379.172 288.772,379.446 288.772 C 379.721 288.772,380.054 288.270,380.190 287.651 C 380.326 287.035,380.654 286.313,380.920 286.047 C 381.186 285.782,381.404 285.023,381.404 284.361 C 381.404 283.525,381.564 283.158,381.930 283.158 C 382.297 283.158,382.456 282.788,382.456 281.930 C 382.456 280.936,382.590 280.702,383.158 280.702 C 383.698 280.702,383.860 280.468,383.860 279.687 C 383.860 279.108,384.086 278.585,384.386 278.470 C 384.747 278.331,384.912 277.767,384.912 276.678 C 384.912 275.498,385.048 275.088,385.439 275.088 C 385.806 275.088,385.965 274.717,385.965 273.860 C 385.965 272.865,386.099 272.632,386.667 272.632 C 387.275 272.632,387.368 272.398,387.368 270.877 C 387.368 269.552,387.497 269.123,387.895 269.123 C 388.292 269.123,388.421 268.694,388.421 267.368 C 388.421 266.043,388.550 265.614,388.947 265.614 C 389.298 265.614,389.474 265.263,389.474 264.561 C 389.474 263.977,389.786 263.197,390.175 262.807 C 390.690 262.292,390.877 261.637,390.877 260.351 C 390.877 259.025,391.006 258.596,391.404 258.596 C 391.801 258.596,391.930 258.168,391.930 256.842 C 391.930 255.517,392.058 255.088,392.456 255.088 C 392.870 255.088,392.982 254.600,392.982 252.807 C 392.982 250.760,393.054 250.526,393.684 250.526 C 394.319 250.526,394.386 250.292,394.386 248.070 C 394.386 246.121,394.495 245.614,394.912 245.614 C 395.326 245.614,395.439 245.127,395.439 243.333 C 395.439 241.540,395.551 241.053,395.965 241.053 C 396.391 241.053,396.491 240.487,396.491 238.070 C 396.491 235.765,396.601 235.088,396.977 235.088 C 397.671 235.088,397.884 233.958,397.890 230.263 C 397.894 227.614,397.991 227.018,398.421 227.018 C 398.865 227.018,398.947 226.199,398.947 221.754 C 398.947 217.310,399.029 216.491,399.474 216.491 C 400.258 216.491,400.269 184.700,399.485 183.664 C 399.087 183.138,398.967 181.801,398.959 177.807 C 398.949 173.446,398.865 172.632,398.421 172.632 C 397.988 172.632,397.895 172.008,397.895 169.123 C 397.895 166.082,397.801 165.520,397.193 164.912 C 396.595 164.314,396.491 163.743,396.491 161.042 C 396.491 158.548,396.379 157.830,395.965 157.671 C 395.579 157.523,395.439 156.914,395.439 155.390 C 395.439 153.866,395.298 153.257,394.912 153.109 C 394.542 152.967,394.386 152.389,394.386 151.158 C 394.386 149.703,394.268 149.377,393.684 149.224 C 393.075 149.065,392.982 148.746,392.982 146.801 C 392.982 145.044,392.869 144.561,392.456 144.561 C 392.042 144.561,391.930 144.074,391.930 142.281 C 391.930 140.487,391.817 140.000,391.404 140.000 C 391.006 140.000,390.877 139.571,390.877 138.246 C 390.877 136.725,390.784 136.491,390.175 136.491 C 389.567 136.491,389.474 136.257,389.474 134.737 C 389.474 133.411,389.345 132.982,388.947 132.982 C 388.580 132.982,388.421 132.612,388.421 131.754 C 388.421 130.897,388.262 130.526,387.895 130.526 C 387.497 130.526,387.368 130.097,387.368 128.772 C 387.368 127.251,387.275 127.018,386.667 127.018 C 386.058 127.018,385.965 126.784,385.965 125.263 C 385.965 123.938,385.836 123.509,385.439 123.509 C 385.073 123.509,384.912 123.141,384.912 122.306 C 384.912 121.644,384.695 120.885,384.429 120.619 C 384.163 120.353,383.834 119.631,383.699 119.015 C 383.563 118.397,383.230 117.895,382.955 117.895 C 382.634 117.895,382.456 117.516,382.456 116.831 C 382.456 116.209,382.237 115.684,381.930 115.565 C 381.628 115.450,381.404 114.926,381.404 114.337 C 381.404 113.749,381.179 113.225,380.877 113.109 C 380.572 112.992,380.351 112.467,380.351 111.859 C 380.351 111.107,380.153 110.760,379.649 110.628 C 379.152 110.498,378.947 110.149,378.947 109.433 C 378.947 108.767,378.767 108.421,378.421 108.421 C 378.053 108.421,377.895 108.051,377.895 107.193 C 377.895 106.335,377.736 105.965,377.368 105.965 C 377.014 105.965,376.842 105.610,376.842 104.879 C 376.842 104.089,376.651 103.744,376.140 103.610 C 375.643 103.480,375.439 103.132,375.439 102.415 C 375.439 101.750,375.258 101.404,374.912 101.404 C 374.620 101.404,374.386 101.092,374.386 100.702 C 374.386 100.312,374.152 100.000,373.860 100.000 C 373.509 100.000,373.333 99.649,373.333 98.947 C 373.333 98.129,373.177 97.895,372.632 97.895 C 372.084 97.895,371.930 97.661,371.930 96.831 C 371.930 96.209,371.711 95.684,371.404 95.565 C 371.114 95.454,370.877 95.144,370.877 94.875 C 370.877 94.606,370.640 94.386,370.351 94.386 C 369.983 94.386,369.825 94.016,369.825 93.158 C 369.825 92.164,369.691 91.930,369.123 91.930 C 368.606 91.930,368.421 91.696,368.421 91.042 C 368.421 90.553,368.184 90.063,367.895 89.951 C 367.605 89.840,367.368 89.451,367.368 89.085 C 367.368 88.720,367.132 88.421,366.842 88.421 C 366.517 88.421,366.316 88.091,366.316 87.556 C 366.316 87.050,366.024 86.535,365.614 86.316 C 365.228 86.109,364.912 85.709,364.912 85.426 C 364.912 85.144,364.675 84.912,364.386 84.912 C 364.096 84.912,363.860 84.675,363.860 84.386 C 363.860 84.096,363.623 83.860,363.333 83.860 C 362.979 83.860,362.807 83.505,362.807 82.774 C 362.807 81.984,362.616 81.639,362.105 81.505 C 361.719 81.404,361.404 81.103,361.404 80.836 C 361.404 80.569,361.167 80.351,360.877 80.351 C 360.585 80.351,360.351 80.039,360.351 79.649 C 360.351 79.259,360.117 78.947,359.825 78.947 C 359.492 78.947,359.298 78.612,359.298 78.037 C 359.298 77.422,359.071 77.068,358.596 76.944 C 358.208 76.842,357.895 76.465,357.895 76.099 C 357.895 75.736,357.658 75.439,357.368 75.439 C 357.079 75.439,356.842 75.202,356.842 74.912 C 356.842 74.623,356.605 74.386,356.316 74.386 C 355.968 74.386,355.789 74.038,355.789 73.357 C 355.789 72.636,355.579 72.261,355.088 72.105 C 354.702 71.983,354.386 71.656,354.386 71.380 C 354.386 71.103,354.149 70.877,353.860 70.877 C 353.570 70.877,353.333 70.640,353.333 70.351 C 353.333 70.061,353.096 69.825,352.807 69.825 C 352.515 69.825,352.281 69.513,352.281 69.123 C 352.281 68.655,352.047 68.421,351.579 68.421 C 351.189 68.421,350.877 68.187,350.877 67.895 C 350.877 67.605,350.640 67.368,350.351 67.368 C 350.061 67.368,349.825 67.132,349.825 66.842 C 349.825 66.553,349.588 66.316,349.298 66.316 C 349.006 66.316,348.772 66.004,348.772 65.614 C 348.772 65.146,348.538 64.912,348.070 64.912 C 347.556 64.912,347.368 64.678,347.368 64.035 C 347.368 63.489,347.170 63.158,346.842 63.158 C 346.550 63.158,346.316 62.846,346.316 62.456 C 346.316 62.070,346.097 61.754,345.830 61.754 C 345.563 61.754,345.262 61.439,345.161 61.053 C 345.061 60.667,344.726 60.351,344.419 60.351 C 344.111 60.351,343.860 60.114,343.860 59.825 C 343.860 59.535,343.623 59.298,343.333 59.298 C 343.044 59.298,342.807 59.056,342.807 58.761 C 342.807 58.465,342.570 58.133,342.281 58.022 C 341.991 57.911,341.754 57.600,341.754 57.331 C 341.754 57.062,341.439 56.842,341.053 56.842 C 340.663 56.842,340.351 56.608,340.351 56.316 C 340.351 56.026,340.114 55.789,339.825 55.789 C 339.535 55.789,339.296 55.592,339.292 55.351 C 339.285 54.835,337.779 53.333,337.269 53.333 C 337.075 53.333,336.826 53.096,336.715 52.807 C 336.604 52.518,336.114 52.281,335.625 52.281 C 334.971 52.281,334.737 52.096,334.737 51.579 C 334.737 51.111,334.503 50.877,334.035 50.877 C 333.645 50.877,333.333 50.643,333.333 50.351 C 333.333 50.061,333.096 49.825,332.807 49.825 C 332.518 49.825,332.281 49.588,332.281 49.298 C 332.281 49.009,332.044 48.772,331.754 48.772 C 331.462 48.772,331.228 48.460,331.228 48.070 C 331.228 47.602,330.994 47.368,330.526 47.368 C 330.136 47.368,329.825 47.135,329.825 46.842 C 329.825 46.553,329.588 46.316,329.298 46.316 C 329.009 46.316,328.772 46.079,328.772 45.789 C 328.772 45.500,328.535 45.263,328.246 45.263 C 327.956 45.263,327.719 45.029,327.719 44.744 C 327.719 44.458,326.933 43.866,325.972 43.428 C 325.011 42.990,324.222 42.434,324.218 42.193 C 324.214 41.952,323.895 41.754,323.509 41.754 C 323.123 41.754,322.807 41.530,322.807 41.257 C 322.807 40.686,320.726 39.298,319.871 39.298 C 319.556 39.298,319.298 39.061,319.298 38.772 C 319.298 38.482,319.061 38.246,318.772 38.246 C 318.482 38.246,318.246 38.012,318.246 37.726 C 318.246 37.440,317.459 36.848,316.498 36.410 C 315.537 35.972,314.748 35.417,314.744 35.175 C 314.740 34.934,314.500 34.737,314.211 34.737 C 313.921 34.737,313.684 34.517,313.684 34.248 C 313.684 33.712,312.947 33.333,311.901 33.333 C 311.531 33.333,311.228 33.096,311.228 32.807 C 311.228 32.518,311.008 32.281,310.739 32.281 C 310.470 32.281,310.160 32.044,310.049 31.754 C 309.933 31.453,309.409 31.228,308.824 31.228 C 308.096 31.228,307.748 31.026,307.618 30.526 C 307.484 30.015,307.139 29.825,306.349 29.825 C 305.618 29.825,305.263 29.653,305.263 29.298 C 305.263 29.009,305.026 28.772,304.737 28.772 C 304.447 28.772,304.211 28.535,304.211 28.246 C 304.211 27.878,303.840 27.719,302.982 27.719 C 302.050 27.719,301.752 27.571,301.746 27.105 C 301.737 26.492,299.743 25.263,298.758 25.263 C 298.476 25.263,298.246 25.026,298.246 24.737 C 298.246 24.391,297.899 24.211,297.234 24.211 C 296.517 24.211,296.169 24.006,296.039 23.509 C 295.905 22.998,295.560 22.807,294.770 22.807 C 294.039 22.807,293.684 22.635,293.684 22.281 C 293.684 21.913,293.314 21.754,292.456 21.754 C 291.598 21.754,291.228 21.596,291.228 21.228 C 291.228 20.882,290.882 20.702,290.216 20.702 C 289.500 20.702,289.151 20.497,289.021 20.000 C 288.888 19.489,288.543 19.298,287.752 19.298 C 287.021 19.298,286.667 19.126,286.667 18.772 C 286.667 18.404,286.296 18.246,285.439 18.246 C 284.581 18.246,284.211 18.087,284.211 17.719 C 284.211 17.368,283.860 17.193,283.158 17.193 C 282.492 17.193,282.105 17.013,282.105 16.704 C 282.105 16.168,281.368 15.789,280.322 15.789 C 279.952 15.789,279.649 15.553,279.649 15.263 C 279.649 14.906,279.284 14.733,278.509 14.726 C 277.882 14.720,277.062 14.483,276.687 14.199 C 276.313 13.916,275.484 13.684,274.845 13.684 C 274.091 13.684,273.684 13.514,273.684 13.199 C 273.684 12.667,272.643 12.293,271.140 12.285 C 270.519 12.282,270.175 12.093,270.175 11.754 C 270.175 11.357,269.747 11.228,268.421 11.228 C 267.096 11.228,266.667 11.099,266.667 10.702 C 266.667 10.355,266.320 10.175,265.652 10.175 C 265.073 10.175,264.550 9.949,264.435 9.649 C 264.297 9.291,263.737 9.123,262.684 9.123 C 261.430 9.123,261.100 8.989,260.951 8.421 C 260.791 7.809,260.472 7.719,258.454 7.719 C 256.631 7.719,256.140 7.608,256.140 7.193 C 256.140 6.780,255.658 6.667,253.901 6.667 C 251.956 6.667,251.637 6.574,251.477 5.965 C 251.330 5.401,250.993 5.261,249.770 5.252 C 248.931 5.246,247.939 5.009,247.565 4.726 C 247.190 4.442,246.192 4.211,245.346 4.211 C 244.448 4.211,243.591 3.992,243.283 3.684 C 242.917 3.318,242.020 3.158,240.334 3.158 C 238.531 3.158,237.618 2.979,236.763 2.457 C 235.858 1.906,234.993 1.757,232.694 1.756 C 230.568 1.755,229.631 1.611,229.248 1.228 C 228.859 0.839,227.906 0.702,225.589 0.702 C 223.734 0.702,222.456 0.559,222.456 0.351 C 222.456 0.121,214.795 0.000,200.175 0.000 C 185.556 0.000,177.895 0.121,177.895 0.351 M211.454 101.579 C 211.854 101.979,212.854 102.105,215.639 102.105 C 218.533 102.105,219.298 102.208,219.298 102.594 C 219.298 103.228,220.070 103.509,221.808 103.509 C 222.585 103.509,223.442 103.743,223.734 104.035 C 224.060 104.361,224.921 104.561,225.990 104.561 C 226.941 104.561,227.719 104.719,227.719 104.912 C 227.719 105.105,228.509 105.263,229.474 105.263 C 230.984 105.263,231.228 105.359,231.228 105.953 C 231.228 106.514,231.550 106.685,232.961 106.872 C 233.931 107.001,234.776 107.315,234.880 107.586 C 235.000 107.899,235.628 108.070,236.656 108.070 C 237.835 108.070,238.246 108.206,238.246 108.596 C 238.246 108.947,238.596 109.123,239.298 109.123 C 239.964 109.123,240.351 109.302,240.351 109.612 C 240.351 110.141,241.086 110.526,242.096 110.526 C 242.446 110.526,242.823 110.763,242.934 111.053 C 243.052 111.360,243.578 111.579,244.200 111.579 C 244.911 111.579,245.263 111.753,245.263 112.105 C 245.263 112.456,245.614 112.632,246.316 112.632 C 246.933 112.632,247.368 112.816,247.368 113.078 C 247.368 113.323,248.118 113.915,249.035 114.393 C 249.952 114.872,250.828 115.461,250.982 115.702 C 251.137 115.943,251.729 116.140,252.298 116.140 C 252.867 116.140,253.333 116.312,253.333 116.523 C 253.333 117.095,254.781 118.181,255.877 118.432 C 256.408 118.553,256.842 118.877,256.842 119.151 C 256.842 119.425,257.079 119.649,257.368 119.649 C 257.658 119.649,257.895 119.886,257.895 120.175 C 257.895 120.468,258.207 120.702,258.596 120.702 C 258.982 120.702,259.298 120.926,259.298 121.200 C 259.298 121.474,259.759 121.800,260.322 121.923 C 260.884 122.047,261.432 122.375,261.539 122.653 C 261.645 122.931,261.974 123.158,262.270 123.158 C 262.565 123.158,262.807 123.395,262.807 123.684 C 262.807 123.974,263.044 124.211,263.333 124.211 C 263.623 124.211,263.860 124.403,263.860 124.638 C 263.860 125.098,265.530 126.667,266.019 126.667 C 266.182 126.667,266.316 126.904,266.316 127.193 C 266.316 127.482,266.474 127.719,266.667 127.719 C 266.860 127.719,267.333 128.035,267.719 128.421 C 268.105 128.807,268.737 129.123,269.123 129.123 C 269.594 129.123,269.825 129.357,269.825 129.836 C 269.825 130.228,270.061 130.639,270.351 130.750 C 270.640 130.861,270.877 131.251,270.877 131.616 C 270.877 131.982,271.114 132.281,271.404 132.281 C 271.693 132.281,271.930 132.518,271.930 132.807 C 271.930 133.099,272.242 133.333,272.632 133.333 C 273.099 133.333,273.333 133.567,273.333 134.035 C 273.333 134.425,273.567 134.737,273.860 134.737 C 274.149 134.737,274.386 134.887,274.386 135.070 C 274.386 135.553,275.975 137.193,276.444 137.193 C 276.663 137.193,276.842 137.435,276.842 137.730 C 276.842 138.026,277.079 138.359,277.368 138.470 C 277.658 138.581,277.895 139.049,277.895 139.511 C 277.895 140.024,278.100 140.351,278.421 140.351 C 278.713 140.351,278.947 140.663,278.947 141.053 C 278.947 141.520,279.181 141.754,279.649 141.754 C 280.117 141.754,280.351 141.988,280.351 142.456 C 280.351 142.846,280.585 143.158,280.877 143.158 C 281.228 143.158,281.404 143.509,281.404 144.211 C 281.404 144.912,281.579 145.263,281.930 145.263 C 282.219 145.263,282.456 145.515,282.456 145.822 C 282.456 146.130,282.772 146.464,283.158 146.565 C 283.655 146.695,283.860 147.044,283.860 147.760 C 283.860 148.426,284.040 148.772,284.386 148.772 C 284.737 148.772,284.912 149.123,284.912 149.825 C 284.912 150.526,285.088 150.877,285.439 150.877 C 285.731 150.877,285.965 151.189,285.965 151.579 C 285.965 152.047,286.199 152.281,286.667 152.281 C 287.235 152.281,287.368 152.515,287.368 153.509 C 287.368 154.366,287.527 154.737,287.895 154.737 C 288.247 154.737,288.421 155.089,288.421 155.800 C 288.421 156.422,288.640 156.948,288.947 157.066 C 289.247 157.181,289.474 157.705,289.474 158.283 C 289.474 158.841,289.789 159.614,290.175 160.000 C 290.565 160.390,290.877 161.170,290.877 161.754 C 290.877 162.456,291.053 162.807,291.404 162.807 C 291.781 162.807,291.930 163.192,291.930 164.168 C 291.930 164.949,292.154 165.714,292.456 165.965 C 292.746 166.205,292.982 166.856,292.982 167.411 C 292.982 168.187,293.145 168.421,293.684 168.421 C 294.314 168.421,294.386 168.655,294.386 170.713 C 294.386 172.426,294.519 173.055,294.912 173.206 C 295.288 173.351,295.439 173.938,295.439 175.258 C 295.439 176.474,295.619 177.257,295.965 177.544 C 296.332 177.849,296.491 178.657,296.491 180.218 C 296.491 182.222,296.565 182.456,297.193 182.456 C 297.860 182.456,297.895 182.690,297.895 187.193 C 297.895 191.170,297.979 191.930,298.421 191.930 C 298.872 191.930,298.947 192.978,298.947 199.261 C 298.947 205.453,298.866 206.623,298.421 206.794 C 297.992 206.958,297.895 207.803,297.895 211.352 C 297.895 215.413,297.847 215.720,297.193 215.891 C 296.564 216.056,296.491 216.370,296.491 218.915 C 296.491 221.205,296.389 221.754,295.965 221.754 C 295.551 221.754,295.439 222.242,295.439 224.035 C 295.439 225.828,295.326 226.316,294.912 226.316 C 294.516 226.316,294.386 226.740,294.386 228.029 C 294.386 229.448,294.265 229.774,293.684 229.926 C 293.111 230.076,292.982 230.405,292.982 231.722 C 292.982 232.920,292.848 233.333,292.456 233.333 C 292.092 233.333,291.930 233.700,291.930 234.524 C 291.930 235.258,291.728 235.792,291.404 235.916 C 291.043 236.055,290.877 236.619,290.877 237.708 C 290.877 239.064,290.774 239.298,290.175 239.298 C 289.607 239.298,289.474 239.532,289.474 240.526 C 289.474 241.384,289.315 241.754,288.947 241.754 C 288.596 241.754,288.421 242.105,288.421 242.807 C 288.421 243.509,288.246 243.860,287.895 243.860 C 287.527 243.860,287.368 244.230,287.368 245.088 C 287.368 246.082,287.235 246.316,286.667 246.316 C 286.099 246.316,285.965 246.550,285.965 247.544 C 285.965 248.402,285.806 248.772,285.439 248.772 C 285.149 248.772,284.912 249.009,284.912 249.298 C 284.912 249.588,284.675 249.825,284.386 249.825 C 284.018 249.825,283.860 250.195,283.860 251.053 C 283.860 252.047,283.726 252.281,283.158 252.281 C 282.612 252.281,282.456 252.515,282.456 253.333 C 282.456 254.035,282.281 254.386,281.930 254.386 C 281.637 254.386,281.404 254.698,281.404 255.088 C 281.404 255.478,281.170 255.789,280.877 255.789 C 280.588 255.789,280.351 256.008,280.351 256.275 C 280.351 256.542,280.035 256.843,279.649 256.944 C 279.138 257.077,278.947 257.422,278.947 258.213 C 278.947 258.944,278.775 259.298,278.421 259.298 C 278.132 259.298,277.895 259.535,277.895 259.825 C 277.895 260.114,277.658 260.351,277.368 260.351 C 277.079 260.351,276.842 260.569,276.842 260.836 C 276.842 261.103,276.526 261.404,276.140 261.505 C 275.754 261.606,275.439 261.940,275.439 262.248 C 275.439 262.555,275.202 262.807,274.912 262.807 C 274.623 262.807,274.386 263.027,274.386 263.296 C 274.386 263.565,274.149 263.875,273.860 263.987 C 273.552 264.105,273.333 264.630,273.333 265.252 C 273.333 266.082,273.179 266.316,272.632 266.316 C 272.242 266.316,271.930 266.550,271.930 266.842 C 271.930 267.132,271.693 267.368,271.404 267.368 C 271.114 267.368,270.877 267.605,270.877 267.895 C 270.877 268.184,270.640 268.421,270.351 268.421 C 270.058 268.421,269.825 268.733,269.825 269.123 C 269.825 269.591,269.591 269.825,269.123 269.825 C 268.733 269.825,268.421 270.058,268.421 270.351 C 268.421 270.640,268.184 270.877,267.895 270.877 C 267.605 270.877,267.368 271.114,267.368 271.404 C 267.368 271.693,267.132 271.930,266.842 271.930 C 266.550 271.930,266.316 272.242,266.316 272.632 C 266.316 273.179,266.082 273.333,265.252 273.333 C 264.630 273.333,264.105 273.552,263.987 273.860 C 263.875 274.149,263.565 274.386,263.296 274.386 C 263.027 274.386,262.807 274.604,262.807 274.871 C 262.807 275.138,262.491 275.439,262.105 275.540 C 261.719 275.641,261.404 275.975,261.404 276.283 C 261.404 276.590,261.167 276.842,260.877 276.842 C 260.588 276.842,260.351 277.079,260.351 277.368 C 260.351 277.658,260.114 277.895,259.825 277.895 C 259.535 277.895,259.298 278.132,259.298 278.421 C 259.298 278.775,258.944 278.947,258.213 278.947 C 257.422 278.947,257.077 279.138,256.944 279.649 C 256.843 280.035,256.542 280.351,256.275 280.351 C 256.008 280.351,255.789 280.588,255.789 280.877 C 255.789 281.229,255.437 281.404,254.726 281.404 C 254.104 281.404,253.578 281.622,253.460 281.930 C 253.349 282.219,253.038 282.456,252.769 282.456 C 252.501 282.456,252.281 282.772,252.281 283.158 C 252.281 283.726,252.047 283.860,251.053 283.860 C 250.195 283.860,249.825 284.018,249.825 284.386 C 249.825 284.733,249.478 284.912,248.809 284.912 C 248.231 284.912,247.708 285.139,247.592 285.439 C 247.481 285.728,247.149 285.965,246.853 285.965 C 246.558 285.965,246.316 286.185,246.316 286.454 C 246.316 286.990,245.578 287.368,244.533 287.368 C 244.163 287.368,243.860 287.605,243.860 287.895 C 243.860 288.276,243.469 288.421,242.445 288.421 C 241.511 288.421,240.962 288.600,240.829 288.947 C 240.718 289.237,240.205 289.474,239.690 289.474 C 239.174 289.474,238.482 289.789,238.152 290.175 C 237.821 290.561,237.222 290.877,236.820 290.877 C 236.419 290.877,235.853 291.114,235.564 291.404 C 235.274 291.693,234.417 291.930,233.659 291.930 C 232.668 291.930,232.281 292.078,232.281 292.456 C 232.281 292.833,231.896 292.982,230.920 292.982 C 230.172 292.982,229.374 293.206,229.148 293.478 C 228.922 293.751,227.955 294.082,227.000 294.213 C 226.045 294.344,225.263 294.579,225.263 294.735 C 225.263 294.891,224.285 295.132,223.091 295.271 C 221.896 295.410,220.700 295.741,220.434 296.007 C 220.099 296.342,219.041 296.491,217.010 296.491 C 214.906 296.491,213.990 296.627,213.789 296.967 C 213.176 298.009,185.965 298.005,185.965 296.963 C 185.965 296.606,185.259 296.491,183.061 296.491 C 181.139 296.491,179.919 296.325,179.455 296.000 C 179.069 295.730,177.848 295.396,176.740 295.257 C 175.633 295.119,174.647 294.875,174.549 294.716 C 174.450 294.557,173.628 294.315,172.722 294.180 C 171.817 294.044,170.862 293.719,170.600 293.457 C 170.339 293.196,169.579 292.982,168.911 292.982 C 168.156 292.982,167.621 292.784,167.495 292.456 C 167.365 292.117,166.823 291.930,165.970 291.930 C 165.243 291.930,164.464 291.709,164.241 291.440 C 164.018 291.171,163.303 290.851,162.653 290.729 C 162.003 290.607,161.382 290.275,161.273 289.990 C 161.161 289.698,160.629 289.474,160.049 289.474 C 159.460 289.474,158.936 289.249,158.820 288.947 C 158.695 288.621,158.161 288.421,157.417 288.421 C 156.673 288.421,156.139 288.221,156.013 287.895 C 155.902 287.605,155.417 287.368,154.936 287.368 C 154.419 287.368,153.906 287.081,153.684 286.667 C 153.478 286.281,153.072 285.965,152.784 285.965 C 152.495 285.965,152.168 285.728,152.057 285.439 C 151.946 285.149,151.477 284.912,151.015 284.912 C 150.503 284.912,150.175 284.707,150.175 284.386 C 150.175 284.022,149.810 283.860,148.988 283.860 C 148.096 283.860,147.756 283.685,147.618 283.158 C 147.517 282.772,147.182 282.456,146.875 282.456 C 146.567 282.456,146.316 282.219,146.316 281.930 C 146.316 281.579,145.965 281.404,145.263 281.404 C 144.561 281.404,144.211 281.228,144.211 280.877 C 144.211 280.588,143.984 280.351,143.708 280.351 C 143.431 280.351,143.105 280.035,142.982 279.649 C 142.826 279.158,142.452 278.947,141.731 278.947 C 141.050 278.947,140.702 278.769,140.702 278.421 C 140.702 278.132,140.465 277.895,140.175 277.895 C 139.886 277.895,139.649 277.658,139.649 277.368 C 139.649 277.076,139.337 276.842,138.947 276.842 C 138.539 276.842,138.246 276.608,138.246 276.283 C 138.246 275.975,137.930 275.641,137.544 275.540 C 137.158 275.439,136.842 275.138,136.842 274.871 C 136.842 274.604,136.622 274.386,136.353 274.386 C 136.085 274.386,135.774 274.149,135.663 273.860 C 135.552 273.570,135.061 273.333,134.572 273.333 C 133.918 273.333,133.684 273.149,133.684 272.632 C 133.684 272.242,133.450 271.930,133.158 271.930 C 132.868 271.930,132.632 271.693,132.632 271.404 C 132.632 271.114,132.395 270.877,132.105 270.877 C 131.816 270.877,131.579 270.640,131.579 270.351 C 131.579 270.058,131.267 269.825,130.877 269.825 C 130.409 269.825,130.175 269.591,130.175 269.123 C 130.175 268.733,129.942 268.421,129.649 268.421 C 129.360 268.421,129.123 268.184,129.123 267.895 C 129.123 267.605,128.886 267.368,128.596 267.368 C 128.307 267.368,128.070 267.132,128.070 266.842 C 128.070 266.550,127.758 266.316,127.368 266.316 C 126.901 266.316,126.667 266.082,126.667 265.614 C 126.667 265.228,126.351 264.596,125.965 264.211 C 125.579 263.825,125.263 263.351,125.263 263.158 C 125.263 262.965,125.026 262.807,124.737 262.807 C 124.447 262.807,124.211 262.565,124.211 262.270 C 124.211 261.974,123.974 261.641,123.684 261.530 C 123.395 261.419,123.158 261.108,123.158 260.840 C 123.158 260.571,122.921 260.351,122.632 260.351 C 122.342 260.351,122.105 260.114,122.105 259.825 C 122.105 259.535,121.868 259.298,121.579 259.298 C 121.287 259.298,121.053 258.986,121.053 258.596 C 121.053 258.211,120.737 257.579,120.351 257.193 C 119.965 256.807,119.649 256.333,119.649 256.140 C 119.649 255.947,119.412 255.789,119.123 255.789 C 118.830 255.789,118.596 255.478,118.596 255.088 C 118.596 254.698,118.363 254.386,118.070 254.386 C 117.738 254.386,117.544 254.051,117.544 253.476 C 117.544 252.861,117.316 252.506,116.842 252.382 C 116.396 252.266,116.140 251.904,116.140 251.388 C 116.140 250.941,115.904 250.340,115.614 250.050 C 115.325 249.761,115.088 249.355,115.088 249.148 C 115.088 248.941,114.851 248.772,114.561 248.772 C 114.272 248.772,114.035 248.469,114.035 248.099 C 114.035 247.053,113.657 246.316,113.120 246.316 C 112.810 246.316,112.632 245.927,112.632 245.252 C 112.632 244.630,112.413 244.105,112.105 243.987 C 111.805 243.871,111.579 243.348,111.579 242.769 C 111.579 242.101,111.399 241.754,111.053 241.754 C 110.698 241.754,110.526 241.400,110.526 240.669 C 110.526 239.879,110.336 239.534,109.825 239.400 C 109.308 239.265,109.123 238.921,109.123 238.096 C 109.123 237.480,108.891 236.670,108.608 236.295 C 108.324 235.921,108.087 235.188,108.081 234.667 C 108.075 234.145,107.857 233.593,107.597 233.438 C 107.337 233.284,107.025 232.527,106.903 231.756 C 106.782 230.984,106.442 230.177,106.148 229.962 C 105.818 229.721,105.614 229.014,105.614 228.108 C 105.614 227.131,105.439 226.578,105.088 226.443 C 104.703 226.295,104.561 225.689,104.561 224.190 C 104.561 222.814,104.402 222.048,104.076 221.860 C 103.755 221.674,103.542 220.703,103.448 218.997 C 103.343 217.082,103.151 216.301,102.706 215.976 C 102.206 215.610,102.105 214.925,102.103 211.891 C 102.102 209.343,101.943 207.943,101.577 207.241 C 100.874 205.893,100.797 192.073,101.491 191.843 C 101.804 191.739,101.963 190.383,102.045 187.110 C 102.149 182.933,102.220 182.508,102.834 182.347 C 103.405 182.198,103.509 181.848,103.509 180.062 C 103.509 178.783,103.668 177.900,103.913 177.819 C 104.135 177.745,104.393 176.745,104.486 175.596 C 104.579 174.448,104.809 173.410,104.996 173.290 C 105.184 173.169,105.421 172.025,105.523 170.746 C 105.681 168.779,105.811 168.421,106.364 168.421 C 106.819 168.421,107.018 168.167,107.018 167.584 C 107.018 167.124,107.253 166.295,107.542 165.742 C 107.830 165.189,108.067 164.320,108.068 163.809 C 108.069 163.299,108.307 162.791,108.596 162.680 C 108.904 162.562,109.123 162.036,109.123 161.415 C 109.123 160.830,109.241 160.350,109.386 160.348 C 109.734 160.345,110.526 158.617,110.526 157.862 C 110.526 157.535,110.763 157.177,111.053 157.066 C 111.354 156.950,111.579 156.426,111.579 155.838 C 111.579 155.250,111.803 154.726,112.105 154.610 C 112.413 154.492,112.632 153.966,112.632 153.344 C 112.632 152.605,112.802 152.281,113.191 152.281 C 113.498 152.281,113.830 151.976,113.927 151.603 C 114.025 151.231,114.326 150.841,114.596 150.737 C 114.866 150.633,115.088 150.166,115.088 149.698 C 115.088 149.230,115.325 148.756,115.614 148.645 C 115.904 148.534,116.140 148.054,116.140 147.579 C 116.140 147.022,116.390 146.635,116.842 146.491 C 117.228 146.369,117.544 146.059,117.544 145.803 C 117.544 145.548,117.781 145.247,118.070 145.136 C 118.360 145.025,118.596 144.552,118.596 144.084 C 118.596 143.616,118.833 143.142,119.123 143.031 C 119.412 142.920,119.649 142.587,119.649 142.292 C 119.649 141.996,119.901 141.754,120.208 141.754 C 120.516 141.754,120.847 141.450,120.945 141.077 C 121.042 140.704,121.343 140.315,121.614 140.211 C 121.884 140.107,122.105 139.718,122.105 139.347 C 122.105 138.975,122.342 138.581,122.632 138.470 C 122.921 138.359,123.158 138.026,123.158 137.730 C 123.158 137.435,123.293 137.193,123.458 137.193 C 123.878 137.193,125.614 135.542,125.614 135.142 C 125.614 134.960,125.851 134.721,126.140 134.610 C 126.430 134.499,126.667 134.166,126.667 133.871 C 126.667 133.575,126.904 133.333,127.193 133.333 C 127.482 133.333,127.719 133.096,127.719 132.807 C 127.719 132.518,127.956 132.281,128.246 132.281 C 128.535 132.281,128.772 132.039,128.772 131.743 C 128.772 131.448,128.995 131.121,129.267 131.016 C 129.539 130.912,129.854 130.456,129.968 130.003 C 130.107 129.448,130.519 129.103,131.228 128.947 C 131.807 128.820,132.281 128.492,132.281 128.218 C 132.281 127.944,132.425 127.719,132.601 127.719 C 132.778 127.719,133.491 127.167,134.187 126.491 C 134.882 125.816,135.606 125.263,135.796 125.263 C 135.985 125.263,136.140 125.105,136.140 124.912 C 136.140 124.499,137.422 123.158,137.817 123.158 C 137.967 123.158,138.360 122.842,138.691 122.456 C 139.021 122.070,139.513 121.754,139.784 121.754 C 140.054 121.754,140.367 121.518,140.478 121.228 C 140.589 120.939,140.922 120.702,141.217 120.702 C 141.513 120.702,141.754 120.465,141.754 120.175 C 141.754 119.886,141.956 119.649,142.203 119.649 C 142.449 119.649,142.921 119.333,143.252 118.947 C 143.582 118.561,144.114 118.246,144.432 118.246 C 144.751 118.246,145.464 117.772,146.018 117.193 C 146.571 116.614,147.343 116.140,147.733 116.140 C 148.124 116.140,148.528 115.918,148.633 115.646 C 148.737 115.374,149.220 115.051,149.705 114.930 C 150.617 114.701,151.213 114.300,152.208 113.246 C 152.527 112.908,153.152 112.632,153.598 112.632 C 154.043 112.632,154.499 112.395,154.610 112.105 C 154.726 111.803,155.250 111.579,155.838 111.579 C 156.426 111.579,156.950 111.354,157.066 111.053 C 157.177 110.763,157.569 110.526,157.936 110.526 C 158.303 110.526,158.874 110.211,159.204 109.825 C 159.535 109.439,160.170 109.123,160.615 109.123 C 161.061 109.123,161.516 108.886,161.627 108.596 C 161.764 108.242,162.320 108.070,163.333 108.070 C 164.346 108.070,164.903 107.898,165.039 107.544 C 165.150 107.254,165.601 107.015,166.042 107.013 C 167.536 107.004,168.421 106.599,168.421 105.924 C 168.421 105.365,168.691 105.263,170.175 105.263 C 171.140 105.263,171.930 105.105,171.930 104.912 C 171.930 104.719,172.689 104.561,173.617 104.561 C 174.558 104.561,175.606 104.333,175.986 104.046 C 176.360 103.763,177.339 103.526,178.161 103.520 C 179.212 103.512,179.834 103.300,180.257 102.807 C 180.786 102.190,181.292 102.105,184.475 102.105 C 187.367 102.105,188.133 102.000,188.294 101.579 C 188.468 101.126,190.066 101.053,199.712 101.053 C 209.213 101.053,211.008 101.133,211.454 101.579 " stroke="none" fill="#000000" fill-rule="evenodd"></path></g></svg>