<svg id="svg" xmlns="http://www.w3.org/2000/svg" xmlns:xlink="http://www.w3.org/1999/xlink" width="400" height="404.162724692526" viewBox="0, 0, 400,404.162724692526"><g id="svgg"><path id="path0" d="M71.523 1.431 C 68.990 2.683,67.878 5.307,67.514 10.887 C 67.213 15.514,67.918 16.827,72.280 19.759 L 75.497 21.921 76.971 20.327 C 81.617 15.300,82.302 5.860,78.310 1.868 C 76.442 -0.001,74.654 -0.116,71.523 1.431 M199.622 20.621 C 199.413 20.691,198.802 20.844,198.262 20.962 C 194.630 21.756,192.604 27.396,195.103 29.753 C 200.444 34.789,208.413 30.356,205.253 24.106 C 203.584 20.804,202.004 19.826,199.622 20.621 M51.125 24.269 C 50.001 24.456,48.170 25.129,47.057 25.766 L 45.033 26.924 45.033 29.204 C 45.033 34.885,49.585 37.432,57.788 36.340 C 65.063 35.372,65.824 34.636,65.302 29.068 L 65.035 26.215 63.265 25.395 C 60.163 23.957,55.569 23.531,51.125 24.269 M88.616 24.191 C 84.838 24.660,84.234 25.483,84.074 30.380 L 83.948 34.255 85.740 35.126 C 89.478 36.942,97.827 36.951,101.549 35.142 L 103.311 34.286 103.311 30.742 C 103.311 26.722,103.097 26.131,101.226 24.974 C 99.709 24.036,93.144 23.629,88.616 24.191 M258.467 37.336 C 256.015 37.716,254.286 38.383,253.790 39.140 C 253.491 39.596,252.091 40.640,250.678 41.460 C 244.240 45.198,241.924 49.191,241.212 57.778 C 239.691 76.123,259.399 86.577,275.423 75.924 C 283.567 70.510,286.834 56.008,281.371 49.516 C 280.826 48.868,280.028 47.637,279.599 46.780 C 278.313 44.218,277.791 43.768,270.434 38.890 C 268.123 37.357,262.794 36.665,258.467 37.336 M73.983 38.938 C 73.359 39.331,71.589 40.933,70.052 42.499 L 67.255 45.346 67.684 49.855 C 68.413 57.538,70.403 60.170,75.482 60.170 C 80.387 60.170,82.577 49.061,78.989 42.384 C 76.580 37.900,76.128 37.589,73.983 38.938 M267.587 53.273 C 270.931 56.570,270.956 56.608,270.953 58.477 C 270.947 64.234,267.445 67.428,261.781 66.841 C 251.402 65.765,250.627 55.049,260.629 50.895 C 263.780 49.586,263.882 49.621,267.587 53.273 M324.693 66.239 C 320.816 66.770,318.754 67.362,318.043 68.148 C 317.681 68.547,317.188 68.874,316.947 68.874 C 316.706 68.874,316.134 69.381,315.676 70.001 C 315.218 70.621,313.947 71.701,312.852 72.402 C 309.050 74.834,303.297 82.206,302.158 86.105 C 301.220 89.319,296.021 93.981,290.001 97.007 C 288.508 97.758,286.124 99.410,284.703 100.679 C 283.282 101.948,281.097 103.588,279.849 104.324 C 278.600 105.059,277.442 105.899,277.275 106.189 C 276.783 107.049,275.445 106.798,273.156 105.418 C 271.948 104.689,269.414 103.697,267.376 103.155 C 263.036 102.000,260.113 100.795,259.824 100.043 C 259.397 98.930,255.008 97.685,245.979 96.114 C 242.849 95.570,240.289 94.866,238.411 94.032 C 229.447 90.052,191.244 89.412,181.085 93.071 C 180.041 93.447,178.165 94.135,176.916 94.599 C 175.667 95.064,171.673 96.020,168.040 96.724 C 160.195 98.246,159.483 98.462,157.572 99.904 C 156.702 100.560,154.136 101.650,151.284 102.573 C 148.635 103.432,145.910 104.539,145.229 105.033 C 143.279 106.451,139.255 108.470,137.107 109.108 C 135.997 109.437,134.079 110.506,132.700 111.563 C 131.357 112.592,128.862 114.178,127.156 115.087 C 125.450 115.996,123.182 117.484,122.117 118.393 C 121.052 119.302,119.252 120.570,118.117 121.211 C 116.982 121.851,115.017 123.327,113.750 124.490 C 112.484 125.653,110.255 127.555,108.798 128.717 C 105.889 131.037,96.250 140.109,95.395 141.332 C 95.100 141.755,93.981 143.037,92.908 144.182 C 91.836 145.326,90.641 146.774,90.253 147.398 C 89.866 148.023,88.759 149.470,87.794 150.615 C 86.830 151.760,85.303 153.803,84.401 155.156 C 83.500 156.509,82.160 158.365,81.423 159.281 C 80.686 160.197,79.296 162.496,78.334 164.390 C 77.372 166.284,75.987 168.616,75.256 169.572 C 74.526 170.529,73.195 172.998,72.299 175.060 C 71.403 177.121,69.920 180.197,69.003 181.895 C 68.087 183.594,66.931 186.318,66.435 187.950 C 65.939 189.582,64.501 193.898,63.241 197.540 C 60.667 204.974,58.212 217.374,56.746 230.342 C 56.333 233.999,55.802 237.755,55.567 238.688 C 54.870 241.456,56.269 258.841,57.932 268.075 C 58.348 270.388,59.189 275.133,59.801 278.620 C 60.558 282.934,61.349 286.077,62.278 288.459 C 63.028 290.384,63.868 292.725,64.143 293.661 C 64.418 294.598,65.017 296.196,65.475 297.213 C 66.977 300.555,65.627 302.362,60.453 303.934 C 59.024 304.368,57.056 305.284,56.079 305.969 C 55.103 306.655,53.198 307.856,51.845 308.638 C 49.032 310.265,43.382 315.893,41.616 318.827 C 40.990 319.868,39.711 321.821,38.774 323.167 C 37.837 324.513,36.915 326.216,36.725 326.951 C 36.536 327.686,36.186 329.031,35.950 329.941 C 35.038 333.440,30.646 336.535,23.601 338.643 C 17.297 340.529,15.713 341.556,9.995 347.467 C 6.646 350.929,6.300 351.462,3.421 357.616 C 2.983 358.553,2.372 359.774,2.062 360.331 C 0.308 363.488,0.675 376.060,2.641 380.132 C 3.243 381.381,4.160 383.539,4.678 384.928 C 6.166 388.914,8.480 392.099,11.301 394.040 C 12.236 394.683,13.931 396.052,15.069 397.082 C 17.708 399.472,19.136 400.085,26.407 401.951 L 32.356 403.477 59.981 403.663 C 75.175 403.765,99.101 403.675,113.150 403.464 L 138.694 403.079 144.513 401.561 C 151.214 399.812,153.362 398.852,156.378 396.256 C 157.632 395.176,160.234 393.583,162.552 392.476 L 166.559 390.562 167.962 391.490 C 172.338 394.386,181.179 395.268,205.866 395.269 C 233.087 395.270,242.677 394.576,248.021 392.218 C 253.480 389.809,255.672 389.074,259.237 388.456 C 262.923 387.816,265.279 386.829,267.666 384.925 C 268.466 384.287,270.682 383.251,272.646 382.596 C 274.693 381.914,277.093 380.781,278.340 379.907 C 279.526 379.076,282.047 377.618,283.941 376.667 C 285.836 375.715,288.925 373.831,290.807 372.480 C 292.689 371.129,294.863 369.699,295.639 369.304 C 296.414 368.908,297.947 367.813,299.045 366.871 C 301.583 364.692,301.676 364.620,302.695 364.075 C 306.206 362.196,318.495 350.349,323.940 343.594 C 326.331 340.627,329.055 337.332,329.994 336.271 C 332.407 333.544,337.838 325.503,339.987 321.476 C 340.987 319.603,342.188 317.559,342.656 316.935 C 343.765 315.455,345.383 312.244,346.462 309.380 C 346.935 308.123,348.097 305.563,349.045 303.690 C 349.992 301.816,351.475 297.900,352.341 294.986 C 353.207 292.072,354.245 288.956,354.648 288.063 C 356.110 284.816,358.241 274.170,359.133 265.658 C 359.384 263.264,359.834 259.773,360.134 257.900 C 361.362 250.209,361.472 248.634,361.272 241.627 C 361.137 236.944,360.798 232.920,360.297 230.085 C 359.874 227.692,359.174 222.923,358.742 219.489 C 357.536 209.913,356.433 204.904,354.408 199.811 C 353.705 198.042,352.832 195.353,352.469 193.836 L 351.808 191.077 358.213 184.533 C 366.499 176.066,369.331 172.333,369.922 169.099 C 370.290 167.084,372.005 165.574,376.321 163.463 C 383.195 160.101,391.822 152.160,394.370 146.848 C 400.362 134.360,401.321 124.881,397.416 116.746 C 396.617 115.080,395.195 112.100,394.257 110.123 C 392.487 106.397,390.839 104.068,389.969 104.068 C 389.692 104.068,389.108 103.489,388.670 102.780 C 387.913 101.556,386.171 99.895,383.842 98.177 C 383.259 97.747,381.646 96.918,380.259 96.336 C 375.689 94.419,371.708 90.755,369.306 86.255 C 368.184 84.153,366.360 81.305,365.254 79.927 C 364.147 78.548,362.985 76.988,362.672 76.459 C 362.358 75.930,360.992 74.645,359.635 73.605 C 358.279 72.564,356.478 71.151,355.634 70.466 C 353.273 68.549,350.937 67.297,348.589 66.691 C 346.046 66.035,328.598 65.705,324.693 66.239 M20.458 75.383 C 18.201 76.585,16.728 81.770,18.112 83.642 C 18.557 84.245,18.921 84.973,18.921 85.260 C 18.921 87.787,25.592 86.904,28.508 83.992 L 30.337 82.165 28.743 79.102 C 27.866 77.417,26.808 75.856,26.390 75.633 C 25.175 74.982,21.501 74.828,20.458 75.383 M343.535 79.102 C 346.366 79.763,348.456 80.992,351.635 83.866 C 353.335 85.403,354.874 86.660,355.056 86.660 C 355.548 86.660,357.029 90.214,358.387 94.655 C 360.123 100.332,362.916 103.682,365.921 103.693 C 367.256 103.698,370.104 105.083,374.392 107.812 C 376.389 109.083,378.193 110.123,378.399 110.123 C 378.771 110.123,380.652 112.467,381.939 114.533 C 382.308 115.125,383.208 116.547,383.940 117.692 C 387.592 123.406,387.790 133.584,384.351 138.884 C 381.217 143.714,380.211 144.956,377.674 147.125 C 374.180 150.112,372.821 150.820,369.915 151.166 C 364.078 151.861,361.153 154.888,358.017 163.480 C 355.146 171.348,347.700 177.580,338.621 179.715 C 331.424 181.407,317.412 174.097,314.034 166.887 C 312.565 163.752,309.555 156.318,309.555 155.826 C 309.555 154.350,306.643 152.789,301.532 151.524 C 296.447 150.266,294.160 148.678,289.385 143.091 C 288.386 141.922,287.166 140.510,286.674 139.953 C 284.344 137.316,284.230 122.304,286.508 117.990 C 288.179 114.826,292.078 110.575,294.733 109.025 C 296.156 108.194,297.539 107.250,297.807 106.926 C 298.076 106.603,298.509 106.339,298.770 106.339 C 299.031 106.339,299.438 106.106,299.673 105.823 C 299.909 105.539,301.335 104.921,302.842 104.449 C 308.789 102.587,309.859 101.682,311.123 97.446 C 312.599 92.498,317.950 84.011,319.593 84.011 C 319.872 84.011,320.206 83.678,320.335 83.271 C 321.509 79.573,335.098 77.131,343.535 79.102 M214.749 104.074 C 225.320 104.630,228.099 105.048,233.842 106.948 C 237.351 108.109,240.044 108.743,242.546 108.996 C 248.446 109.595,252.629 110.689,254.610 112.150 C 255.290 112.652,258.346 113.891,261.402 114.904 C 270.410 117.890,271.449 119.382,272.081 130.234 C 272.466 136.832,273.239 141.009,274.465 143.114 C 277.811 148.857,279.171 150.836,281.867 153.884 C 283.549 155.786,285.766 157.859,286.793 158.491 C 287.820 159.123,289.466 160.255,290.451 161.007 C 291.436 161.759,293.966 163.189,296.073 164.185 C 300.552 166.303,300.509 166.260,301.814 169.928 C 304.730 178.129,312.053 185.814,319.794 188.796 C 321.344 189.393,323.718 190.486,325.071 191.226 C 326.690 192.112,328.630 192.776,330.747 193.172 C 338.860 194.687,339.456 195.155,342.131 202.126 C 345.854 211.827,349.796 240.803,348.739 250.710 C 347.338 263.851,344.096 282.009,342.555 285.343 C 341.928 286.699,340.796 289.594,340.039 291.776 C 339.281 293.958,337.625 297.956,336.357 300.662 C 335.090 303.368,333.497 306.898,332.817 308.506 C 332.138 310.114,330.990 312.242,330.266 313.236 C 329.543 314.230,328.388 316.064,327.699 317.313 C 327.011 318.562,325.408 320.946,324.137 322.611 C 322.866 324.276,321.236 326.637,320.516 327.856 C 316.279 335.027,298.158 352.257,288.677 358.129 C 287.081 359.118,285.037 360.575,284.136 361.367 C 283.235 362.158,282.072 362.938,281.552 363.099 C 279.857 363.622,276.421 365.479,274.663 366.822 C 272.400 368.549,271.952 368.774,268.037 370.145 C 266.208 370.786,263.179 372.125,261.306 373.122 C 257.485 375.154,255.201 375.964,251.775 376.500 C 250.488 376.701,248.359 377.318,247.045 377.870 C 238.384 381.510,228.739 382.713,208.136 382.722 C 192.497 382.729,180.892 381.867,175.523 380.298 C 170.750 378.903,169.809 377.029,168.947 367.195 C 168.064 357.117,164.365 350.048,156.589 343.577 C 153.159 340.723,145.164 337.550,139.524 336.805 C 132.999 335.944,129.202 334.384,126.172 331.321 C 124.919 330.053,123.002 328.736,120.685 327.549 C 118.726 326.545,116.159 325.136,114.980 324.418 C 113.646 323.605,111.448 322.767,109.162 322.201 C 104.750 321.108,103.407 320.334,101.633 317.865 C 100.892 316.833,100.041 315.989,99.742 315.989 C 99.444 315.989,99.095 315.659,98.967 315.256 C 98.620 314.162,94.604 310.593,91.887 308.962 C 89.283 307.400,82.518 302.569,80.949 301.150 C 80.273 300.539,79.522 298.913,78.537 295.922 C 77.750 293.534,76.528 290.166,75.822 288.438 C 74.397 284.951,72.359 276.674,71.144 269.442 C 70.707 266.840,70.077 263.775,69.745 262.630 C 68.168 257.205,68.696 229.088,70.548 219.868 C 71.112 217.058,71.998 212.572,72.517 209.899 C 73.440 205.140,74.213 202.708,76.987 195.837 C 77.744 193.964,78.992 190.814,79.761 188.836 C 80.530 186.859,81.296 185.182,81.464 185.110 C 81.839 184.950,85.147 178.419,85.147 177.839 C 85.147 177.611,86.195 175.777,87.475 173.764 C 89.993 169.807,91.094 168.016,91.967 166.457 C 92.723 165.107,98.134 158.152,100.473 155.524 C 101.514 154.354,103.333 152.218,104.515 150.776 C 108.313 146.147,119.503 135.678,123.573 132.947 C 124.397 132.394,125.922 131.178,126.963 130.246 C 128.004 129.313,129.792 128.122,130.937 127.599 C 132.081 127.076,134.465 125.683,136.235 124.505 C 138.004 123.327,140.814 121.722,142.479 120.938 C 144.144 120.154,146.187 118.959,147.020 118.282 C 148.486 117.090,152.006 115.725,154.832 115.254 C 155.590 115.127,158.010 114.096,160.210 112.963 C 164.640 110.682,168.297 109.612,173.699 109.019 C 177.523 108.599,181.975 107.552,184.997 106.360 C 190.739 104.097,200.671 103.334,214.749 104.074 M191.485 145.581 C 186.509 145.876,184.301 146.441,180.585 148.367 C 178.077 149.667,175.958 150.457,173.888 150.864 C 170.455 151.541,166.104 153.401,163.974 155.104 C 163.183 155.737,161.341 156.739,159.880 157.331 C 158.420 157.923,156.291 159.093,155.150 159.931 C 154.009 160.770,151.728 162.360,150.082 163.466 C 148.437 164.572,146.129 166.348,144.954 167.412 C 143.778 168.476,142.013 169.900,141.031 170.575 C 140.048 171.251,139.095 172.198,138.911 172.680 C 138.592 173.521,137.031 175.006,134.929 176.470 C 134.384 176.849,133.481 177.871,132.921 178.741 C 132.361 179.610,131.109 181.208,130.139 182.291 C 129.169 183.374,127.682 185.523,126.835 187.066 C 125.988 188.609,124.841 190.412,124.285 191.073 C 122.128 193.636,115.843 206.938,114.434 211.921 C 113.699 214.522,112.696 217.673,112.204 218.921 C 108.747 227.711,107.893 250.419,110.528 263.482 C 111.555 268.569,116.171 282.122,117.937 285.234 C 118.737 286.643,119.748 288.647,120.184 289.688 C 121.524 292.887,122.649 294.897,124.314 297.067 C 125.192 298.212,126.458 300.128,127.127 301.324 C 127.796 302.521,129.150 304.394,130.136 305.487 C 131.122 306.580,132.290 308.071,132.731 308.801 C 135.146 312.794,149.813 325.659,154.588 327.973 C 156.045 328.679,158.269 329.986,159.531 330.878 C 160.996 331.913,163.318 333.012,165.964 333.921 C 168.241 334.704,171.211 335.970,172.564 336.734 C 176.300 338.844,176.892 339.041,181.981 339.868 C 184.579 340.290,188.759 341.068,191.271 341.597 C 199.031 343.230,220.830 342.882,229.071 340.993 C 230.773 340.603,233.955 339.992,236.140 339.636 C 240.559 338.915,242.130 338.378,243.713 337.046 C 244.303 336.550,246.118 335.667,247.747 335.085 C 249.377 334.503,251.604 333.703,252.696 333.306 C 253.789 332.910,256.258 331.548,258.184 330.281 C 260.109 329.014,262.274 327.795,262.994 327.571 C 263.715 327.348,265.333 326.208,266.589 325.039 C 267.846 323.870,269.629 322.440,270.551 321.862 C 272.837 320.431,282.705 310.737,285.198 307.474 C 286.312 306.017,287.912 303.974,288.755 302.933 C 289.597 301.892,290.558 300.530,290.889 299.905 C 291.220 299.281,292.259 297.748,293.198 296.500 C 294.138 295.251,295.410 293.122,296.026 291.769 C 296.641 290.416,298.230 287.010,299.555 284.201 C 301.905 279.219,302.385 277.764,305.169 267.171 C 309.827 249.450,308.705 230.398,301.748 209.082 C 300.539 205.377,296.333 196.591,294.405 193.743 C 293.625 192.591,292.116 190.173,291.051 188.370 C 289.385 185.550,288.472 184.297,285.611 180.907 C 285.356 180.604,284.636 179.645,284.011 178.776 C 283.387 177.906,282.025 176.523,280.984 175.701 C 279.943 174.879,278.604 173.502,278.008 172.640 C 277.412 171.779,276.390 170.754,275.737 170.362 C 274.740 169.764,271.298 166.907,269.032 164.797 C 268.702 164.490,268.259 164.238,268.047 164.238 C 267.522 164.238,263.006 161.234,261.857 160.120 C 261.346 159.625,259.492 158.548,257.739 157.728 C 255.985 156.907,253.845 155.751,252.983 155.158 C 250.006 153.110,246.842 151.759,242.760 150.795 C 239.948 150.130,237.997 149.416,236.539 148.516 C 233.659 146.738,230.478 146.116,222.138 145.697 C 215.640 145.371,196.248 145.298,191.485 145.581 M19.204 146.106 C 17.210 146.576,14.431 148.046,12.524 149.639 C 11.632 150.384,10.687 150.993,10.424 150.993 C 9.072 150.993,6.050 154.461,2.164 160.469 C -0.613 164.762,-0.009 175.209,3.305 180.198 C 4.089 181.379,5.381 183.381,6.175 184.648 C 7.144 186.192,8.080 187.178,9.014 187.638 C 9.780 188.015,11.867 189.120,13.652 190.093 C 19.838 193.463,28.102 194.551,30.201 192.270 C 31.147 191.242,34.234 189.295,37.525 187.651 C 39.573 186.628,40.992 184.683,43.819 179.021 L 46.358 173.936 46.358 169.147 L 46.358 164.358 43.726 159.150 C 41.019 153.793,40.131 152.730,37.414 151.595 C 36.680 151.288,35.860 150.772,35.591 150.448 C 35.321 150.123,34.867 149.858,34.580 149.858 C 34.293 149.858,34.059 149.700,34.059 149.507 C 34.059 147.314,23.924 144.994,19.204 146.106 M201.798 159.602 L 203.595 160.412 203.595 179.035 L 203.595 197.658 202.563 199.018 C 199.032 203.673,197.955 204.383,192.108 205.917 C 189.831 206.515,187.233 207.370,186.335 207.819 L 184.702 208.634 181.767 207.291 C 178.588 205.835,175.806 203.746,174.455 201.798 C 173.985 201.121,173.415 200.568,173.187 200.568 C 172.960 200.568,171.321 199.065,169.546 197.228 C 167.772 195.391,164.276 191.938,161.779 189.554 C 156.825 184.826,151.866 179.077,152.375 178.653 C 152.552 178.506,154.144 177.097,155.913 175.523 C 159.574 172.266,162.539 170.275,165.424 169.138 C 166.520 168.706,168.049 167.782,168.822 167.084 C 170.761 165.331,171.149 165.161,175.808 164.016 C 180.310 162.910,182.563 162.053,184.250 160.806 C 187.391 158.484,197.740 157.774,201.798 159.602 M228.780 159.352 C 230.187 159.787,232.802 160.784,234.591 161.567 C 238.391 163.232,240.780 164.022,243.840 164.627 C 245.423 164.940,246.447 165.419,247.435 166.311 C 248.196 166.997,250.643 168.556,252.874 169.777 C 255.496 171.211,258.415 173.257,261.125 175.560 L 265.319 179.124 263.270 181.237 C 262.143 182.399,260.678 184.158,260.015 185.147 C 259.352 186.135,258.641 186.944,258.435 186.944 C 258.229 186.944,255.088 189.882,251.456 193.472 C 247.823 197.062,244.211 200.621,243.428 201.380 C 242.646 202.139,241.429 203.392,240.725 204.164 C 240.020 204.937,238.828 205.821,238.076 206.130 C 237.323 206.438,235.890 207.209,234.891 207.844 L 233.073 208.997 231.106 208.010 C 230.024 207.467,227.606 206.610,225.733 206.106 C 217.105 203.783,217.493 205.004,217.314 179.556 L 217.176 159.869 218.806 159.243 C 221.176 158.333,225.638 158.382,228.780 159.352 M27.567 159.856 C 28.224 160.196,28.761 160.608,28.761 160.771 C 28.761 160.935,29.995 162.409,31.504 164.047 C 35.596 168.487,35.382 170.858,30.382 176.445 C 27.430 179.743,27.534 179.695,23.273 179.724 L 19.868 179.747 16.556 176.692 L 13.245 173.636 13.245 169.740 L 13.245 165.844 16.334 162.755 C 18.033 161.056,19.693 159.496,20.024 159.288 C 20.900 158.736,26.169 159.133,27.567 159.856 M144.915 191.996 C 146.073 192.901,147.405 193.844,147.875 194.092 C 151.848 196.188,172.939 219.186,172.943 221.427 C 172.945 222.347,167.875 232.024,166.698 233.345 L 165.563 234.621 146.641 234.712 C 123.178 234.825,123.936 234.979,123.021 229.932 C 122.577 227.488,123.066 225.402,125.557 219.111 C 126.175 217.550,126.798 215.676,126.942 214.948 C 127.567 211.770,128.800 208.712,130.514 206.086 C 131.527 204.533,132.473 202.798,132.616 202.229 C 133.290 199.543,140.768 190.350,142.279 190.350 C 142.571 190.350,143.757 191.091,144.915 191.996 M277.050 191.541 C 277.516 192.195,278.899 193.856,280.122 195.230 C 283.606 199.144,289.441 211.214,291.246 218.240 C 291.984 221.113,293.029 224.455,293.568 225.668 L 294.548 227.874 293.704 230.495 C 292.297 234.863,290.937 235.084,266.429 234.919 L 251.118 234.816 249.262 231.599 C 248.242 229.830,246.481 226.805,245.349 224.878 C 244.123 222.791,243.406 221.183,243.576 220.904 C 244.804 218.884,249.261 213.302,250.759 211.907 C 251.772 210.964,256.234 206.668,260.673 202.362 C 265.703 197.482,269.624 194.004,271.080 193.130 C 272.364 192.359,273.821 191.419,274.318 191.039 C 275.575 190.079,276.074 190.171,277.050 191.541 M212.488 216.443 C 213.737 216.639,216.798 217.361,219.291 218.049 L 223.823 219.300 228.097 223.426 C 235.574 230.645,237.046 233.979,237.051 243.709 C 237.055 251.785,235.646 256.760,232.245 260.678 C 231.161 261.926,229.962 263.396,229.580 263.943 C 229.199 264.490,227.496 265.878,225.796 267.026 C 224.096 268.175,222.125 269.531,221.414 270.039 C 215.585 274.211,200.324 273.775,194.513 269.272 C 193.368 268.385,191.903 267.388,191.258 267.056 C 186.800 264.767,181.998 257.692,180.728 251.542 C 178.307 239.823,180.693 231.705,189.182 222.771 C 193.523 218.202,204.568 215.203,212.488 216.443 M282.876 248.295 C 288.197 248.713,292.297 249.428,293.946 250.226 C 295.387 250.923,295.462 255.798,294.090 259.554 C 293.605 260.880,292.390 264.967,291.389 268.636 C 289.275 276.384,288.180 279.464,287.185 280.460 C 286.792 280.852,286.471 281.268,286.471 281.383 C 286.471 282.203,283.418 288.529,282.281 290.066 C 275.458 299.288,273.889 299.102,262.346 287.701 C 258.132 283.537,254.683 279.976,254.683 279.788 C 254.683 279.599,254.215 279.151,253.642 278.793 C 253.070 278.434,250.728 276.358,248.439 274.179 L 244.276 270.218 244.316 267.996 C 244.348 266.253,244.689 265.050,245.903 262.405 C 246.754 260.551,247.888 257.502,248.422 255.629 C 249.789 250.840,250.105 250.180,251.340 249.542 C 254.882 247.710,268.566 247.169,282.876 248.295 M163.028 248.809 C 167.019 249.741,167.432 250.232,168.775 255.629 C 169.397 258.127,170.500 261.618,171.228 263.387 C 173.631 269.230,173.717 269.086,159.854 282.508 C 146.677 295.266,144.934 296.689,142.479 296.689 C 140.257 296.689,136.803 293.503,134.365 289.204 C 129.118 279.953,128.689 278.998,125.397 269.253 C 119.684 252.339,120.481 249.025,130.452 248.248 C 137.721 247.681,159.829 248.062,163.028 248.809 M187.627 280.361 C 189.021 280.955,190.806 281.880,191.594 282.416 C 192.382 282.952,195.036 284.173,197.493 285.128 C 199.949 286.084,202.284 287.103,202.682 287.394 C 203.838 288.239,203.806 324.926,202.649 326.206 C 200.478 328.608,196.775 329.182,190.161 328.141 C 188.496 327.879,185.511 327.446,183.528 327.180 C 179.820 326.681,177.887 325.959,174.711 323.890 C 173.706 323.236,171.333 322.124,169.438 321.419 C 167.435 320.675,165.114 319.468,163.893 318.537 C 162.738 317.656,160.853 316.366,159.704 315.671 C 154.838 312.726,151.887 306.185,154.906 305.037 C 155.393 304.852,156.260 304.133,156.834 303.438 C 158.631 301.263,178.353 282.270,179.943 281.184 C 183.073 279.046,184.247 278.920,187.627 280.361 M236.467 281.066 C 240.220 283.643,261.048 303.884,262.228 306.101 C 263.831 309.113,260.741 314.958,257.081 315.837 C 256.491 315.979,255.156 316.813,254.115 317.691 C 251.791 319.651,250.126 320.502,245.979 321.848 C 244.108 322.456,242.288 323.328,241.627 323.933 C 239.663 325.733,235.833 326.797,226.690 328.084 C 223.677 328.508,221.105 328.855,220.973 328.855 C 220.841 328.855,219.942 328.251,218.976 327.513 L 217.219 326.172 217.219 306.695 L 217.219 287.219 219.301 285.887 C 220.446 285.154,221.681 284.446,222.044 284.312 C 222.408 284.179,223.728 283.382,224.976 282.540 C 229.954 279.184,233.132 278.776,236.467 281.066 M76.256 316.166 C 79.657 316.817,82.574 318.068,84.407 319.661 C 85.126 320.286,86.447 321.256,87.342 321.816 C 88.237 322.376,89.429 323.586,89.991 324.505 C 90.553 325.425,91.412 326.837,91.901 327.643 C 94.736 332.324,98.919 335.266,102.759 335.280 C 108.817 335.302,118.421 340.209,120.522 344.355 C 123.192 349.624,124.465 350.227,133.018 350.272 C 141.481 350.316,150.615 352.657,150.615 354.780 C 150.615 355.068,151.695 356.574,153.015 358.127 C 158.250 364.288,158.427 375.211,153.387 381.114 C 152.427 382.239,151.240 383.795,150.750 384.571 C 149.602 386.389,148.064 387.147,142.074 388.846 L 137.181 390.234 108.420 390.576 C 91.251 390.781,70.203 390.781,56.197 390.576 L 32.734 390.234 28.643 389.056 C 21.385 386.968,19.863 385.748,15.922 378.854 C 12.144 372.245,12.367 364.526,16.483 359.401 C 17.188 358.523,18.105 357.183,18.522 356.422 C 20.662 352.512,28.643 349.789,36.708 350.217 C 44.506 350.632,47.648 347.514,47.673 339.335 C 47.697 331.350,48.636 329.188,54.789 322.935 C 61.667 315.947,66.744 314.346,76.256 316.166 " stroke="none" fill="#000000" fill-rule="evenodd"></path></g></svg>