<svg id="svg" xmlns="http://www.w3.org/2000/svg" xmlns:xlink="http://www.w3.org/1999/xlink" width="400" height="390.2941176470588" viewBox="0, 0, 400,390.2941176470588"><g id="svgg"><path id="path0" d="M135.034 0.630 C 131.603 0.989,129.072 1.615,126.324 2.785 C 123.844 3.840,120.719 4.753,117.820 5.268 C 115.672 5.650,113.153 6.881,110.389 8.900 C 109.228 9.747,107.506 10.875,106.562 11.406 C 102.196 13.860,95.100 20.853,91.186 26.559 C 90.320 27.821,89.368 28.983,89.071 29.143 C 88.773 29.302,88.529 29.636,88.529 29.885 C 88.529 30.412,85.733 36.212,84.414 38.419 C 82.141 42.226,81.446 47.540,81.265 62.513 L 81.118 74.584 82.992 76.336 C 85.444 78.629,86.750 79.038,94.264 79.866 C 98.785 80.364,100.204 83.585,99.933 92.726 C 99.741 99.182,99.911 99.077,88.826 99.584 C 77.860 100.086,76.397 100.462,71.339 104.068 C 66.080 107.818,62.908 111.925,62.046 116.099 C 61.854 117.031,61.414 118.324,61.069 118.971 C 59.917 121.130,60.162 125.988,61.573 128.954 C 62.184 130.239,62.865 131.984,63.085 132.830 C 63.810 135.614,65.002 137.235,68.181 139.761 C 70.190 141.358,71.523 142.213,76.999 145.419 L 78.971 146.574 119.559 146.499 L 160.147 146.425 164.118 144.195 C 174.468 138.382,177.422 134.063,177.850 124.118 C 178.222 115.496,175.846 109.020,171.352 106.406 C 169.017 105.048,166.530 103.281,165.920 102.545 C 165.698 102.278,165.340 102.059,165.126 102.059 C 164.911 102.059,164.613 101.841,164.465 101.576 C 164.045 100.826,161.015 100.334,154.706 99.993 C 143.058 99.362,141.853 99.226,140.394 98.370 L 139.069 97.594 139.188 91.223 C 139.378 81.092,140.207 79.914,147.500 79.408 C 156.199 78.804,159.755 74.348,158.996 65.000 C 158.506 58.961,159.343 58.884,226.029 58.826 C 280.124 58.780,282.366 58.623,284.011 54.779 C 284.236 54.254,284.590 53.824,284.799 53.824 C 286.123 53.824,288.873 49.361,289.688 45.890 C 291.678 37.414,290.102 31.831,283.905 25.403 C 280.748 22.130,281.383 22.165,216.618 21.749 C 170.378 21.453,163.817 21.314,161.603 20.583 C 160.298 20.153,160.185 19.856,159.590 15.292 C 159.326 13.271,158.969 10.569,158.797 9.288 C 158.222 5.010,156.505 1.909,154.319 1.200 C 151.702 0.351,140.790 0.028,135.034 0.630 M30.888 11.984 C 25.159 14.872,26.842 31.036,32.866 30.983 C 38.538 30.933,41.606 25.954,40.176 19.118 C 39.229 14.593,37.700 12.729,34.401 12.080 C 33.403 11.884,32.435 11.666,32.250 11.596 C 32.064 11.526,31.451 11.700,30.888 11.984 M143.312 13.546 C 146.171 14.340,146.239 14.934,146.390 40.401 L 146.517 61.831 145.717 62.666 C 143.677 64.796,141.354 64.966,114.145 64.987 L 96.378 65.000 94.832 63.807 C 92.974 62.374,93.029 62.501,92.786 59.072 C 92.431 54.056,94.063 46.856,96.790 41.411 C 100.164 34.671,107.846 25.377,111.642 23.439 C 112.437 23.033,113.933 22.021,114.965 21.188 C 117.996 18.745,121.294 17.249,124.720 16.763 C 125.787 16.611,128.636 15.895,131.051 15.170 C 137.476 13.243,140.688 12.817,143.312 13.546 M275.845 35.824 C 278.929 38.317,278.986 43.176,275.955 45.189 C 274.366 46.245,270.850 46.311,215.441 46.317 L 162.794 46.324 161.491 45.588 C 157.724 43.462,158.076 37.022,162.059 35.191 C 163.139 34.694,187.586 34.515,234.559 34.661 L 274.559 34.785 275.845 35.824 M9.162 35.005 C 4.316 36.020,2.962 41.307,6.552 45.201 L 7.764 46.517 14.544 46.420 C 23.728 46.289,24.118 46.051,24.118 40.578 C 24.118 37.075,23.692 36.312,21.186 35.327 C 19.935 34.835,11.102 34.599,9.162 35.005 M47.405 35.138 C 43.367 36.054,42.313 37.242,42.107 41.111 C 41.935 44.354,43.627 45.635,49.240 46.512 C 58.515 47.961,65.442 42.401,61.153 36.949 C 59.672 35.066,52.113 34.071,47.405 35.138 M30.703 48.976 C 24.830 54.849,27.212 70.382,33.815 69.266 C 42.817 67.745,42.822 51.602,33.821 48.800 C 31.542 48.091,31.591 48.088,30.703 48.976 M371.912 71.141 C 369.814 72.105,368.824 73.876,368.824 76.662 C 368.824 81.665,372.706 83.605,377.587 81.040 L 379.706 79.927 379.706 78.213 C 379.706 72.432,376.142 69.199,371.912 71.141 M122.647 80.736 C 126.468 83.056,126.765 83.850,126.765 91.743 L 126.765 97.343 125.358 98.056 C 120.976 100.276,113.446 99.698,112.353 97.058 C 111.895 95.953,112.123 85.516,112.644 83.750 C 113.675 80.252,119.140 78.605,122.647 80.736 M282.745 81.592 C 279.403 82.230,276.862 83.198,275.361 84.406 C 265.555 92.293,262.806 104.904,268.764 114.665 C 269.838 116.424,273.782 121.176,274.168 121.176 C 274.277 121.176,274.741 121.490,275.198 121.874 C 277.734 124.002,286.453 125.869,290.949 125.246 C 297.205 124.379,300.320 123.030,304.028 119.585 C 309.881 114.146,313.228 100.482,309.847 95.827 C 309.457 95.291,308.654 93.926,308.062 92.794 C 305.226 87.376,299.986 82.747,295.588 81.774 C 293.107 81.225,285.250 81.114,282.745 81.592 M291.912 94.559 C 296.532 96.132,299.339 102.336,297.380 106.647 C 294.722 112.501,284.732 113.653,280.002 108.651 C 276.967 105.442,276.697 103.570,278.705 99.681 C 281.390 94.482,286.203 92.615,291.912 94.559 M156.057 112.883 C 161.065 113.229,164.229 116.093,165.038 121.011 C 165.631 124.620,163.633 130.588,161.832 130.588 C 161.602 130.588,160.297 131.316,158.932 132.206 L 156.450 133.824 119.667 133.824 L 82.884 133.824 80.517 132.592 C 73.180 128.775,70.931 122.964,74.857 117.966 C 75.583 117.043,76.176 116.143,76.176 115.968 C 76.176 115.623,77.774 114.140,79.040 113.309 C 79.472 113.026,80.625 112.706,81.604 112.599 C 83.878 112.349,152.104 112.609,156.057 112.883 M349.488 124.425 C 348.169 125.095,346.749 126.649,344.785 129.571 C 344.129 130.548,343.379 131.524,343.119 131.739 C 342.860 131.955,342.647 132.434,342.647 132.804 C 342.647 133.753,339.968 138.991,338.377 141.153 C 337.642 142.151,336.773 143.684,336.445 144.559 C 335.744 146.433,333.381 150.114,332.172 151.214 C 330.458 152.774,323.915 157.164,322.059 158.000 C 317.630 159.995,316.824 160.416,315.096 161.646 C 314.097 162.357,311.886 163.606,310.181 164.423 C 306.500 166.185,305.855 166.866,304.186 170.751 L 302.992 173.531 305.246 175.814 C 308.153 178.760,310.989 180.917,313.466 182.066 C 317.529 183.951,318.419 184.442,319.853 185.591 C 321.491 186.905,324.191 188.290,326.128 188.811 C 328.094 189.340,330.055 190.700,331.540 192.566 C 332.284 193.500,333.228 194.675,333.638 195.176 C 334.048 195.677,335.186 197.574,336.166 199.392 C 337.146 201.210,338.326 203.249,338.787 203.922 C 340.008 205.703,341.067 207.927,341.297 209.192 C 341.763 211.754,348.056 219.354,350.146 219.879 C 353.346 220.682,357.233 217.804,360.016 212.571 C 360.897 210.914,362.190 208.716,362.890 207.685 C 363.590 206.655,364.795 204.460,365.568 202.808 C 366.341 201.156,367.499 199.021,368.140 198.064 C 371.598 192.903,372.764 191.273,373.337 190.798 C 374.264 190.030,376.662 188.824,377.270 188.821 C 378.235 188.815,380.712 187.455,383.353 185.479 C 385.109 184.164,386.511 183.364,387.617 183.046 C 390.348 182.259,393.034 180.731,395.230 178.715 C 396.374 177.665,397.639 176.591,398.041 176.327 C 401.580 174.009,398.839 165.000,394.595 165.000 C 393.726 165.000,390.157 163.192,389.118 162.225 C 387.935 161.126,386.254 160.198,382.654 158.659 C 380.797 157.866,378.746 156.788,378.095 156.266 C 377.444 155.743,376.023 154.769,374.937 154.101 C 372.442 152.567,370.411 150.787,369.800 149.599 C 369.539 149.091,368.745 147.920,368.036 146.995 C 367.326 146.071,366.567 144.808,366.349 144.190 C 365.778 142.570,364.119 139.348,362.401 136.520 C 361.582 135.172,360.759 133.584,360.573 132.991 C 359.576 129.823,356.733 125.966,354.600 124.887 C 352.371 123.759,351.038 123.639,349.488 124.425 M352.578 148.061 C 354.926 149.789,356.735 151.716,357.927 153.760 C 361.124 159.238,365.581 164.111,368.051 164.829 C 370.851 165.643,374.977 168.969,377.722 172.625 L 378.478 173.633 377.160 174.639 C 376.436 175.193,375.045 175.970,374.070 176.366 C 371.907 177.245,369.015 178.978,367.136 180.521 C 366.365 181.154,365.074 182.043,364.265 182.499 C 362.146 183.691,360.877 185.145,359.314 188.172 C 357.021 192.610,352.388 198.235,351.025 198.235 C 350.356 198.235,349.009 196.664,347.909 194.600 C 346.883 192.677,342.798 186.255,341.731 184.889 C 341.368 184.424,340.068 183.309,338.844 182.412 C 337.619 181.515,336.126 180.346,335.525 179.813 C 333.896 178.368,332.403 177.499,328.968 175.994 C 324.354 173.973,324.360 173.589,329.078 169.041 C 331.827 166.391,332.972 165.655,335.525 164.898 C 338.178 164.112,341.272 161.506,342.562 158.971 C 342.973 158.162,344.019 156.490,344.886 155.256 C 345.752 154.022,346.711 152.434,347.016 151.727 C 347.609 150.353,350.187 146.765,350.581 146.765 C 350.711 146.765,351.610 147.348,352.578 148.061 M28.031 153.181 C 24.887 154.245,24.697 154.444,22.341 159.145 C 21.118 161.584,19.869 163.630,19.139 164.390 C 18.480 165.075,17.941 165.814,17.941 166.030 C 17.941 167.050,15.118 169.217,11.632 170.872 C 9.212 172.022,7.249 173.223,5.444 174.660 C 3.989 175.818,2.655 176.765,2.480 176.765 C 0.575 176.765,-0.495 183.392,1.067 185.512 C 1.822 186.535,4.430 188.128,6.230 188.664 C 7.758 189.119,10.403 190.713,12.206 192.264 C 12.853 192.821,14.239 193.830,15.286 194.506 C 16.356 195.197,17.741 196.443,18.450 197.353 C 19.143 198.243,20.107 199.421,20.591 199.971 C 21.075 200.521,21.472 201.117,21.474 201.294 C 21.483 202.054,24.444 208.183,25.291 209.196 C 27.973 212.402,33.031 212.448,34.923 209.283 C 36.177 207.187,38.356 203.521,39.190 202.106 C 39.634 201.352,40.282 199.969,40.631 199.032 C 41.309 197.207,43.245 195.163,45.279 194.125 C 45.853 193.831,47.146 192.986,48.151 192.246 C 50.850 190.258,52.893 189.184,54.708 188.801 C 58.542 187.991,60.927 182.564,59.157 178.676 C 58.342 176.884,51.604 171.474,49.469 170.897 C 46.267 170.031,42.215 165.967,39.532 160.931 C 38.083 158.212,35.084 154.396,33.487 153.238 C 31.968 152.138,31.138 152.130,28.031 153.181 M122.926 165.895 C 117.521 166.150,115.325 166.545,113.529 167.586 C 111.395 168.823,110.071 169.412,109.420 169.412 C 105.469 169.412,96.082 176.326,93.171 181.381 C 92.443 182.643,91.291 184.622,90.610 185.778 C 89.925 186.940,88.546 190.228,87.524 193.131 C 86.509 196.019,84.929 200.070,84.013 202.132 C 83.098 204.195,81.939 207.305,81.437 209.044 C 80.935 210.783,79.694 214.059,78.680 216.324 C 77.044 219.978,75.294 224.786,75.294 225.627 C 75.294 226.223,73.738 229.878,72.932 231.176 C 72.480 231.904,71.299 235.041,70.307 238.147 C 69.190 241.646,67.827 245.170,66.725 247.410 C 65.630 249.635,64.828 251.705,64.640 252.792 C 63.973 256.651,62.738 257.871,57.505 259.840 C 55.340 260.655,54.544 261.162,51.834 263.447 C 50.821 264.301,49.819 265.000,49.608 265.000 C 48.563 265.000,45.000 269.088,45.000 270.287 C 45.000 270.551,44.408 271.608,43.685 272.635 C 40.941 276.532,40.893 277.202,40.887 311.739 L 40.882 339.214 42.492 342.255 C 43.377 343.928,44.352 345.660,44.658 346.104 C 44.963 346.548,45.643 347.607,46.167 348.456 C 46.691 349.305,47.231 350.000,47.368 350.000 C 47.504 350.000,47.789 350.364,48.002 350.808 C 48.509 351.866,50.869 353.251,54.699 354.740 C 57.603 355.868,62.168 358.225,63.824 359.450 C 64.228 359.750,64.994 360.190,65.525 360.428 C 66.982 361.081,67.313 362.240,67.647 367.859 C 68.586 383.624,72.924 389.103,85.176 389.999 C 92.776 390.555,108.911 390.198,112.941 389.385 C 120.641 387.831,124.904 379.795,125.759 365.223 L 125.962 361.770 128.365 360.492 L 130.768 359.214 183.399 359.033 C 246.274 358.817,253.782 358.991,257.479 360.745 C 259.224 361.573,259.357 362.114,259.356 368.388 C 259.355 376.468,260.090 379.271,263.097 382.657 C 263.830 383.482,264.758 384.678,265.160 385.315 C 266.930 388.119,270.600 389.533,277.415 390.039 C 282.470 390.414,297.543 390.209,302.059 389.705 C 311.737 388.623,317.941 379.370,317.941 366.017 C 317.941 362.265,319.300 359.447,321.352 358.941 C 321.822 358.825,324.995 357.362,328.405 355.689 L 334.603 352.648 337.228 349.533 C 343.719 341.831,343.610 342.551,343.650 306.765 C 343.686 273.624,343.751 273.969,336.101 266.618 C 330.603 261.333,328.820 260.188,324.481 259.151 C 320.129 258.112,319.725 257.685,317.636 251.909 C 316.847 249.731,315.751 246.921,315.200 245.666 C 314.648 244.410,313.391 240.898,312.405 237.862 C 311.420 234.825,310.267 231.651,309.843 230.808 C 309.420 229.965,308.142 226.561,307.004 223.243 C 305.866 219.925,304.409 216.019,303.766 214.561 C 302.275 211.183,301.120 207.943,300.147 204.414 C 299.724 202.878,298.796 200.478,298.085 199.081 C 297.374 197.684,296.192 194.752,295.458 192.566 C 293.828 187.711,293.114 186.017,292.185 184.799 C 291.792 184.284,291.471 183.726,291.471 183.559 C 291.471 183.393,291.216 183.120,290.905 182.953 C 290.594 182.787,289.910 181.889,289.384 180.958 C 287.993 178.491,286.825 177.094,285.777 176.641 C 285.269 176.422,284.125 175.585,283.235 174.782 C 280.183 172.025,276.475 170.061,273.177 169.453 C 272.256 169.283,270.866 168.823,270.089 168.432 C 266.973 166.862,264.419 166.163,260.761 165.878 C 256.591 165.554,129.835 165.569,122.926 165.895 M33.135 175.262 C 36.517 177.979,38.087 179.895,37.544 180.645 C 36.569 181.990,35.657 183.408,34.875 184.792 C 31.860 190.127,26.192 188.508,23.419 181.518 C 22.353 178.832,23.125 177.903,28.558 175.336 C 31.628 173.886,31.427 173.889,33.135 175.262 M266.427 180.117 C 269.120 181.314,271.878 182.442,272.555 182.624 C 276.005 183.549,280.477 188.836,282.925 194.883 C 283.704 196.808,285.002 199.904,285.809 201.765 C 286.617 203.625,287.549 206.074,287.880 207.206 C 288.212 208.338,288.680 209.926,288.920 210.735 C 289.159 211.544,290.081 213.860,290.968 215.882 C 291.856 217.904,293.467 222.053,294.548 225.102 C 295.630 228.150,297.219 232.259,298.080 234.233 C 299.570 237.648,300.611 240.740,300.997 242.896 C 301.094 243.437,302.025 245.687,303.066 247.896 C 304.601 251.153,306.176 255.512,306.176 256.503 C 306.176 256.608,305.447 257.245,304.555 257.918 L 302.934 259.142 257.864 258.963 L 212.794 258.783 210.379 257.700 C 209.051 257.105,207.959 256.538,207.953 256.440 C 207.938 256.222,214.261 253.348,215.335 253.084 C 215.762 252.980,216.887 252.232,217.835 251.422 C 220.199 249.403,222.075 248.358,224.898 247.487 C 226.217 247.080,227.468 246.539,227.679 246.285 C 229.238 244.406,232.339 242.708,236.792 241.294 C 237.536 241.058,238.859 240.268,239.734 239.538 C 240.608 238.809,241.714 237.888,242.191 237.492 C 242.668 237.097,243.727 236.556,244.544 236.291 C 247.767 235.246,250.470 233.551,253.944 230.397 C 257.832 226.867,257.900 226.698,256.444 224.159 C 253.741 219.446,250.723 218.372,247.343 220.922 C 245.751 222.123,243.560 223.235,242.785 223.235 C 242.565 223.235,241.762 223.566,241.001 223.971 C 240.241 224.375,239.473 224.707,239.294 224.707 C 239.116 224.708,237.912 225.513,236.618 226.495 C 233.869 228.583,233.101 229.015,231.065 229.618 C 229.025 230.223,227.742 230.907,225.534 232.567 C 223.496 234.101,222.522 234.632,219.853 235.666 C 218.882 236.042,217.311 236.873,216.360 237.513 C 215.410 238.153,214.243 238.896,213.766 239.164 C 213.290 239.432,212.673 239.858,212.394 240.110 C 212.115 240.362,210.715 241.041,209.283 241.619 C 206.459 242.757,205.362 243.422,203.919 244.870 C 203.406 245.386,202.637 245.895,202.212 246.002 C 200.385 246.460,195.143 248.996,193.691 250.123 C 192.003 251.434,192.039 251.415,186.471 254.079 C 184.389 255.075,182.028 256.466,181.029 257.284 L 179.265 258.729 136.324 258.919 C 81.820 259.159,79.395 259.081,77.000 257.010 L 76.206 256.324 78.247 252.059 C 79.369 249.713,80.543 247.000,80.855 246.029 C 81.167 245.059,81.636 243.761,81.898 243.146 C 82.160 242.530,82.500 241.362,82.654 240.550 C 82.808 239.738,83.677 237.395,84.586 235.345 C 86.645 230.696,87.009 229.715,88.674 224.337 C 89.412 221.950,90.537 219.007,91.174 217.798 C 91.811 216.589,92.744 214.240,93.248 212.579 C 95.162 206.267,96.001 203.899,97.118 201.662 C 98.325 199.245,100.294 193.714,100.294 192.741 C 100.294 191.974,101.737 189.790,103.076 188.529 C 103.677 187.963,104.423 187.007,104.733 186.405 C 105.553 184.816,107.995 183.106,110.739 182.200 C 112.031 181.774,114.544 180.661,116.324 179.727 L 119.559 178.029 190.544 177.985 L 261.530 177.941 266.427 180.117 M307.984 272.022 L 322.879 272.206 324.896 273.586 C 327.792 275.568,329.184 277.060,330.334 279.412 C 330.831 280.427,331.069 323.396,330.623 331.628 C 330.150 340.368,329.986 340.689,325.000 342.639 L 321.912 343.847 303.382 344.157 C 280.446 344.540,95.670 344.290,75.970 343.849 C 61.612 343.527,59.683 343.311,58.644 341.911 C 58.464 341.669,58.105 341.471,57.845 341.471 C 56.462 341.471,54.154 338.301,53.308 335.240 C 52.768 333.288,52.634 281.363,53.167 280.437 C 53.927 279.116,58.336 274.172,59.550 273.280 L 61.013 272.206 68.374 272.047 C 78.783 271.822,289.976 271.800,307.984 272.022 M83.667 282.379 C 76.521 282.909,71.161 286.169,65.622 293.355 C 64.638 294.632,63.235 297.223,63.227 297.777 C 63.216 298.654,61.591 302.334,60.882 303.089 C 57.689 306.487,64.945 327.305,69.971 329.164 C 70.277 329.278,70.617 329.515,70.726 329.691 C 70.835 329.867,71.609 330.358,72.447 330.782 C 73.285 331.207,74.897 332.176,76.029 332.937 C 78.928 334.885,79.056 334.939,82.266 335.588 C 88.638 336.877,94.486 335.937,98.676 332.950 C 99.971 332.027,101.735 330.894,102.596 330.430 C 104.337 329.494,108.551 325.257,110.179 322.804 C 112.938 318.649,114.420 309.255,113.242 303.382 C 113.048 302.412,112.729 300.739,112.535 299.665 C 111.919 296.272,106.679 289.853,101.156 285.727 C 97.360 282.891,91.614 281.791,83.667 282.379 M292.500 282.393 C 283.884 283.061,280.731 284.752,274.484 292.058 C 267.536 300.186,267.176 317.000,273.789 324.585 C 274.622 325.541,275.900 327.008,276.628 327.844 C 277.492 328.835,278.822 329.852,280.455 330.769 C 281.831 331.541,283.318 332.549,283.758 333.008 C 287.705 337.120,299.594 337.174,306.047 333.108 C 307.674 332.082,309.660 330.912,310.459 330.507 C 314.927 328.242,320.681 319.060,321.517 312.859 C 322.665 304.347,319.516 294.616,314.005 289.646 C 307.818 284.067,305.856 283.107,299.412 282.504 C 298.360 282.405,297.103 282.284,296.618 282.234 C 296.132 282.184,294.279 282.256,292.500 282.393 M93.382 295.870 C 95.801 296.638,98.010 297.960,98.437 298.895 C 98.604 299.260,99.288 300.684,99.956 302.059 C 101.234 304.685,101.938 307.862,101.615 309.532 C 100.519 315.184,99.112 317.410,94.297 321.117 C 90.475 324.060,81.880 323.898,81.088 320.869 C 80.996 320.520,80.685 320.294,80.294 320.294 C 77.826 320.294,74.394 314.647,74.185 310.242 C 73.629 298.503,81.983 292.249,93.382 295.870 M300.082 295.433 C 302.462 295.937,304.914 297.200,305.179 298.058 C 305.285 298.398,306.092 299.705,306.974 300.962 C 312.156 308.345,310.047 316.241,301.541 321.303 C 297.175 323.902,289.935 323.875,288.654 321.255 C 288.478 320.894,287.430 319.923,286.326 319.098 C 283.002 316.613,282.147 314.819,281.852 309.706 C 281.245 299.210,289.054 293.096,300.082 295.433 M101.709 359.117 C 112.458 359.581,112.917 360.022,112.555 369.552 L 112.376 374.265 110.673 375.831 L 108.971 377.397 97.500 377.233 C 80.738 376.993,80.699 376.977,79.975 369.560 C 79.040 359.978,79.736 359.452,94.118 358.875 C 94.684 358.852,98.100 358.961,101.709 359.117 M298.235 359.438 C 304.643 360.225,305.511 361.323,305.173 368.220 C 304.772 376.417,304.489 376.646,294.172 377.119 C 280.512 377.745,273.672 376.972,272.480 374.667 C 270.949 371.706,271.194 362.282,272.840 360.818 C 274.759 359.111,289.186 358.327,298.235 359.438 " stroke="none" fill="#000000" fill-rule="evenodd"></path></g></svg>