<svg id="svg" xmlns="http://www.w3.org/2000/svg" xmlns:xlink="http://www.w3.org/1999/xlink" width="400" height="376.6258246936852" viewBox="0, 0, 400,376.6258246936852"><g id="svgg"><path id="path0" d="M203.662 1.127 C 199.702 2.924,199.976 8.689,204.120 10.754 C 210.316 13.842,214.649 8.718,211.307 2.255 C 210.273 0.257,206.731 -0.266,203.662 1.127 M309.015 4.546 C 304.328 5.090,302.847 6.146,290.594 17.683 C 287.421 20.670,284.232 23.706,283.506 24.429 C 282.780 25.152,281.462 26.440,280.575 27.292 C 279.689 28.144,276.549 31.216,273.597 34.119 C 270.646 37.022,267.554 39.893,266.726 40.501 C 265.899 41.108,264.504 42.253,263.628 43.045 C 261.684 44.802,261.273 44.823,259.473 43.250 C 258.695 42.569,257.342 41.532,256.466 40.943 C 255.590 40.355,254.318 39.110,253.639 38.177 C 250.991 34.540,244.775 30.984,240.473 30.645 C 236.158 30.305,228.432 35.166,226.172 39.644 C 223.413 45.110,223.333 48.831,225.875 53.438 C 228.187 57.625,228.292 61.554,226.144 63.444 C 225.386 64.111,223.918 65.940,222.880 67.509 C 221.843 69.078,220.047 71.538,218.890 72.975 C 217.733 74.413,216.784 75.784,216.781 76.021 C 216.760 78.003,210.311 81.085,204.722 81.786 C 196.697 82.792,191.329 88.679,189.609 98.359 C 188.815 102.830,188.166 103.812,184.920 105.454 C 183.883 105.978,182.271 106.958,181.338 107.630 C 180.405 108.302,178.030 109.648,176.060 110.620 C 174.090 111.592,171.546 113.109,170.405 113.991 C 169.265 114.873,167.399 116.045,166.258 116.596 C 165.118 117.146,162.963 118.578,161.469 119.778 C 159.976 120.979,158.033 122.385,157.153 122.903 C 156.273 123.421,154.526 124.701,153.271 125.748 C 152.016 126.794,150.226 128.175,149.293 128.818 C 148.360 129.460,147.172 130.446,146.654 131.008 C 143.990 133.899,139.374 135.931,136.396 135.523 C 131.779 134.890,131.433 134.681,125.172 128.727 C 120.123 123.926,119.556 123.571,113.855 121.638 C 105.726 118.882,104.551 118.840,96.598 121.022 C 87.790 123.439,80.965 129.701,77.251 138.775 C 75.106 144.015,74.925 144.191,70.071 145.731 C 65.840 147.073,58.058 152.908,58.058 154.738 C 58.058 154.965,57.366 155.988,56.520 157.013 C 51.959 162.531,50.749 172.905,53.393 183.815 C 53.770 185.372,51.272 186.497,46.804 186.783 C 40.088 187.213,35.437 188.319,34.119 189.798 C 33.704 190.264,32.394 191.278,31.208 192.053 C 27.406 194.535,22.554 200.589,22.006 203.532 C 21.866 204.285,21.438 205.503,21.056 206.240 C 17.523 213.042,21.894 228.839,28.578 233.422 C 29.552 234.089,31.176 235.201,32.187 235.892 C 33.198 236.583,34.509 237.554,35.099 238.051 C 36.733 239.426,38.042 239.704,45.799 240.322 C 51.842 240.804,53.220 241.029,54.658 241.769 C 56.307 242.618,57.163 243.921,56.071 243.921 C 55.777 243.921,55.213 244.278,54.818 244.715 C 54.423 245.152,53.421 245.855,52.592 246.277 C 51.762 246.699,50.432 247.601,49.636 248.282 C 48.839 248.962,46.973 250.156,45.489 250.934 C 43.621 251.914,41.790 253.349,39.544 255.592 C 33.617 261.512,33.863 259.999,33.655 291.763 C 33.425 326.996,33.666 329.676,37.449 333.926 C 38.520 335.130,39.955 336.823,40.638 337.689 C 41.379 338.629,42.724 339.676,43.978 340.290 C 45.133 340.855,46.766 341.892,47.607 342.595 C 49.712 344.353,50.975 344.949,53.456 345.352 C 54.880 345.584,56.228 346.143,57.537 347.045 L 59.492 348.391 59.624 356.382 C 59.779 365.819,60.016 366.572,64.304 371.265 C 68.847 376.237,69.839 376.446,88.784 376.411 C 107.890 376.375,108.708 376.179,113.164 370.566 C 116.530 366.325,116.837 365.299,117.418 356.357 C 117.961 347.979,117.934 348.097,119.633 346.937 L 120.876 346.089 179.665 346.101 C 236.189 346.113,244.313 346.252,247.681 347.261 C 250.426 348.084,250.490 348.277,250.755 356.589 C 251.282 373.109,254.567 375.805,275.018 376.495 C 301.742 377.398,307.226 373.984,307.963 355.991 C 308.304 347.675,308.192 347.952,311.868 346.310 C 327.053 339.527,332.057 334.488,334.041 323.984 C 334.647 320.772,334.966 280.748,334.444 273.233 C 333.707 262.597,330.124 255.670,323.370 251.818 C 321.869 250.962,319.708 249.623,318.567 248.842 C 317.427 248.062,316.070 247.291,315.551 247.130 C 313.341 246.445,310.458 243.936,309.481 241.847 C 309.093 241.018,308.625 240.085,308.442 239.774 C 307.660 238.446,306.503 235.554,306.503 234.926 C 306.503 234.006,303.789 226.472,302.614 224.128 C 302.094 223.091,300.793 219.712,299.723 216.618 C 298.653 213.525,296.951 209.163,295.941 206.925 C 294.932 204.687,293.939 201.956,293.736 200.856 C 293.307 198.535,292.150 195.463,290.874 193.254 C 290.382 192.403,289.355 189.670,288.593 187.182 C 287.830 184.694,286.475 181.046,285.583 179.076 C 284.690 177.107,283.421 173.951,282.762 172.063 C 281.195 167.569,280.535 166.540,276.731 162.664 C 272.937 158.797,273.323 159.023,266.918 156.913 L 261.828 155.236 239.020 154.922 C 197.876 154.356,202.653 154.806,198.221 151.074 L 196.330 149.482 196.501 145.621 C 196.622 142.870,196.839 141.570,197.254 141.097 C 197.575 140.732,197.965 140.009,198.120 139.491 C 200.958 130.036,206.691 126.870,213.676 130.903 C 220.066 134.592,222.578 134.355,229.839 129.382 C 233.706 126.734,234.454 126.011,235.095 124.301 C 235.345 123.636,236.060 121.694,236.684 119.987 C 238.827 114.130,239.845 112.970,244.901 110.624 C 246.875 109.707,249.059 108.524,249.754 107.993 C 250.449 107.463,252.517 106.441,254.350 105.722 C 256.182 105.003,258.572 103.973,259.661 103.433 L 261.640 102.452 263.431 103.216 C 264.416 103.636,266.070 104.230,267.107 104.535 C 268.143 104.841,270.058 105.541,271.361 106.090 C 275.827 107.974,279.256 108.371,281.705 107.287 C 282.850 106.781,284.444 106.248,285.248 106.102 C 293.162 104.668,296.236 91.106,290.496 82.960 C 288.523 80.161,287.381 77.368,287.047 74.528 L 286.814 72.541 297.061 62.566 C 302.697 57.080,307.848 52.308,308.508 51.960 C 314.886 48.603,314.445 48.523,317.256 53.534 C 318.245 55.297,319.652 57.672,320.382 58.812 C 321.112 59.953,322.349 62.375,323.130 64.195 C 323.911 66.015,325.166 68.343,325.918 69.368 C 327.294 71.242,329.877 76.726,329.877 77.773 C 329.877 78.082,330.554 79.153,331.381 80.154 C 332.208 81.154,333.660 83.760,334.608 85.944 C 335.556 88.128,337.090 91.028,338.017 92.388 C 338.945 93.748,340.215 96.123,340.841 97.666 C 341.468 99.209,342.895 101.998,344.014 103.864 C 345.134 105.730,346.162 107.725,346.299 108.298 C 346.437 108.870,346.700 109.431,346.884 109.545 C 347.069 109.659,347.220 110.073,347.220 110.465 C 347.220 110.858,347.432 111.314,347.691 111.480 C 348.240 111.832,349.290 113.705,352.723 120.452 C 354.094 123.148,355.590 125.862,356.046 126.484 C 356.503 127.107,357.169 128.379,357.526 129.312 C 357.883 130.245,358.920 132.366,359.831 134.025 C 360.741 135.683,362.408 138.923,363.536 141.224 C 364.663 143.524,366.256 146.408,367.076 147.633 C 367.895 148.857,369.016 150.641,369.565 151.598 C 373.962 159.247,387.356 161.436,393.553 155.516 C 400.235 149.133,401.677 141.035,397.321 134.343 C 396.490 133.066,395.070 130.352,394.165 128.311 C 393.259 126.270,391.558 122.772,390.385 120.540 C 389.211 118.307,387.921 115.541,387.518 114.394 C 387.115 113.248,386.119 111.333,385.304 110.140 C 383.951 108.157,381.150 102.234,381.150 101.355 C 381.150 101.152,380.744 100.446,380.248 99.786 C 379.252 98.462,376.132 92.344,375.694 90.858 C 375.541 90.339,374.689 88.728,373.801 87.276 C 372.912 85.825,371.656 83.365,371.010 81.810 C 370.363 80.254,369.239 77.964,368.511 76.720 C 366.912 73.988,363.808 67.589,363.808 67.026 C 363.808 66.804,363.123 65.539,362.287 64.214 C 360.868 61.967,358.153 56.269,358.153 55.537 C 358.153 55.358,357.362 53.943,356.395 52.394 C 355.428 50.844,353.894 47.879,352.986 45.806 C 352.078 43.732,350.653 40.905,349.819 39.522 C 348.985 38.140,347.975 36.149,347.576 35.099 C 346.322 31.797,344.394 28.058,343.577 27.340 C 343.336 27.129,342.679 25.768,342.116 24.317 C 338.962 16.183,332.814 8.118,327.824 5.567 C 325.661 4.462,314.808 3.873,309.015 4.546 M16.506 11.118 C 9.978 12.773,4.234 18.139,1.455 25.181 C -0.532 30.215,0.579 41.569,3.331 44.344 C 3.922 44.940,4.928 46.202,5.565 47.147 C 7.925 50.650,12.597 53.358,17.719 54.193 C 18.445 54.311,19.423 54.657,19.894 54.962 C 21.076 55.727,24.548 55.304,28.697 53.889 C 30.484 53.279,32.230 52.780,32.577 52.780 C 32.923 52.780,33.666 52.465,34.228 52.080 C 34.790 51.695,35.696 51.111,36.240 50.782 C 38.146 49.632,41.425 44.723,43.718 39.585 C 43.950 39.067,44.397 38.219,44.712 37.700 C 46.623 34.553,43.228 21.201,39.693 17.961 C 33.786 12.549,33.268 12.179,30.659 11.504 C 27.163 10.600,19.385 10.388,16.506 11.118 M135.472 16.163 C 134.469 16.966,133.156 18.147,132.556 18.786 L 131.464 19.949 131.669 23.829 C 132.025 30.552,133.667 33.503,137.242 33.846 C 140.612 34.170,141.909 32.691,143.059 27.214 C 144.202 21.768,143.572 19.144,140.423 16.242 C 138.357 14.337,137.766 14.328,135.472 16.163 M320.452 17.121 C 325.818 18.081,326.960 19.214,329.895 26.484 C 330.376 27.677,330.909 28.652,331.078 28.652 C 331.247 28.652,331.385 28.851,331.385 29.094 C 331.385 29.337,331.643 29.820,331.958 30.168 C 332.273 30.516,333.462 32.960,334.600 35.599 C 335.738 38.238,337.076 40.935,337.573 41.593 C 338.411 42.702,341.565 49.314,341.565 49.962 C 341.565 50.119,342.219 51.285,343.019 52.551 C 344.902 55.534,346.401 58.508,347.218 60.881 C 347.577 61.924,348.593 63.957,349.475 65.399 C 350.358 66.841,351.318 68.695,351.608 69.519 C 351.899 70.344,352.956 72.556,353.956 74.435 C 354.957 76.314,356.047 78.360,356.378 78.982 C 356.710 79.604,357.840 81.894,358.889 84.072 C 359.939 86.249,361.217 88.794,361.729 89.727 C 362.242 90.660,363.430 93.104,364.370 95.158 C 365.309 97.213,366.602 99.744,367.241 100.783 C 367.881 101.823,369.071 104.211,369.886 106.090 C 370.701 107.970,372.037 110.615,372.855 111.968 C 373.673 113.322,375.089 116.237,376.002 118.447 C 376.915 120.657,378.026 122.977,378.471 123.601 C 378.916 124.225,380.461 127.165,381.906 130.134 C 383.350 133.103,385.064 136.529,385.715 137.746 C 388.442 142.848,386.710 146.518,382.210 145.169 C 380.248 144.582,377.682 142.196,376.821 140.159 C 374.895 135.605,373.967 133.805,373.439 133.602 C 373.118 133.479,372.856 133.137,372.856 132.841 C 372.856 132.546,372.601 132.207,372.290 132.087 C 371.979 131.968,371.725 131.650,371.725 131.380 C 371.725 130.530,369.648 126.242,367.442 122.537 C 366.273 120.573,365.315 118.707,365.313 118.390 C 365.312 118.073,364.974 117.304,364.562 116.682 C 364.150 116.060,363.811 115.297,363.809 114.986 C 363.807 114.675,363.115 113.402,362.272 112.158 C 361.429 110.914,359.918 108.168,358.915 106.055 C 357.913 103.942,356.496 101.312,355.767 100.211 C 355.039 99.110,353.826 96.804,353.073 95.087 C 351.572 91.664,350.548 89.781,349.214 87.988 C 348.733 87.343,347.760 85.335,347.049 83.526 C 346.339 81.717,345.078 79.192,344.245 77.913 C 343.413 76.635,341.874 73.808,340.825 71.631 C 339.776 69.453,338.584 67.163,338.176 66.541 C 337.768 65.919,336.406 63.406,335.149 60.956 C 328.639 48.269,327.186 45.559,325.406 42.790 C 324.340 41.131,323.469 39.580,323.468 39.343 C 323.468 39.106,323.214 38.814,322.903 38.695 C 322.592 38.576,322.337 38.160,322.337 37.771 C 322.337 34.638,313.778 33.416,308.317 35.769 C 305.636 36.924,298.540 43.455,282.101 59.898 L 279.697 62.302 276.981 62.128 C 273.323 61.893,272.815 61.539,271.023 57.976 L 269.480 54.907 273.816 50.733 C 286.168 38.844,295.865 29.695,296.729 29.115 C 297.263 28.757,299.991 26.145,302.792 23.312 C 306.838 19.218,308.188 18.080,309.361 17.774 C 310.174 17.562,311.433 17.224,312.158 17.022 C 314.046 16.499,317.186 16.536,320.452 17.121 M25.474 23.552 C 33.145 25.841,34.782 36.391,28.106 40.518 C 23.985 43.066,14.887 41.168,13.327 37.434 C 10.023 29.526,17.366 21.133,25.474 23.552 M155.004 35.445 C 150.308 36.136,147.980 37.893,146.801 41.634 C 145.490 45.794,148.349 47.491,156.687 47.500 C 163.916 47.507,166.921 45.451,165.720 41.319 C 164.392 36.751,160.527 34.633,155.004 35.445 M114.420 36.030 C 111.424 37.585,108.654 42.005,109.377 44.078 C 110.651 47.734,124.494 48.870,127.775 45.588 C 132.948 40.415,121.609 32.299,114.420 36.030 M245.968 47.764 C 246.928 48.738,247.812 49.926,247.932 50.403 C 248.051 50.881,248.288 51.272,248.457 51.272 C 249.515 51.272,252.059 54.444,253.897 58.055 C 254.096 58.446,254.551 58.843,254.909 58.936 C 255.267 59.030,256.310 60.270,257.228 61.693 C 258.684 63.951,261.374 67.410,264.477 71.018 C 264.990 71.614,265.410 72.215,265.410 72.353 C 265.410 72.492,266.189 73.361,267.140 74.285 C 268.092 75.210,269.387 76.730,270.019 77.663 C 270.650 78.596,272.079 80.292,273.193 81.433 C 274.308 82.573,275.770 84.435,276.441 85.570 C 277.113 86.705,278.084 87.843,278.599 88.099 C 280.471 89.030,281.028 90.769,279.866 92.053 C 278.146 93.954,271.065 91.786,271.065 89.358 C 271.065 88.766,269.541 86.992,267.639 85.369 C 267.139 84.942,265.928 83.500,264.948 82.164 C 263.969 80.829,261.383 77.615,259.203 75.024 C 257.024 72.432,254.602 69.478,253.822 68.461 C 253.042 67.443,251.449 65.661,250.283 64.502 C 249.117 63.343,247.542 61.434,246.782 60.260 C 246.022 59.087,244.990 57.857,244.487 57.528 C 243.984 57.199,242.908 55.953,242.096 54.761 C 241.283 53.568,240.004 51.944,239.254 51.151 C 236.996 48.769,237.432 47.671,241.093 46.519 C 243.574 45.739,244.105 45.874,245.968 47.764 M136.195 52.067 C 130.194 53.818,129.628 66.828,135.423 69.786 C 140.410 72.331,143.450 68.802,143.199 60.759 C 142.976 53.577,140.699 50.752,136.195 52.067 M238.762 72.065 C 240.201 72.826,245.528 78.048,246.619 79.768 C 247.196 80.679,248.437 82.161,249.376 83.060 C 250.316 83.960,251.084 84.843,251.084 85.022 C 251.084 85.201,251.789 86.534,252.651 87.985 L 254.218 90.622 252.981 91.655 C 252.300 92.223,250.750 93.218,249.536 93.865 C 248.322 94.512,246.859 95.434,246.284 95.914 C 244.337 97.542,234.403 101.447,232.334 101.398 C 230.659 101.358,225.311 96.320,223.762 93.321 L 222.264 90.424 223.548 87.949 C 224.253 86.588,225.473 84.662,226.258 83.669 C 227.706 81.836,230.240 78.134,230.899 76.888 C 231.098 76.512,231.607 76.042,232.030 75.845 C 232.453 75.648,233.785 74.619,234.989 73.559 C 237.352 71.478,237.522 71.411,238.762 72.065 M209.397 96.418 C 211.981 99.634,216.211 104.430,216.463 104.430 C 216.635 104.430,216.777 104.611,216.777 104.832 C 216.777 105.291,218.264 107.190,221.395 110.728 C 223.911 113.570,224.017 114.209,222.485 117.247 C 221.155 119.885,220.667 119.948,217.866 117.842 C 216.604 116.893,215.348 116.117,215.076 116.117 C 214.513 116.117,213.306 114.688,211.756 112.188 C 211.172 111.245,210.213 110.191,209.626 109.844 C 209.039 109.497,208.104 108.494,207.548 107.614 C 206.992 106.735,206.199 105.652,205.786 105.209 C 203.834 103.114,201.968 97.937,202.585 96.329 C 202.926 95.440,208.672 95.516,209.397 96.418 M196.349 118.270 C 197.822 119.368,197.732 119.930,195.858 121.302 C 189.613 125.878,185.392 135.289,184.385 146.882 L 184.033 150.942 182.026 152.740 L 180.019 154.539 173.178 154.555 C 156.462 154.595,153.375 153.216,152.444 145.290 C 152.218 143.367,152.261 143.237,153.509 142.049 C 155.392 140.255,160.948 135.640,162.488 134.590 C 163.214 134.095,164.691 132.894,165.771 131.920 C 166.852 130.947,169.067 129.382,170.694 128.443 C 172.322 127.504,173.893 126.447,174.186 126.094 C 174.479 125.742,176.929 124.357,179.631 123.019 C 182.332 121.680,184.808 120.345,185.131 120.053 C 188.203 117.281,193.825 116.387,196.349 118.270 M111.738 134.175 C 115.206 135.842,115.742 136.357,117.926 140.108 C 120.622 144.738,124.386 147.382,128.342 147.425 C 131.979 147.463,134.099 148.409,139.805 152.534 C 143.317 155.074,145.293 159.361,145.317 164.494 L 145.335 168.332 143.696 170.724 C 140.869 174.853,139.394 176.043,133.549 178.915 C 126.000 182.624,115.076 178.463,111.384 170.471 C 109.773 166.984,108.954 166.048,106.503 164.893 C 101.374 162.474,99.801 164.289,99.116 173.421 C 98.401 182.952,96.084 185.795,87.913 187.166 C 81.181 188.296,80.102 189.704,77.984 200.127 C 77.268 203.649,76.556 204.056,69.683 204.876 C 62.922 205.682,62.730 205.851,61.389 212.180 C 57.960 228.367,46.861 233.324,36.660 223.224 C 30.731 217.354,30.847 208.891,36.938 202.800 C 40.224 199.514,46.962 198.566,53.181 200.515 L 56.027 201.406 58.046 200.383 C 61.891 198.435,65.054 194.266,66.105 189.761 C 66.395 188.520,66.823 187.146,67.057 186.708 C 67.770 185.376,67.549 184.169,66.009 180.984 C 60.392 169.370,65.638 159.149,78.141 157.346 C 85.750 156.249,87.160 154.781,88.599 146.466 C 89.993 138.402,92.348 135.315,98.398 133.621 C 99.538 133.301,100.811 132.879,101.225 132.682 C 103.008 131.838,108.499 132.617,111.738 134.175 M13.193 146.354 C 8.259 149.651,10.443 157.679,16.125 157.133 C 19.910 156.770,21.464 155.210,21.764 151.474 C 22.013 148.367,21.613 147.650,19.103 146.711 C 15.660 145.423,14.676 145.363,13.193 146.354 M323.378 164.910 C 321.201 165.686,320.108 166.548,319.866 167.677 C 319.744 168.244,319.463 169.484,319.241 170.431 C 318.351 174.225,324.043 177.537,327.966 175.508 C 334.212 172.279,329.998 162.547,323.378 164.910 M255.470 167.746 C 259.386 167.974,261.537 168.266,262.331 168.676 C 262.967 169.005,263.842 169.274,264.275 169.274 C 266.976 169.274,269.084 171.457,271.404 176.655 C 275.032 184.784,275.544 186.088,276.136 188.690 C 276.466 190.141,277.564 193.110,278.577 195.287 C 279.589 197.465,281.138 201.451,282.018 204.147 C 282.898 206.843,284.287 210.575,285.104 212.441 C 286.801 216.314,288.404 220.774,288.414 221.649 C 288.418 221.976,289.031 223.685,289.777 225.448 C 290.523 227.210,291.634 229.840,292.246 231.291 C 292.858 232.743,293.610 235.010,293.917 236.330 C 294.225 237.650,294.950 239.726,295.530 240.943 C 296.710 243.420,296.729 243.367,294.018 244.990 L 292.654 245.806 249.791 245.806 L 206.928 245.806 204.916 244.854 C 202.143 243.542,201.677 242.922,203.069 242.393 C 203.661 242.168,204.400 241.770,204.712 241.509 C 205.023 241.248,206.041 240.820,206.975 240.556 C 208.945 240.001,210.495 239.107,212.728 237.240 C 214.370 235.867,214.998 235.541,218.797 234.088 C 220.011 233.624,222.342 232.354,223.976 231.267 C 225.610 230.180,227.979 228.941,229.241 228.515 C 230.502 228.089,232.682 226.890,234.084 225.850 C 235.487 224.811,238.095 223.348,239.881 222.601 C 247.680 219.336,250.313 213.653,245.790 209.847 C 243.505 207.924,234.702 210.128,230.160 213.761 C 228.345 215.212,226.366 216.254,223.645 217.190 C 222.530 217.574,220.759 218.518,219.711 219.287 C 218.662 220.057,215.985 221.571,213.761 222.653 C 211.537 223.734,208.944 225.210,207.998 225.932 C 207.052 226.654,205.088 227.700,203.634 228.255 C 202.179 228.811,200.279 229.806,199.411 230.467 C 197.503 231.920,194.200 233.742,193.474 233.742 C 192.601 233.742,189.194 235.588,187.119 237.186 C 186.047 238.011,183.757 239.282,182.029 240.011 C 180.302 240.739,177.962 242.034,176.831 242.887 C 172.928 245.833,177.053 245.604,125.542 245.732 C 73.486 245.860,70.633 245.747,69.930 243.531 C 69.603 242.501,71.165 237.293,73.035 233.176 C 73.978 231.103,75.500 227.116,76.418 224.317 C 78.012 219.455,78.186 219.126,80.295 216.965 C 86.349 210.764,87.788 208.988,89.458 205.655 C 91.465 201.648,91.940 201.175,96.119 199.025 C 97.872 198.123,100.417 196.491,101.774 195.399 C 103.131 194.306,104.439 193.410,104.681 193.407 C 104.923 193.405,105.969 192.437,107.004 191.256 L 108.887 189.109 114.104 190.696 C 126.045 194.329,131.255 194.034,140.920 189.182 C 147.763 185.745,150.693 182.758,154.018 175.824 C 155.922 171.854,156.176 171.516,158.758 169.509 L 161.486 167.389 205.625 167.402 C 229.902 167.408,252.332 167.563,255.470 167.746 M317.701 262.865 C 322.483 267.742,322.682 269.129,322.682 297.455 C 322.682 323.389,322.421 325.180,318.176 328.407 C 316.751 329.490,315.502 330.593,315.401 330.858 C 314.701 332.680,301.994 332.855,168.897 332.874 L 55.985 332.891 53.723 331.385 C 52.479 330.557,51.283 329.879,51.066 329.879 C 50.594 329.877,48.303 327.506,47.240 325.919 C 44.593 321.966,43.883 278.030,46.313 268.493 C 47.160 265.168,49.644 262.329,53.312 260.493 L 55.540 259.378 184.911 259.378 L 314.281 259.378 317.701 262.865 M74.647 270.095 C 71.384 270.784,68.615 271.870,67.021 273.085 C 66.303 273.633,65.606 274.081,65.472 274.081 C 65.183 274.081,63.857 275.164,61.408 277.401 C 48.755 288.960,50.948 309.269,65.936 319.327 C 72.947 324.033,86.402 324.320,92.611 319.897 C 93.617 319.181,95.330 317.990,96.419 317.250 C 98.202 316.039,101.414 312.534,101.414 311.800 C 101.414 311.640,102.003 310.885,102.723 310.122 C 107.512 305.044,107.299 288.628,102.363 282.345 C 101.426 281.152,100.660 280.007,100.660 279.800 C 100.660 278.758,92.291 272.434,88.793 270.832 C 86.115 269.606,78.771 269.223,74.647 270.095 M281.433 269.925 C 277.527 270.218,277.452 270.251,273.005 273.623 C 262.055 281.927,258.086 290.617,260.312 301.414 C 260.978 304.644,264.927 312.718,266.651 314.375 C 274.850 322.253,276.531 322.913,287.653 322.624 C 295.434 322.421,296.874 322.010,300.544 318.943 C 301.837 317.863,303.268 316.838,303.723 316.664 C 305.358 316.043,310.078 309.301,311.025 306.234 C 313.926 296.841,312.868 287.125,308.340 281.581 C 301.032 272.632,294.335 269.114,285.580 269.627 C 285.165 269.651,283.299 269.785,281.433 269.925 M83.087 282.338 C 85.294 282.613,85.331 282.639,88.990 286.391 C 93.333 290.844,93.492 291.241,93.495 297.652 L 93.497 302.183 90.198 305.436 C 85.669 309.901,85.387 310.020,78.982 310.190 L 73.704 310.331 69.746 306.337 L 65.787 302.344 65.657 298.798 C 65.227 287.037,71.704 280.920,83.087 282.338 M290.391 282.556 C 292.249 283.040,292.927 283.504,295.503 286.055 C 299.361 289.877,299.316 289.771,299.746 296.188 L 300.114 301.686 298.347 303.754 C 293.781 309.099,291.863 310.091,286.129 310.072 C 280.452 310.053,279.361 309.562,275.956 305.497 C 270.664 299.180,270.451 292.792,275.360 287.653 C 276.252 286.720,277.340 285.430,277.779 284.787 C 279.466 282.316,285.422 281.262,290.391 282.556 M289.759 346.446 C 291.435 346.638,293.428 347.092,294.188 347.454 L 295.570 348.113 295.568 353.604 C 295.564 364.110,295.471 364.164,277.469 364.177 L 267.473 364.185 265.467 362.833 C 262.734 360.993,262.394 360.036,262.394 354.188 C 262.394 348.824,262.830 347.384,264.569 347.007 C 265.135 346.884,265.938 346.632,266.352 346.446 C 268.033 345.694,283.187 345.694,289.759 346.446 M102.643 346.802 C 105.123 347.598,106.072 351.740,105.233 358.101 C 104.509 363.588,103.325 363.998,88.219 363.991 C 72.123 363.984,71.628 363.711,71.326 354.679 C 71.091 347.670,71.369 347.141,75.627 346.489 C 78.912 345.986,100.893 346.241,102.643 346.802 " stroke="none" fill="#000000" fill-rule="evenodd"></path></g></svg>