<svg id="svg" xmlns="http://www.w3.org/2000/svg" xmlns:xlink="http://www.w3.org/1999/xlink" width="400" height="398.5239852398524" viewBox="0, 0, 400,398.5239852398524"><g id="svgg"><path id="path0" d="M28.103 1.650 C 24.524 5.727,24.634 21.110,28.259 23.485 C 29.974 24.609,34.227 23.203,35.237 21.178 C 35.444 20.762,35.901 20.134,36.253 19.783 C 39.005 17.031,38.918 7.183,36.117 4.383 C 35.736 4.002,35.424 3.532,35.424 3.340 C 35.424 2.443,31.549 0.369,29.872 0.369 C 29.518 0.369,28.721 0.946,28.103 1.650 M168.812 11.816 C 159.361 12.206,157.947 12.855,150.738 20.115 C 147.957 22.916,143.538 34.609,142.038 43.135 C 141.113 48.391,139.720 53.823,138.293 57.734 C 135.880 64.345,134.937 71.210,135.424 78.625 C 135.781 84.074,136.619 85.787,141.087 90.212 C 146.184 95.259,146.369 95.310,162.187 95.918 C 174.143 96.379,173.780 96.091,174.063 105.351 C 174.471 118.726,174.291 118.912,160.332 119.546 C 150.911 119.974,145.860 120.627,143.338 121.742 C 141.263 122.660,135.055 128.311,133.518 130.682 C 132.841 131.725,131.989 133.040,131.625 133.604 C 130.564 135.245,128.840 140.576,128.405 143.561 C 128.184 145.073,127.411 148.718,126.687 151.661 C 124.072 162.284,123.617 164.481,122.869 170.098 C 121.982 176.759,121.155 180.824,119.189 188.192 C 118.404 191.135,116.990 198.026,116.047 203.506 C 115.105 208.985,113.691 216.125,112.906 219.373 C 112.120 222.620,110.725 229.532,109.805 234.733 C 108.129 244.210,107.012 249.531,106.315 251.364 C 105.658 253.095,104.122 260.929,103.509 265.683 C 102.780 271.341,101.815 276.072,100.351 281.172 C 99.737 283.308,98.738 287.878,98.131 291.328 C 96.134 302.661,94.804 309.028,94.258 309.863 C 92.801 312.092,90.119 312.548,76.384 312.905 C 61.834 313.282,61.807 313.292,56.292 319.903 C 52.477 324.478,52.209 325.283,52.239 332.103 C 52.264 338.117,52.933 341.459,55.043 346.125 C 55.456 347.039,56.928 351.107,58.313 355.166 C 59.699 359.225,61.355 363.708,61.994 365.129 C 62.633 366.550,63.801 369.915,64.589 372.608 C 66.304 378.464,67.059 380.250,68.532 381.938 C 69.143 382.638,70.244 384.153,70.978 385.305 C 71.712 386.457,73.341 388.284,74.598 389.364 C 75.854 390.445,77.642 392.012,78.570 392.848 C 84.616 398.291,84.092 398.273,226.753 398.045 C 312.571 397.909,321.125 397.841,323.985 397.282 C 329.411 396.222,331.889 395.320,334.007 393.634 C 335.091 392.771,336.948 391.412,338.134 390.614 C 339.320 389.815,340.566 388.767,340.902 388.286 C 341.238 387.804,342.232 386.548,343.111 385.495 C 345.389 382.764,346.413 380.895,348.007 376.561 C 348.777 374.465,350.164 371.100,351.088 369.085 C 352.012 367.069,352.768 365.175,352.768 364.876 C 352.768 363.773,355.729 354.498,356.963 351.740 C 363.890 336.246,363.543 326.124,355.810 318.030 C 351.205 313.210,351.365 313.253,336.716 312.937 C 327.250 312.732,324.652 312.568,323.616 312.108 C 319.528 310.292,318.323 306.192,313.547 277.860 C 313.256 276.135,312.267 271.817,311.347 268.266 C 310.428 264.714,309.403 259.982,309.068 257.749 C 308.734 255.517,308.279 252.528,308.057 251.107 C 307.835 249.686,306.837 245.618,305.839 242.066 C 304.842 238.515,303.857 234.280,303.651 232.657 C 302.528 223.824,301.606 218.715,299.959 212.207 C 298.953 208.233,297.632 202.159,297.025 198.708 C 295.023 187.346,294.435 184.391,292.796 177.491 C 291.905 173.736,290.409 166.108,289.472 160.539 C 288.264 153.365,287.337 149.063,286.289 145.779 C 285.477 143.230,284.575 139.920,284.285 138.424 C 283.406 133.878,281.926 131.273,278.089 127.520 C 271.475 121.050,270.083 120.567,255.637 119.727 C 246.108 119.174,241.406 118.669,240.876 118.143 C 239.330 116.610,238.109 107.568,238.714 102.144 C 239.333 96.604,239.496 96.530,252.214 95.961 C 268.818 95.218,267.709 95.518,272.690 90.419 C 277.066 85.940,278.325 83.211,278.825 77.122 C 279.249 71.953,276.756 58.531,273.617 49.077 C 272.707 46.338,271.461 41.605,270.847 38.561 C 269.220 30.489,268.392 27.757,266.821 25.277 C 266.050 24.059,265.062 22.460,264.626 21.724 C 263.781 20.297,260.776 17.343,260.170 17.343 C 259.970 17.343,258.809 16.453,257.590 15.366 C 254.768 12.847,252.557 12.188,245.572 11.781 C 239.375 11.419,177.728 11.448,168.812 11.816 M49.446 25.113 C 44.213 25.600,42.427 26.434,41.297 28.923 C 39.994 31.792,40.883 36.458,42.878 37.226 C 49.628 39.825,54.983 39.767,59.684 37.041 C 64.431 34.290,61.647 26.065,55.703 25.276 C 52.622 24.866,52.213 24.856,49.446 25.113 M4.673 25.544 C -1.046 27.059,-1.520 35.882,3.989 38.290 C 5.671 39.025,14.824 39.125,17.231 38.434 C 22.044 37.052,23.167 28.632,18.837 26.393 C 16.565 25.218,7.870 24.697,4.673 25.544 M249.034 25.888 C 250.769 26.923,252.768 28.800,252.768 29.395 C 252.768 29.653,253.113 30.048,253.535 30.274 C 254.553 30.819,256.457 34.902,256.457 36.541 C 256.458 38.287,258.258 45.492,260.304 51.932 C 261.222 54.822,262.245 58.641,262.578 60.419 C 262.910 62.198,263.663 65.646,264.251 68.081 C 266.909 79.094,265.191 81.661,254.737 82.301 C 237.885 83.333,157.877 82.222,151.292 80.865 C 147.867 80.159,147.991 68.405,151.522 59.084 C 152.829 55.634,155.280 45.978,155.903 41.825 C 156.467 38.069,157.440 35.579,159.806 31.832 C 160.618 30.546,161.436 29.091,161.623 28.599 C 161.810 28.108,162.663 27.242,163.519 26.676 L 165.075 25.646 199.235 25.457 C 218.023 25.352,236.613 25.228,240.547 25.180 C 247.298 25.097,247.774 25.137,249.034 25.888 M27.903 43.572 C 24.492 47.367,24.386 59.430,27.737 62.499 C 30.175 64.731,36.876 62.351,37.642 58.981 C 39.604 50.341,38.193 45.684,32.789 42.963 C 29.643 41.378,29.905 41.345,27.903 43.572 M363.107 64.618 C 358.596 66.418,357.674 74.864,361.754 77.017 C 365.342 78.910,371.371 76.400,371.829 72.822 C 372.361 68.676,366.575 63.235,363.107 64.618 M222.988 96.622 C 226.130 97.904,226.355 114.974,223.271 118.058 C 222.039 119.289,194.310 119.690,191.436 118.518 C 187.622 116.964,186.792 98.982,190.443 97.028 C 192.440 95.959,220.506 95.609,222.988 96.622 M376.937 119.927 C 371.121 120.551,366.738 122.306,365.000 124.706 C 364.425 125.499,363.423 126.596,362.773 127.143 C 358.809 130.478,357.334 143.306,360.172 149.762 C 366.345 163.805,391.326 163.797,397.908 149.750 C 400.761 143.659,399.977 131.057,396.553 127.979 C 394.204 125.867,393.885 125.558,392.481 124.032 C 389.495 120.785,383.558 119.217,376.937 119.927 M230.767 134.434 C 233.168 135.533,233.701 136.428,234.110 140.037 C 234.247 141.255,234.680 144.244,235.070 146.679 C 236.271 154.169,236.910 162.108,237.150 172.529 L 237.379 182.513 234.096 185.451 C 229.783 189.310,229.082 189.780,225.621 191.144 C 220.376 193.211,219.625 193.940,218.109 198.440 C 217.041 201.611,217.587 202.935,221.171 205.871 C 222.617 207.056,224.117 208.379,224.504 208.810 C 224.890 209.241,225.480 209.594,225.815 209.594 C 229.096 209.594,238.745 217.424,238.745 220.086 C 238.745 220.234,239.315 221.213,240.011 222.262 C 242.767 226.416,243.435 229.038,243.930 237.638 C 244.122 240.987,244.602 247.297,244.995 251.661 C 245.389 256.024,245.820 261.338,245.953 263.469 C 246.087 265.600,246.499 268.921,246.870 270.849 C 248.921 281.523,251.071 308.934,249.986 310.590 C 248.758 312.463,239.898 312.868,200.000 312.871 C 174.608 312.873,168.703 312.663,165.406 311.642 L 163.469 311.042 163.469 307.755 C 163.469 303.679,163.762 303.272,168.653 300.568 C 171.060 299.238,172.463 298.194,173.182 297.199 C 174.999 294.684,178.983 287.808,181.526 282.798 C 182.877 280.136,184.295 277.645,184.678 277.263 C 185.060 276.881,186.014 275.202,186.797 273.531 C 188.040 270.880,188.441 270.366,189.959 269.490 C 191.691 268.489,193.042 267.482,196.180 264.852 C 197.088 264.091,198.086 263.469,198.397 263.469 C 198.709 263.469,199.404 263.222,199.943 262.920 C 200.482 262.618,201.919 262.010,203.137 261.569 C 204.354 261.128,205.884 260.236,206.536 259.586 C 207.798 258.328,212.095 256.070,214.630 255.332 C 218.246 254.281,222.024 246.817,220.011 244.702 C 219.660 244.333,219.193 243.714,218.973 243.326 C 218.753 242.937,217.827 242.122,216.914 241.513 C 216.002 240.904,214.701 239.937,214.024 239.363 C 213.346 238.790,210.785 237.315,208.333 236.085 C 205.881 234.856,202.917 233.200,201.746 232.405 C 200.576 231.610,198.215 230.372,196.499 229.654 C 191.688 227.640,188.885 224.954,186.345 219.922 C 185.779 218.802,184.635 217.061,183.802 216.053 C 182.969 215.045,182.288 214.032,182.288 213.803 C 182.288 213.327,178.401 205.546,176.775 202.768 C 174.399 198.709,174.388 182.528,176.750 167.712 C 177.475 163.168,178.596 153.253,179.326 144.938 C 180.400 132.698,179.037 133.219,209.629 133.375 L 228.668 133.473 230.767 134.434 M164.250 134.618 C 167.450 136.168,167.341 135.395,166.042 147.277 C 165.413 153.037,164.590 158.994,164.214 160.517 C 163.839 162.039,163.431 165.028,163.308 167.159 C 163.185 169.290,162.852 173.026,162.568 175.461 C 162.284 177.897,161.947 182.214,161.819 185.055 C 161.312 196.309,160.044 202.774,157.586 206.642 C 156.619 208.164,155.143 210.878,154.305 212.673 C 153.468 214.468,152.064 216.958,151.184 218.208 C 150.305 219.457,149.132 221.268,148.578 222.231 C 146.619 225.640,140.802 230.258,138.467 230.258 C 138.067 230.258,136.629 231.078,135.272 232.080 C 131.375 234.956,126.394 236.148,124.829 234.578 C 123.668 233.412,123.977 228.427,125.566 222.694 C 127.758 214.786,129.889 204.727,129.889 202.288 C 129.889 200.459,131.224 194.216,132.283 191.089 C 133.523 187.427,135.890 175.045,136.892 166.974 C 137.119 165.148,137.944 161.328,138.726 158.487 C 140.525 151.951,141.579 147.289,141.897 144.465 C 142.404 139.965,147.046 135.278,152.301 133.960 C 154.986 133.286,162.337 133.691,164.250 134.618 M262.352 134.131 C 270.160 135.773,273.205 142.356,276.392 164.484 C 277.108 169.453,278.077 174.285,279.152 178.253 C 282.213 189.546,281.947 190.777,276.449 190.773 C 274.407 190.771,272.884 190.581,272.244 190.247 C 271.077 189.638,263.100 182.688,263.100 182.280 C 263.100 182.129,262.381 180.947,261.502 179.655 C 260.623 178.363,259.004 175.568,257.904 173.443 C 256.544 170.815,255.166 168.794,253.600 167.126 C 250.162 163.468,249.899 162.480,249.059 150.036 C 248.827 146.605,248.400 142.952,248.110 141.918 C 246.823 137.331,247.344 135.808,250.723 134.273 C 252.621 133.411,258.582 133.338,262.352 134.131 M382.392 134.091 C 386.245 135.750,387.384 139.310,385.377 143.420 C 383.384 147.501,374.705 147.512,372.732 143.436 C 369.737 137.251,375.895 131.293,382.392 134.091 M59.325 139.881 C 56.208 143.156,56.225 143.081,58.006 145.734 C 60.813 149.914,61.750 150.351,64.831 148.916 C 71.550 145.788,71.697 141.993,65.224 138.759 C 62.146 137.221,61.792 137.288,59.325 139.881 M252.065 193.020 C 254.383 193.466,254.538 193.563,255.329 195.054 C 255.786 195.915,256.967 197.621,257.953 198.845 L 259.747 201.071 257.332 203.283 C 255.182 205.254,254.533 205.616,251.406 206.589 L 247.895 207.683 246.304 206.148 C 244.107 204.026,243.310 203.377,241.852 202.516 C 240.138 201.505,240.215 201.290,243.621 197.509 C 244.399 196.646,245.229 195.483,245.466 194.926 C 245.703 194.368,246.239 193.524,246.657 193.052 C 247.475 192.126,247.422 192.126,252.065 193.020 M282.693 206.913 C 285.409 209.199,286.928 214.172,289.485 229.151 C 290.403 234.530,291.722 241.172,292.417 243.911 C 293.920 249.840,295.737 259.034,296.320 263.653 C 296.792 267.397,297.225 269.380,299.043 276.105 C 299.742 278.691,300.915 284.171,301.650 288.282 C 302.385 292.393,303.570 298.861,304.284 302.655 C 305.822 310.821,305.847 310.706,302.300 311.835 C 297.249 313.443,269.500 313.178,266.609 311.495 C 264.450 310.238,264.254 309.277,262.917 293.358 C 262.011 282.570,261.628 279.197,260.386 271.033 C 258.999 261.920,257.808 246.074,257.778 236.335 L 257.749 226.729 259.144 223.973 C 259.912 222.458,261.406 220.154,262.465 218.855 C 263.525 217.555,264.811 215.749,265.324 214.843 C 266.175 213.339,266.606 213.037,270.226 211.404 C 272.408 210.419,274.953 209.069,275.881 208.404 C 279.993 205.458,280.763 205.289,282.693 206.913 M173.431 224.589 C 177.684 232.508,179.735 235.123,183.764 237.767 C 184.880 238.500,186.602 239.671,187.590 240.370 C 188.578 241.069,190.819 242.266,192.571 243.031 C 197.746 245.290,197.908 245.607,195.306 248.388 C 192.449 251.443,189.104 253.869,185.879 255.228 C 182.358 256.711,181.770 257.192,179.104 260.770 C 178.017 262.228,176.955 263.528,176.744 263.659 C 176.533 263.789,175.291 266.029,173.985 268.635 C 171.288 274.017,171.183 274.096,167.830 273.237 C 164.441 272.368,164.124 272.057,161.564 267.076 C 158.987 262.061,153.138 255.351,151.344 255.351 C 149.031 255.351,140.231 247.877,140.223 245.906 C 140.219 245.051,143.237 243.205,145.550 242.648 C 148.317 241.981,159.410 232.806,159.410 231.185 C 159.410 230.941,159.742 230.441,160.148 230.074 C 160.554 229.706,160.886 229.255,160.886 229.070 C 160.886 227.013,164.759 221.410,166.194 221.393 C 166.623 221.387,167.638 221.067,168.450 220.680 C 170.664 219.626,170.839 219.763,173.431 224.589 M21.218 235.477 C 17.958 235.890,15.096 237.272,13.558 239.175 C 12.900 239.989,11.733 241.297,10.965 242.083 C 5.218 247.958,5.354 261.625,11.225 268.155 C 12.155 269.189,12.915 270.187,12.915 270.373 C 12.915 273.903,24.975 276.522,33.782 274.904 L 37.816 274.163 41.434 270.569 C 49.963 262.094,50.709 249.792,43.215 241.227 C 42.210 240.078,41.167 238.840,40.897 238.475 C 40.627 238.110,39.991 237.598,39.483 237.338 C 38.976 237.077,38.109 236.617,37.557 236.314 C 35.511 235.192,26.925 234.752,21.218 235.477 M31.549 250.155 C 34.468 251.800,34.339 259.297,31.365 260.783 C 29.943 261.494,24.798 261.383,23.247 260.608 C 19.934 258.953,19.683 251.895,22.876 250.186 C 25.043 249.026,29.517 249.010,31.549 250.155 M127.675 257.796 C 128.386 258.284,129.664 259.245,130.516 259.932 C 131.368 260.620,133.195 261.553,134.575 262.007 C 138.015 263.138,139.529 263.947,141.634 265.778 C 142.624 266.639,144.512 268.109,145.830 269.045 C 147.640 270.332,148.431 271.187,149.073 272.551 C 149.539 273.543,150.631 275.101,151.500 276.015 L 153.079 277.675 152.755 283.345 C 152.402 289.526,152.199 291.296,151.457 294.649 C 151.188 295.867,150.863 298.109,150.735 299.631 C 149.583 313.297,150.260 312.913,127.306 312.903 L 113.100 312.897 111.329 311.598 C 110.355 310.883,109.456 310.033,109.332 309.709 C 108.727 308.134,111.626 290.088,113.499 283.764 C 114.947 278.876,115.680 275.433,116.052 271.771 C 116.588 266.493,118.047 258.952,118.664 258.270 C 120.364 256.391,125.256 256.134,127.675 257.796 M346.004 327.768 C 349.173 331.132,348.145 339.884,343.370 350.181 C 341.264 354.723,340.787 356.074,340.389 358.640 C 340.061 360.751,338.667 364.834,337.514 367.063 C 336.111 369.774,335.055 372.176,335.055 372.657 C 335.055 375.882,327.813 382.565,323.432 383.382 C 315.686 384.827,101.408 384.869,91.246 383.427 C 88.335 383.014,85.120 381.598,84.511 380.460 C 84.299 380.064,83.283 378.776,82.253 377.600 C 80.141 375.186,78.128 371.245,77.529 368.350 C 77.307 367.280,76.728 365.619,76.242 364.659 C 74.725 361.667,73.550 358.516,71.772 352.681 C 70.828 349.583,69.254 345.138,68.275 342.804 C 64.455 333.705,64.753 328.779,69.218 327.230 C 70.916 326.641,79.871 326.600,207.953 326.584 L 344.874 326.568 346.004 327.768 " stroke="none" fill="#000000" fill-rule="evenodd"></path></g></svg>